{
copyright = "Copyright \U00A9 2014 by James Puckett. All rights reserved.";
customParameters = (
{
name = licenseURL;
value = "This Font Software is licensed under the SIL Open Font License, Version 1.1. This license is available with a FAQ at: http://scripts.sil.org/OFL";
},
{
name = vendorID;
value = dtf;
},
{
name = trademark;
value = "Rhodium is a trademark of Dunwich Type Founders.";
},
{
name = description;
value = "This is a development font. This font is not finished and should not be used in production environments. Use it at your own risk.";
},
{
name = license;

glyphs = (
{
color = 4;
glyphname = A;
lastChange = "2014-09-18 19:42:26 +0000";
layers = (
{
anchors = (
{
name = ogonek;
position = "{596, 10}";
},
{
name = top;
position = "{360, 688}";
}
);
background = {
paths = (
{
closed = 1;
nodes = (
"305 688 LINE",
"77 86 LINE",
"8 55 LINE",
"8 0 LINE",
"221 0 LINE",
"221 55 LINE",
"150 81 LINE",
"369 671 LINE",
"337 671 LINE",
"554 82 LINE",
"484 55 LINE",
"484 0 LINE",
"714 0 LINE",
"714 55 LINE",
"645 87 LINE",
"417 688 LINE"
);
},
{
closed = 1;
nodes = (
"191 300 LINE",
"169 229 LINE",
"534 229 LINE",
"510 300 LINE"
);
}
);
};
layerId = "0225C979-6A3F-4323-834E-E3153ADD1AE8";
name = Regular;
paths = (
{
closed = 1;
nodes = (
"305 688 LINE",
"77 86 LINE",
"8 55 LINE",
"8 0 LINE",
"221 0 LINE",
"221 55 LINE",
"150 81 LINE",
"369 671 LINE",
"337 671 LINE",
"554 82 LINE",
"484 55 LINE",
"484 0 LINE",
"714 0 LINE",
"714 55 LINE",
"645 87 LINE",
"417 688 LINE"
);
},
{
closed = 1;
nodes = (
"191 300 LINE",
"169 229 LINE",
"534 229 LINE",
"510 300 LINE"
);
}
);
width = 722;
}
);
unicode = 0041;
},
{
color = 4;
glyphname = B;
lastChange = "2014-09-18 19:42:26 +0000";
layers = (
{
background = {
paths = (
{
closed = 1;
nodes = (
"55 680 LINE",
"55 623 LINE",
"129 594 LINE",
"129 86 LINE",
"55 55 LINE",
"55 0 LINE",
"476 0 LINE SMOOTH",
"607 0 OFFCURVE",
"650 71 OFFCURVE",
"650 176 CURVE SMOOTH",
"650 290 OFFCURVE",
"600 340 OFFCURVE",
"530 346 CURVE",
"601 362 OFFCURVE",
"640 424 OFFCURVE",
"640 514 CURVE SMOOTH",
"640 617 OFFCURVE",
"589 680 OFFCURVE",
"461 680 CURVE SMOOTH"
);
},
{
closed = 1;
nodes = (
"534 306 OFFCURVE",
"560 270 OFFCURVE",
"560 191 CURVE SMOOTH",
"560 103 OFFCURVE",
"528 72 OFFCURVE",
"466 72 CURVE SMOOTH",
"215 72 LINE",
"215 306 LINE",
"452 306 LINE SMOOTH"
);
},
{
closed = 1;
nodes = (
"526 608 OFFCURVE",
"550 577 OFFCURVE",
"550 496 CURVE SMOOTH",
"550 407 OFFCURVE",
"521 378 OFFCURVE",
"440 378 CURVE SMOOTH",
"215 378 LINE",
"215 608 LINE",
"458 608 LINE SMOOTH"
);
}
);
};
layerId = "0225C979-6A3F-4323-834E-E3153ADD1AE8";
leftMetricsKey = "=H";
name = Regular;
paths = (
{
closed = 1;
nodes = (
"55 680 LINE",
"55 623 LINE",
"129 594 LINE",
"129 86 LINE",
"55 55 LINE",
"55 0 LINE",
"476 0 LINE SMOOTH",
"607 0 OFFCURVE",
"650 71 OFFCURVE",
"650 176 CURVE SMOOTH",
"650 290 OFFCURVE",
"600 340 OFFCURVE",
"530 346 CURVE",
"601 362 OFFCURVE",
"640 424 OFFCURVE",
"640 514 CURVE SMOOTH",
"640 617 OFFCURVE",
"589 680 OFFCURVE",
"461 680 CURVE SMOOTH"
);
},
{
closed = 1;
nodes = (
"534 306 OFFCURVE",
"560 270 OFFCURVE",
"560 191 CURVE SMOOTH",
"560 103 OFFCURVE",
"528 72 OFFCURVE",
"466 72 CURVE SMOOTH",
"215 72 LINE",
"215 306 LINE",
"452 306 LINE SMOOTH"
);
},
{
closed = 1;
nodes = (
"526 608 OFFCURVE",
"550 577 OFFCURVE",
"550 496 CURVE SMOOTH",
"550 407 OFFCURVE",
"521 378 OFFCURVE",
"440 378 CURVE SMOOTH",
"215 378 LINE",
"215 608 LINE",
"458 608 LINE SMOOTH"
);
}
);
width = 705;
}
);
leftMetricsKey = H;
unicode = 0042;
},
{
color = 3;
glyphname = C;
lastChange = "2014-09-18 19:42:26 +0000";
layers = (
{
anchors = (
{
name = bottom;
position = "{396, 0}";
},
{
name = top;
position = "{412, 680}";
}
);
layerId = "0225C979-6A3F-4323-834E-E3153ADD1AE8";
name = Regular;
paths = (
{
closed = 1;
nodes = (
"171 692 OFFCURVE",
"44 591 OFFCURVE",
"44 340 CURVE SMOOTH",
"44 96 OFFCURVE",
"165 -12 OFFCURVE",
"386 -12 CURVE SMOOTH",
"470 -12 OFFCURVE",
"556 3 OFFCURVE",
"614 30 CURVE",
"614 102 LINE",
"540 72 OFFCURVE",
"453 62 OFFCURVE",
"386 62 CURVE SMOOTH",
"211 62 OFFCURVE",
"134 134 OFFCURVE",
"134 343 CURVE SMOOTH",
"134 547 OFFCURVE",
"208 618 OFFCURVE",
"392 618 CURVE SMOOTH",
"441 618 OFFCURVE",
"494 613 OFFCURVE",
"546 600 CURVE",
"527 642 LINE",
"549 491 LINE",
"614 491 LINE",
"614 668 LINE",
"540 684 OFFCURVE",
"464 692 OFFCURVE",
"400 692 CURVE SMOOTH"
);
}
);
width = 679;
}
);
leftMetricsKey = O;
unicode = 0043;
},
{
color = 4;
glyphname = D;
lastChange = "2014-09-18 19:42:26 +0000";
layers = (
{
background = {
paths = (
{
closed = 1;
nodes = (
"55 680 LINE",
"55 623 LINE",
"145 594 LINE",
"145 86 LINE",
"55 55 LINE",
"55 0 LINE",
"412 0 LINE SMOOTH",
"569 0 OFFCURVE",
"727 70 OFFCURVE",
"727 342 CURVE SMOOTH",
"727 610 OFFCURVE",
"569 680 OFFCURVE",
"412 680 CURVE SMOOTH"
);
},
{
closed = 1;
nodes = (
"534 608 OFFCURVE",
"637 559 OFFCURVE",
"637 342 CURVE SMOOTH",
"637 120 OFFCURVE",
"534 72 OFFCURVE",
"391 72 CURVE SMOOTH",
"231 72 LINE",
"231 608 LINE",
"391 608 LINE SMOOTH"
);
}
);
};
guideLines = (
{
angle = -51;
position = "{553, 144}";
showMeasurement = 1;
}
);
layerId = "0225C979-6A3F-4323-834E-E3153ADD1AE8";
rightMetricsKey = "=O";
name = Regular;
paths = (
{
closed = 1;
nodes = (
"55 680 LINE",
"55 623 LINE",
"145 594 LINE",
"145 86 LINE",
"55 55 LINE",
"55 0 LINE",
"412 0 LINE SMOOTH",
"569 0 OFFCURVE",
"727 70 OFFCURVE",
"727 342 CURVE SMOOTH",
"727 610 OFFCURVE",
"569 680 OFFCURVE",
"412 680 CURVE SMOOTH"
);
},
{
closed = 1;
nodes = (
"534 608 OFFCURVE",
"637 559 OFFCURVE",
"637 342 CURVE SMOOTH",
"637 120 OFFCURVE",
"534 72 OFFCURVE",
"391 72 CURVE SMOOTH",
"231 72 LINE",
"231 608 LINE",
"391 608 LINE SMOOTH"
);
}
);
width = 771;
}
);
leftMetricsKey = H;
rightMetricsKey = O;
unicode = 0044;
},
{
color = 4;
glyphname = E;
lastChange = "2014-09-18 19:42:26 +0000";
layers = (
{
background = {
guideLines = (
{
angle = 90;
position = "{645, 85}";
}
);
paths = (
{
closed = 1;
nodes = (
"55 680 LINE",
"55 623 LINE",
"129 594 LINE",
"129 85 LINE",
"55 55 LINE",
"55 0 LINE",
"640 0 LINE",
"640 187 LINE",
"581 187 LINE",
"555 72 LINE",
"215 72 LINE",
"215 306 LINE",
"414 306 LINE",
"429 229 LINE",
"484 229 LINE",
"484 455 LINE",
"429 455 LINE",
"414 378 LINE",
"215 378 LINE",
"215 608 LINE",
"555 608 LINE",
"581 503 LINE",
"640 503 LINE",
"640 680 LINE"
);
}
);
};
layerId = "0225C979-6A3F-4323-834E-E3153ADD1AE8";
name = Regular;
paths = (
{
closed = 1;
nodes = (
"55 680 LINE",
"55 623 LINE",
"129 594 LINE",
"129 85 LINE",
"55 55 LINE",
"55 0 LINE",
"640 0 LINE",
"640 187 LINE",
"581 187 LINE",
"555 72 LINE",
"215 72 LINE",
"215 306 LINE",
"414 306 LINE",
"429 229 LINE",
"484 229 LINE",
"484 455 LINE",
"429 455 LINE",
"414 378 LINE",
"215 378 LINE",
"215 608 LINE",
"555 608 LINE",
"581 503 LINE",
"640 503 LINE",
"640 680 LINE"
);
}
);
width = 692;
}
);
leftMetricsKey = H;
unicode = 0045;
},
{
color = 4;
glyphname = F;
lastChange = "2014-09-18 19:42:26 +0000";
layers = (
{
background = {
paths = (
{
closed = 1;
nodes = (
"53 680 LINE",
"53 623 LINE",
"129 594 LINE",
"129 85 LINE",
"53 55 LINE",
"53 0 LINE",
"311 0 LINE",
"311 55 LINE",
"215 85 LINE",
"215 297 LINE",
"407 297 LINE",
"422 216 LINE",
"477 216 LINE",
"477 447 LINE",
"422 447 LINE",
"407 369 LINE",
"215 369 LINE",
"215 609 LINE",
"548 609 LINE",
"575 497 LINE",
"634 497 LINE",
"634 680 LINE"
);
}
);
};
layerId = "0225C979-6A3F-4323-834E-E3153ADD1AE8";
name = Regular;
paths = (
{
closed = 1;
nodes = (
"55 680 LINE",
"55 623 LINE",
"129 594 LINE",
"129 85 LINE",
"55 55 LINE",
"55 0 LINE",
"306 0 LINE",
"306 55 LINE",
"215 85 LINE",
"215 297 LINE",
"407 297 LINE",
"422 216 LINE",
"477 216 LINE",
"477 447 LINE",
"422 447 LINE",
"407 369 LINE",
"215 369 LINE",
"215 609 LINE",
"548 609 LINE",
"575 497 LINE",
"634 497 LINE",
"634 680 LINE"
);
}
);
width = 679;
}
);
leftMetricsKey = H;
unicode = 0046;
},
{
color = 4;
glyphname = G;
lastChange = "2014-09-18 19:42:26 +0000";
layers = (
{
background = {
paths = (
{
closed = 1;
nodes = (
"171 692 OFFCURVE",
"44 587 OFFCURVE",
"44 340 CURVE SMOOTH",
"44 99 OFFCURVE",
"165 -12 OFFCURVE",
"385 -12 CURVE SMOOTH",
"454 -12 OFFCURVE",
"544 -1 OFFCURVE",
"614 21 CURVE",
"614 254 LINE",
"678 283 LINE",
"678 340 LINE",
"465 340 LINE",
"465 283 LINE",
"529 254 LINE",
"529 79 LINE",
"484 67 OFFCURVE",
"434 62 OFFCURVE",
"381 62 CURVE SMOOTH",
"211 62 OFFCURVE",
"134 139 OFFCURVE",
"134 340 CURVE SMOOTH",
"134 547 OFFCURVE",
"208 618 OFFCURVE",
"388 618 CURVE SMOOTH",
"443 618 OFFCURVE",
"494 613 OFFCURVE",
"546 600 CURVE",
"527 642 LINE",
"549 491 LINE",
"614 491 LINE",
"614 668 LINE",
"540 684 OFFCURVE",
"469 692 OFFCURVE",
"389 692 CURVE SMOOTH"
);
}
);
};
guideLines = (
{
angle = 167.8;
position = "{628, 664}";
},
{
angle = 90;
position = "{1358, 608}";
},
{
angle = 90;
position = "{1534, 608}";
},
{
angle = 135;
position = "{314, 479}";
showMeasurement = 1;
}
);
layerId = "0225C979-6A3F-4323-834E-E3153ADD1AE8";
name = Regular;
paths = (
{
closed = 1;
nodes = (
"171 692 OFFCURVE",
"44 587 OFFCURVE",
"44 340 CURVE SMOOTH",
"44 99 OFFCURVE",
"165 -12 OFFCURVE",
"385 -12 CURVE SMOOTH",
"454 -12 OFFCURVE",
"544 -1 OFFCURVE",
"614 21 CURVE",
"614 254 LINE",
"678 283 LINE",
"678 340 LINE",
"465 340 LINE",
"465 283 LINE",
"529 254 LINE",
"529 79 LINE",
"484 67 OFFCURVE",
"434 62 OFFCURVE",
"381 62 CURVE SMOOTH",
"211 62 OFFCURVE",
"134 139 OFFCURVE",
"134 340 CURVE SMOOTH",
"134 547 OFFCURVE",
"208 618 OFFCURVE",
"388 618 CURVE SMOOTH",
"443 618 OFFCURVE",
"494 613 OFFCURVE",
"546 600 CURVE",
"527 642 LINE",
"549 491 LINE",
"614 491 LINE",
"614 668 LINE",
"540 684 OFFCURVE",
"469 692 OFFCURVE",
"389 692 CURVE SMOOTH"
);
}
);
width = 698;
},
{
associatedMasterId = "0225C979-6A3F-4323-834E-E3153ADD1AE8";
background = {
paths = (
{
closed = 1;
nodes = (
"171 692 OFFCURVE",
"44 587 OFFCURVE",
"44 340 CURVE SMOOTH",
"44 99 OFFCURVE",
"165 -12 OFFCURVE",
"385 -12 CURVE SMOOTH",
"448 -12 OFFCURVE",
"538 -1 OFFCURVE",
"608 21 CURVE",
"608 254 LINE",
"675 283 LINE",
"675 340 LINE",
"426 340 LINE",
"426 283 LINE",
"523 254 LINE",
"523 79 LINE",
"478 67 OFFCURVE",
"428 62 OFFCURVE",
"381 62 CURVE SMOOTH",
"211 62 OFFCURVE",
"134 139 OFFCURVE",
"134 340 CURVE SMOOTH",
"134 547 OFFCURVE",
"208 618 OFFCURVE",
"388 618 CURVE SMOOTH",
"437 618 OFFCURVE",
"488 613 OFFCURVE",
"540 600 CURVE",
"521 642 LINE",
"543 491 LINE",
"608 491 LINE",
"608 668 LINE",
"534 684 OFFCURVE",
"463 692 OFFCURVE",
"389 692 CURVE SMOOTH"
);
}
);
};
guideLines = (
{
angle = 167.8;
position = "{628, 664}";
},
{
angle = 90;
position = "{1358, 608}";
},
{
angle = 90;
position = "{1534, 608}";
}
);
layerId = "C6D1E207-B82A-45F0-B70F-F60CA90FEB14";
name = "Regular Jun 16 14, 09:53";
paths = (
{
closed = 1;
nodes = (
"171 692 OFFCURVE",
"44 587 OFFCURVE",
"44 340 CURVE SMOOTH",
"44 99 OFFCURVE",
"165 -12 OFFCURVE",
"385 -12 CURVE SMOOTH",
"448 -12 OFFCURVE",
"538 -1 OFFCURVE",
"608 21 CURVE",
"608 254 LINE",
"672 283 LINE",
"672 340 LINE",
"459 340 LINE",
"459 283 LINE",
"523 254 LINE",
"523 79 LINE",
"478 67 OFFCURVE",
"428 62 OFFCURVE",
"381 62 CURVE SMOOTH",
"211 62 OFFCURVE",
"134 139 OFFCURVE",
"134 340 CURVE SMOOTH",
"134 547 OFFCURVE",
"208 618 OFFCURVE",
"388 618 CURVE SMOOTH",
"437 618 OFFCURVE",
"488 613 OFFCURVE",
"540 600 CURVE",
"521 642 LINE",
"543 491 LINE",
"608 491 LINE",
"608 668 LINE",
"534 684 OFFCURVE",
"463 692 OFFCURVE",
"389 692 CURVE SMOOTH"
);
}
);
width = 692;
},
{
associatedMasterId = "0225C979-6A3F-4323-834E-E3153ADD1AE8";
background = {
guideLines = (
{
angle = 100.187;
position = "{485, 464}";
}
);
paths = (
{
closed = 1;
nodes = (
"145 702 OFFCURVE",
"24 578 OFFCURVE",
"24 344 CURVE SMOOTH",
"24 93 OFFCURVE",
"155 -22 OFFCURVE",
"408 -22 CURVE SMOOTH",
"498 -22 OFFCURVE",
"628 -4 OFFCURVE",
"698 18 CURVE",
"698 214 LINE",
"765 246 LINE",
"765 350 LINE",
"405 350 LINE",
"405 246 LINE",
"496 214 LINE",
"496 132 LINE",
"468 126 OFFCURVE",
"435 122 OFFCURVE",
"401 122 CURVE SMOOTH",
"295 122 OFFCURVE",
"246 162 OFFCURVE",
"246 345 CURVE SMOOTH",
"246 518 OFFCURVE",
"290 558 OFFCURVE",
"436 558 CURVE SMOOTH",
"482 558 OFFCURVE",
"518 554 OFFCURVE",
"555 543 CURVE",
"535 560 LINE",
"555 442 LINE",
"698 442 LINE",
"698 664 LINE",
"625 686 OFFCURVE",
"526 702 OFFCURVE",
"421 702 CURVE SMOOTH"
);
}
);
};
guideLines = (
{
angle = 90;
position = "{728, 146}";
},
{
angle = 180;
position = "{24, 174}";
showMeasurement = 1;
},
{
angle = 163.229;
position = "{698, 664}";
}
);
layerId = "09D006DA-42BB-4CB0-B1B2-8BF668563379";
name = "Bold Jun 16 14, 09:53";
paths = (
{
closed = 1;
nodes = (
"145 702 OFFCURVE",
"24 578 OFFCURVE",
"24 344 CURVE SMOOTH",
"24 93 OFFCURVE",
"155 -22 OFFCURVE",
"408 -22 CURVE SMOOTH",
"498 -22 OFFCURVE",
"628 -4 OFFCURVE",
"698 18 CURVE",
"698 214 LINE",
"765 246 LINE",
"765 350 LINE",
"405 350 LINE",
"405 246 LINE",
"496 214 LINE",
"496 132 LINE",
"468 126 OFFCURVE",
"435 122 OFFCURVE",
"401 122 CURVE SMOOTH",
"295 122 OFFCURVE",
"246 162 OFFCURVE",
"246 345 CURVE SMOOTH",
"246 518 OFFCURVE",
"290 558 OFFCURVE",
"436 558 CURVE SMOOTH",
"482 558 OFFCURVE",
"518 554 OFFCURVE",
"555 543 CURVE",
"535 560 LINE",
"555 442 LINE",
"698 442 LINE",
"698 664 LINE",
"625 686 OFFCURVE",
"526 702 OFFCURVE",
"421 702 CURVE SMOOTH"
);
}
);
width = 782;
}
);
leftMetricsKey = O;
unicode = 0047;
},
{
color = 4;
glyphname = H;
lastChange = "2014-09-18 19:42:26 +0000";
layers = (
{
background = {
guideLines = (
{
angle = 90;
position = "{543, 83}";
},
{
angle = 90;
position = "{130, 592}";
},
{
angle = 90;
position = "{694, 593}";
}
);
paths = (
{
closed = 1;
nodes = (
"533 680 LINE",
"533 623 LINE",
"607 594 LINE",
"607 378 LINE",
"215 378 LINE",
"215 594 LINE",
"289 623 LINE",
"289 680 LINE",
"55 680 LINE",
"55 623 LINE",
"129 594 LINE",
"129 86 LINE",
"55 55 LINE",
"55 0 LINE",
"289 0 LINE",
"289 55 LINE",
"215 86 LINE",
"215 306 LINE",
"607 306 LINE",
"607 86 LINE",
"533 55 LINE",
"533 0 LINE",
"767 0 LINE",
"767 55 LINE",
"693 86 LINE",
"693 594 LINE",
"767 623 LINE",
"767 680 LINE"
);
}
);
};
layerId = "0225C979-6A3F-4323-834E-E3153ADD1AE8";
rightMetricsKey = "=|H";
name = Regular;
paths = (
{
closed = 1;
nodes = (
"533 680 LINE",
"533 623 LINE",
"607 594 LINE",
"607 378 LINE",
"215 378 LINE",
"215 594 LINE",
"289 623 LINE",
"289 680 LINE",
"55 680 LINE",
"55 623 LINE",
"129 594 LINE",
"129 86 LINE",
"55 55 LINE",
"55 0 LINE",
"289 0 LINE",
"289 55 LINE",
"215 86 LINE",
"215 306 LINE",
"607 306 LINE",
"607 86 LINE",
"533 55 LINE",
"533 0 LINE",
"767 0 LINE",
"767 55 LINE",
"693 86 LINE",
"693 594 LINE",
"767 623 LINE",
"767 680 LINE"
);
}
);
width = 822;
}
);
rightMetricsKey = "=|H";
unicode = 0048;
},
{
color = 4;
glyphname = I;
lastChange = "2014-09-18 19:42:26 +0000";
layers = (
{
background = {
paths = (
{
closed = 1;
nodes = (
"55 680 LINE",
"55 623 LINE",
"129 594 LINE",
"129 85 LINE",
"55 55 LINE",
"55 0 LINE",
"289 0 LINE",
"289 55 LINE",
"215 85 LINE",
"215 594 LINE",
"289 623 LINE",
"289 680 LINE"
);
}
);
};
layerId = "0225C979-6A3F-4323-834E-E3153ADD1AE8";
name = Regular;
paths = (
{
closed = 1;
nodes = (
"55 680 LINE",
"55 623 LINE",
"129 594 LINE",
"129 85 LINE",
"55 55 LINE",
"55 0 LINE",
"289 0 LINE",
"289 55 LINE",
"215 85 LINE",
"215 594 LINE",
"289 623 LINE",
"289 680 LINE"
);
}
);
width = 344;
}
);
leftMetricsKey = H;
rightMetricsKey = H;
unicode = 0049;
},
{
color = 3;
glyphname = J;
lastChange = "2014-09-18 19:42:26 +0000";
layers = (
{
background = {
paths = (
{
closed = 1;
nodes = (
"20 68 LINE",
"43 64 OFFCURVE",
"68 62 OFFCURVE",
"106 62 CURVE SMOOTH",
"190 62 OFFCURVE",
"230 103 OFFCURVE",
"230 224 CURVE SMOOTH",
"230 594 LINE",
"146 623 LINE",
"146 680 LINE",
"390 680 LINE",
"390 623 LINE",
"316 594 LINE",
"316 231 LINE SMOOTH",
"316 58 OFFCURVE",
"241 -12 OFFCURVE",
"106 -12 CURVE SMOOTH",
"73 -12 OFFCURVE",
"48 -10 OFFCURVE",
"20 -4 CURVE"
);
}
);
};
guideLines = (
{
angle = 90;
position = "{20, 225}";
}
);
layerId = "0225C979-6A3F-4323-834E-E3153ADD1AE8";
name = Regular;
paths = (
{
closed = 1;
nodes = (
"146 680 LINE",
"146 623 LINE",
"230 594 LINE",
"230 224 LINE SMOOTH",
"230 103 OFFCURVE",
"190 60 OFFCURVE",
"96 60 CURVE SMOOTH",
"68 60 OFFCURVE",
"43 62 OFFCURVE",
"20 66 CURVE",
"20 -4 LINE",
"48 -10 OFFCURVE",
"73 -12 OFFCURVE",
"106 -12 CURVE SMOOTH",
"241 -12 OFFCURVE",
"316 58 OFFCURVE",
"316 231 CURVE SMOOTH",
"316 594 LINE",
"390 623 LINE",
"390 680 LINE"
);
}
);
width = 440;
}
);
unicode = 004A;
},
{
color = 3;
glyphname = K;
lastChange = "2014-09-18 19:42:26 +0000";
layers = (
{
background = {
paths = (
{
closed = 1;
nodes = (
"506 680 LINE",
"506 623 LINE",
"565 598 LINE",
"191 304 LINE",
"191 216 LINE",
"685 603 LINE",
"641 578 LINE",
"742 623 LINE",
"742 680 LINE"
);
},
{
closed = 1;
nodes = (
"55 680 LINE",
"55 623 LINE",
"129 594 LINE",
"129 86 LINE",
"55 55 LINE",
"55 0 LINE",
"294 0 LINE",
"294 55 LINE",
"215 86 LINE",
"215 594 LINE",
"289 623 LINE",
"289 680 LINE"
);
},
{
closed = 1;
nodes = (
"350 361 LINE",
"579 86 LINE",
"515 56 LINE",
"515 1 LINE",
"752 1 LINE",
"752 56 LINE",
"688 86 LINE",
"416 413 LINE"
);
}
);
};
layerId = "0225C979-6A3F-4323-834E-E3153ADD1AE8";
name = Regular;
paths = (
{
closed = 1;
nodes = (
"506 680 LINE",
"506 623 LINE",
"565 598 LINE",
"191 304 LINE",
"191 216 LINE",
"685 603 LINE",
"641 578 LINE",
"742 623 LINE",
"742 680 LINE"
);
},
{
closed = 1;
nodes = (
"55 680 LINE",
"55 623 LINE",
"129 594 LINE",
"129 86 LINE",
"55 55 LINE",
"55 0 LINE",
"294 0 LINE",
"294 55 LINE",
"215 86 LINE",
"215 594 LINE",
"289 623 LINE",
"289 680 LINE"
);
},
{
closed = 1;
nodes = (
"688 86 LINE",
"413 411 LINE",
"348 358 LINE",
"578.304 85.4139 LINE",
"515 56 LINE",
"515 1 LINE",
"752 1 LINE",
"752 56 LINE"
);
}
);
width = 797;
}
);
leftMetricsKey = H;
unicode = 004B;
},
{
color = 3;
glyphname = L;
lastChange = "2014-09-18 19:42:26 +0000";
layers = (
{
background = {
paths = (
{
closed = 1;
nodes = (
"55 680 LINE",
"55 623 LINE",
"156 594 LINE",
"156 85 LINE",
"55 55 LINE",
"55 0 LINE",
"664 0 LINE",
"664 204 LINE",
"605 204 LINE",
"580 71 LINE",
"242 71 LINE",
"242 594 LINE",
"342 623 LINE",
"342 680 LINE"
);
}
);
};
guideLines = (
{
position = "{129, 594}";
},
{
position = "{55, 623}";
}
);
layerId = "0225C979-6A3F-4323-834E-E3153ADD1AE8";
name = Regular;
paths = (
{
closed = 1;
nodes = (
"55 680 LINE",
"55 623 LINE",
"129 594 LINE",
"129 85 LINE",
"55 55 LINE",
"55 0 LINE",
"640 0 LINE",
"640 187 LINE",
"581 187 LINE",
"555 72 LINE",
"215 72 LINE",
"215 594 LINE",
"289 623 LINE",
"289 680 LINE"
);
}
);
width = 660;
}
);
unicode = 004C;
},
{
color = 4;
glyphname = M;
lastChange = "2014-09-18 19:42:26 +0000";
layers = (
{
background = {
paths = (
{
closed = 1;
nodes = (
"676 680 LINE",
"464 181 LINE",
"478 181 LINE",
"266 680 LINE",
"55 680 LINE",
"55 623 LINE",
"129 594 LINE",
"129 85 LINE",
"55 55 LINE",
"55 0 LINE",
"270 0 LINE",
"270 55 LINE",
"201 85 LINE",
"201 630 LINE",
"194 630 LINE",
"429 85 LINE",
"496 85 LINE",
"730 630 LINE",
"723 630 LINE",
"723 85 LINE",
"654 55 LINE",
"654 0 LINE",
"883 0 LINE",
"883 55 LINE",
"809 85 LINE",
"809 594 LINE",
"883 623 LINE",
"883 680 LINE"
);
}
);
};
guideLines = (
{
angle = 90;
position = "{1592, 418}";
},
{
angle = 156.982;
position = "{686, 299}";
showMeasurement = 1;
},
{
angle = 23.0182;
position = "{471, 400}";
showMeasurement = 1;
}
);
layerId = "0225C979-6A3F-4323-834E-E3153ADD1AE8";
name = Regular;
paths = (
{
closed = 1;
nodes = (
"676 680 LINE",
"464 181 LINE",
"478 181 LINE",
"266 680 LINE",
"55 680 LINE",
"55 623 LINE",
"129 594 LINE",
"129 85 LINE",
"55 55 LINE",
"55 0 LINE",
"270 0 LINE",
"270 55 LINE",
"201 85 LINE",
"201 630 LINE",
"194 630 LINE",
"429 85 LINE",
"496 85 LINE",
"730 630 LINE",
"723 630 LINE",
"723 85 LINE",
"654 55 LINE",
"654 0 LINE",
"883 0 LINE",
"883 55 LINE",
"809 85 LINE",
"809 594 LINE",
"883 623 LINE",
"883 680 LINE"
);
}
);
width = 938;
}
);
leftMetricsKey = H;
rightMetricsKey = H;
unicode = 004D;
},
{
color = 4;
glyphname = N;
lastChange = "2014-09-18 19:42:26 +0000";
layers = (
{
background = {
guideLines = (
{
angle = 90;
position = "{546, 272}";
},
{
angle = 216.469;
position = "{546, 448}";
showMeasurement = 1;
},
{
position = "{678, 448}";
}
);
paths = (
{
closed = 1;
nodes = (
"536 680 LINE",
"536 623 LINE",
"615 594 LINE",
"615 81 LINE",
"631 84 LINE",
"231 680 LINE",
"55 680 LINE",
"55 623 LINE",
"129 594 LINE",
"129 85 LINE",
"55 55 LINE",
"55 0 LINE",
"281 0 LINE",
"281 55 LINE",
"202 85 LINE",
"202 599 LINE",
"187 595 LINE",
"587 0 LINE",
"689 0 LINE",
"689 594 LINE",
"763 623 LINE",
"763 680 LINE"
);
}
);
};
guideLines = (
{
angle = 33.8672;
position = "{448, 404}";
showMeasurement = 1;
},
{
angle = 90;
position = "{730, 594}";
},
{
angle = 90;
position = "{687, 594}";
}
);
layerId = "0225C979-6A3F-4323-834E-E3153ADD1AE8";
rightMetricsKey = "=H-10";
name = Regular;
paths = (
{
closed = 1;
nodes = (
"536 680 LINE",
"536 623 LINE",
"615 594 LINE",
"615 81 LINE",
"631 84 LINE",
"231 680 LINE",
"55 680 LINE",
"55 623 LINE",
"129 594 LINE",
"129 85 LINE",
"55 55 LINE",
"55 0 LINE",
"281 0 LINE",
"281 55 LINE",
"202 85 LINE",
"202 599 LINE",
"187 595 LINE",
"587 0 LINE",
"689 0 LINE",
"689 594 LINE",
"763 623 LINE",
"763 680 LINE"
);
}
);
width = 808;
}
);
leftMetricsKey = H;
rightMetricsKey = "=H-16";
unicode = 004E;
},
{
color = 4;
glyphname = O;
lastChange = "2014-09-18 19:42:26 +0000";
layers = (
{
background = {
paths = (
{
closed = 1;
nodes = (
"175 692 OFFCURVE",
"44 583 OFFCURVE",
"44 340 CURVE SMOOTH",
"44 97 OFFCURVE",
"175 -12 OFFCURVE",
"379 -12 CURVE SMOOTH",
"583 -12 OFFCURVE",
"714 97 OFFCURVE",
"714 340 CURVE SMOOTH",
"714 583 OFFCURVE",
"583 692 OFFCURVE",
"379 692 CURVE SMOOTH"
);
},
{
closed = 1;
nodes = (
"545 618 OFFCURVE",
"624 546 OFFCURVE",
"624 340 CURVE SMOOTH",
"624 134 OFFCURVE",
"545 62 OFFCURVE",
"379 62 CURVE SMOOTH",
"213 62 OFFCURVE",
"134 134 OFFCURVE",
"134 340 CURVE SMOOTH",
"134 546 OFFCURVE",
"213 618 OFFCURVE",
"379 618 CURVE SMOOTH"
);
}
);
};
layerId = "0225C979-6A3F-4323-834E-E3153ADD1AE8";
rightMetricsKey = "=|O";
name = Regular;
paths = (
{
closed = 1;
nodes = (
"175 692 OFFCURVE",
"44 583 OFFCURVE",
"44 340 CURVE SMOOTH",
"44 97 OFFCURVE",
"175 -12 OFFCURVE",
"379 -12 CURVE SMOOTH",
"583 -12 OFFCURVE",
"714 97 OFFCURVE",
"714 340 CURVE SMOOTH",
"714 583 OFFCURVE",
"583 692 OFFCURVE",
"379 692 CURVE SMOOTH"
);
},
{
closed = 1;
nodes = (
"545 618 OFFCURVE",
"624 546 OFFCURVE",
"624 340 CURVE SMOOTH",
"624 134 OFFCURVE",
"545 62 OFFCURVE",
"379 62 CURVE SMOOTH",
"213 62 OFFCURVE",
"134 134 OFFCURVE",
"134 340 CURVE SMOOTH",
"134 546 OFFCURVE",
"213 618 OFFCURVE",
"379 618 CURVE SMOOTH"
);
}
);
width = 758;
}
);
rightMetricsKey = "=|O";
unicode = 004F;
},
{
color = 3;
glyphname = P;
lastChange = "2014-09-18 19:42:26 +0000";
layers = (
{
background = {
guideLines = (
{
position = "{530, 475}";
}
);
paths = (
{
closed = 1;
nodes = (
"55 680 LINE",
"55 623 LINE",
"129 594 LINE",
"129 85 LINE",
"55 55 LINE",
"55 0 LINE",
"301 0 LINE",
"301 55 LINE",
"215 85 LINE",
"215 255 LINE",
"446 255 LINE SMOOTH",
"577 255 OFFCURVE",
"650 326 OFFCURVE",
"650 468 CURVE SMOOTH",
"650 609 OFFCURVE",
"577 680 OFFCURVE",
"446 680 CURVE SMOOTH"
);
},
{
closed = 1;
nodes = (
"518 609 OFFCURVE",
"561 583 OFFCURVE",
"561 468 CURVE SMOOTH",
"561 352 OFFCURVE",
"518 327 OFFCURVE",
"424 327 CURVE SMOOTH",
"215 327 LINE",
"215 609 LINE",
"424 609 LINE SMOOTH"
);
}
);
};
guideLines = (
{
position = "{195, 342}";
},
{
position = "{195, 270}";
}
);
layerId = "0225C979-6A3F-4323-834E-E3153ADD1AE8";
name = Regular;
paths = (
{
closed = 1;
nodes = (
"55 680 LINE",
"55 623 LINE",
"129 594 LINE",
"129 86 LINE",
"55 55 LINE",
"55 0 LINE",
"289 0 LINE",
"289 55 LINE",
"215 86 LINE",
"215 270 LINE",
"450 270 LINE SMOOTH",
"591 270 OFFCURVE",
"650 329 OFFCURVE",
"650 475 CURVE SMOOTH",
"650 621 OFFCURVE",
"591 680 OFFCURVE",
"450 680 CURVE SMOOTH"
);
},
{
closed = 1;
nodes = (
"530 608 OFFCURVE",
"560 579 OFFCURVE",
"560 475 CURVE SMOOTH",
"560 371 OFFCURVE",
"530 342 OFFCURVE",
"440 342 CURVE SMOOTH",
"215 342 LINE",
"215 608 LINE",
"440 608 LINE SMOOTH"
);
}
);
width = 680;
}
);
leftMetricsKey = H;
unicode = 0050;
},
{
color = 3;
glyphname = Thorn;
lastChange = "2014-09-18 19:42:26 +0000";
layers = (
{
background = {
paths = (
{
closed = 1;
nodes = (
"55 680 LINE",
"55 623 LINE",
"156 594 LINE",
"156 85 LINE",
"55 55 LINE",
"55 0 LINE",
"342 0 LINE",
"342 55 LINE",
"242 85 LINE",
"242 134 LINE",
"522 134 LINE SMOOTH",
"653 134 OFFCURVE",
"726 204 OFFCURVE",
"726 340 CURVE SMOOTH",
"726 475 OFFCURVE",
"653 546 OFFCURVE",
"522 546 CURVE SMOOTH",
"242 546 LINE",
"242 594 LINE",
"342 623 LINE",
"342 680 LINE"
);
},
{
closed = 1;
nodes = (
"594 475 OFFCURVE",
"637 450 OFFCURVE",
"637 340 CURVE SMOOTH",
"637 230 OFFCURVE",
"594 204 OFFCURVE",
"500 204 CURVE SMOOTH",
"242 204 LINE",
"242 475 LINE",
"500 475 LINE SMOOTH"
);
}
);
};
guideLines = (
{
angle = 90;
position = "{215, 473}";
}
);
layerId = "0225C979-6A3F-4323-834E-E3153ADD1AE8";
name = Regular;
paths = (
{
closed = 1;
nodes = (
"55 680 LINE",
"55 623 LINE",
"129 594 LINE",
"129 86 LINE",
"55 55 LINE",
"55 0 LINE",
"294 0 LINE",
"294 55 LINE",
"215 86 LINE",
"215 135 LINE",
"450 135 LINE SMOOTH",
"591 135 OFFCURVE",
"650 194 OFFCURVE",
"650 340 CURVE SMOOTH",
"650 486 OFFCURVE",
"591 545 OFFCURVE",
"450 545 CURVE SMOOTH",
"215 545 LINE",
"215 594 LINE",
"294 623 LINE",
"294 680 LINE"
);
},
{
closed = 1;
nodes = (
"530 473 OFFCURVE",
"560 444 OFFCURVE",
"560 340 CURVE SMOOTH",
"560 236 OFFCURVE",
"530 207 OFFCURVE",
"440 207 CURVE SMOOTH",
"215 207 LINE",
"215 473 LINE",
"440 473 LINE SMOOTH"
);
}
);
width = 662;
},
{
associatedMasterId = "0225C979-6A3F-4323-834E-E3153ADD1AE8";
background = {
paths = (
{
closed = 1;
nodes = (
"55 680 LINE",
"55 623 LINE",
"129 594 LINE",
"129 86 LINE",
"55 55 LINE",
"55 0 LINE",
"215 0 LINE",
"215 140 LINE",
"450 140 LINE SMOOTH",
"591 140 OFFCURVE",
"650 199 OFFCURVE",
"650 345 CURVE SMOOTH",
"650 491 OFFCURVE",
"591 550 OFFCURVE",
"450 550 CURVE SMOOTH",
"215 550 LINE",
"215 680 LINE"
);
},
{
closed = 1;
nodes = (
"530 478 OFFCURVE",
"560 449 OFFCURVE",
"560 345 CURVE SMOOTH",
"560 241 OFFCURVE",
"530 212 OFFCURVE",
"440 212 CURVE SMOOTH",
"215 212 LINE",
"215 478 LINE",
"440 478 LINE SMOOTH"
);
}
);
};
guideLines = (
{
angle = 90;
position = "{215, 473}";
}
);
layerId = "41FFFBE9-5F2D-48F2-A909-EDC41BF2F4CC";
name = "Regular [150]";
paths = (
{
closed = 1;
nodes = (
"55 680 LINE",
"55 623 LINE",
"129 594 LINE",
"129 86 LINE",
"55 55 LINE",
"55 0 LINE",
"215 0 LINE",
"215 140 LINE",
"450 140 LINE SMOOTH",
"591 140 OFFCURVE",
"650 199 OFFCURVE",
"650 345 CURVE SMOOTH",
"650 491 OFFCURVE",
"591 550 OFFCURVE",
"450 550 CURVE SMOOTH",
"215 550 LINE",
"215 680 LINE"
);
},
{
closed = 1;
nodes = (
"530 478 OFFCURVE",
"560 449 OFFCURVE",
"560 345 CURVE SMOOTH",
"560 241 OFFCURVE",
"530 212 OFFCURVE",
"440 212 CURVE SMOOTH",
"215 212 LINE",
"215 478 LINE",
"440 478 LINE SMOOTH"
);
}
);
width = 665;
},
{
associatedMasterId = "0225C979-6A3F-4323-834E-E3153ADD1AE8";
background = {
paths = (
{
closed = 1;
nodes = (
"30 680 LINE",
"30 567 LINE",
"112 535 LINE",
"112 146 LINE",
"30 114 LINE",
"30 0 LINE",
"386 0 LINE",
"386 104 LINE",
"314 136 LINE",
"314 168 LINE",
"544 168 LINE SMOOTH",
"666 168 OFFCURVE",
"725 208 OFFCURVE",
"725 338 CURVE SMOOTH",
"725 468 OFFCURVE",
"666 508 OFFCURVE",
"544 508 CURVE SMOOTH",
"314 508 LINE",
"314 535 LINE",
"386 567 LINE",
"386 680 LINE"
);
},
{
closed = 1;
nodes = (
"490 398 OFFCURVE",
"513 387 OFFCURVE",
"513 338 CURVE SMOOTH",
"513 289 OFFCURVE",
"490 278 OFFCURVE",
"430 278 CURVE SMOOTH",
"314 278 LINE",
"314 398 LINE",
"430 398 LINE SMOOTH"
);
}
);
};
guideLines = (
{
angle = 90;
position = "{314, 240}";
}
);
layerId = "CA43879A-E32C-40EB-9D2F-C88B349F6B89";
name = "Bold [150]";
paths = (
{
closed = 1;
nodes = (
"30 680 LINE",
"30 567 LINE",
"112 535 LINE",
"112 146 LINE",
"30 114 LINE",
"30 0 LINE",
"314 0 LINE",
"314 125 LINE",
"494 125 LINE SMOOTH",
"657 125 OFFCURVE",
"725 185 OFFCURVE",
"725 343 CURVE SMOOTH",
"725 504 OFFCURVE",
"656 565 OFFCURVE",
"494 565 CURVE SMOOTH",
"314 565 LINE",
"314 680 LINE"
);
},
{
closed = 1;
nodes = (
"490 427 OFFCURVE",
"513 412 OFFCURVE",
"513 341 CURVE SMOOTH",
"513 270 OFFCURVE",
"490 255 OFFCURVE",
"430 255 CURVE SMOOTH",
"314 255 LINE",
"314 427 LINE",
"430 427 LINE SMOOTH"
);
}
);
width = 747;
}
);
unicode = 00DE;
},
{
color = 3;
glyphname = Q;
lastChange = "2014-09-18 19:42:26 +0000";
layers = (
{
background = {
paths = (
{
closed = 1;
nodes = (
"344 2 LINE",
"344 -146 OFFCURVE",
"398 -189 OFFCURVE",
"669 -189 CURVE",
"669 -115 LINE",
"445 -115 OFFCURVE",
"414 -95 OFFCURVE",
"414 2 CURVE"
);
},
{
closed = 1;
nodes = (
"303 -2 LINE",
"303 -150 OFFCURVE",
"368 -224 OFFCURVE",
"631 -224 CURVE",
"631 -80 LINE",
"467 -80 OFFCURVE",
"455 -64 OFFCURVE",
"455 -2 CURVE"
);
}
);
};
components = (
{
name = O;
transform = "{1, 0, 0, 1, 0, 0}";
}
);
layerId = "0225C979-6A3F-4323-834E-E3153ADD1AE8";
name = Regular;
paths = (
{
closed = 1;
nodes = (
"344 0 LINE",
"344 -141 OFFCURVE",
"398 -189 OFFCURVE",
"669 -189 CURVE",
"669 -115 LINE",
"445 -115 OFFCURVE",
"414 -95 OFFCURVE",
"414 0 CURVE"
);
}
);
width = 758;
}
);
leftMetricsKey = O;
rightMetricsKey = O;
unicode = 0051;
},
{
color = 4;
glyphname = R;
lastChange = "2014-09-19 19:34:34 +0000";
layers = (
{
background = {
paths = (
{
closed = 1;
nodes = (
"55 680 LINE",
"55 623 LINE",
"129 594 LINE",
"129 86 LINE",
"55 55 LINE",
"55 0 LINE",
"289 0 LINE",
"289 55 LINE",
"215 86 LINE",
"215 282 LINE",
"462 282 LINE",
"591 293 OFFCURVE",
"652 354 OFFCURVE",
"652 487 CURVE SMOOTH",
"652 621 OFFCURVE",
"593 680 OFFCURVE",
"452 680 CURVE SMOOTH"
);
},
{
closed = 1;
nodes = (
"376 303 LINE",
"575 0 LINE",
"687 0 LINE",
"687 55 LINE",
"623 85 LINE",
"473 303 LINE"
);
},
{
closed = 1;
nodes = (
"532 608 OFFCURVE",
"562 579 OFFCURVE",
"562 481 CURVE SMOOTH",
"562 375 OFFCURVE",
"522 354 OFFCURVE",
"432 354 CURVE SMOOTH",
"215 354 LINE",
"215 608 LINE",
"442 608 LINE SMOOTH"
);
}
);
};
guideLines = (
{
angle = 124.013;
position = "{576, 0}";
},
{
angle = 34.0127;
position = "{632, 104}";
showMeasurement = 1;
},
{
angle = 124.013;
position = "{632, 0}";
},
{
angle = 34.0127;
position = "{533, 281}";
showMeasurement = 1;
},
{
angle = 90;
position = "{172, 142}";
}
);
layerId = "0225C979-6A3F-4323-834E-E3153ADD1AE8";
name = Regular;
paths = (
{
closed = 1;
nodes = (
"55 680 LINE",
"55 623 LINE",
"129 594 LINE",
"129 86 LINE",
"55 55 LINE",
"55 0 LINE",
"289 0 LINE",
"289 55 LINE",
"215 86 LINE",
"215 282 LINE",
"462 282 LINE",
"591 293 OFFCURVE",
"652 354 OFFCURVE",
"652 487 CURVE SMOOTH",
"652 621 OFFCURVE",
"593 680 OFFCURVE",
"452 680 CURVE SMOOTH"
);
},
{
closed = 1;
nodes = (
"376 303 LINE",
"575 0 LINE",
"687 0 LINE",
"687 55 LINE",
"623 85 LINE",
"473 303 LINE"
);
},
{
closed = 1;
nodes = (
"532 608 OFFCURVE",
"562 579 OFFCURVE",
"562 481 CURVE SMOOTH",
"562 375 OFFCURVE",
"522 354 OFFCURVE",
"432 354 CURVE SMOOTH",
"215 354 LINE",
"215 608 LINE",
"442 608 LINE SMOOTH"
);
}
);
width = 717;
},
{
associatedMasterId = "0225C979-6A3F-4323-834E-E3153ADD1AE8";
background = {
paths = (
{
closed = 1;
nodes = (
"589 0 OFFCURVE",
"640 63 OFFCURVE",
"640 166 CURVE SMOOTH",
"640 256 OFFCURVE",
"601 318 OFFCURVE",
"530 334 CURVE",
"600 340 OFFCURVE",
"650 390 OFFCURVE",
"650 504 CURVE SMOOTH",
"650 609 OFFCURVE",
"607 680 OFFCURVE",
"476 680 CURVE SMOOTH",
"55 680 LINE",
"55 625 LINE",
"129 594 LINE",
"129 86 LINE",
"55 57 LINE",
"55 0 LINE",
"461 0 LINE SMOOTH"
);
},
{
closed = 1;
nodes = (
"215 374 LINE",
"215 608 LINE",
"466 608 LINE SMOOTH",
"528 608 OFFCURVE",
"560 577 OFFCURVE",
"560 489 CURVE SMOOTH",
"560 410 OFFCURVE",
"534 374 OFFCURVE",
"452 374 CURVE SMOOTH"
);
},
{
closed = 1;
nodes = (
"215 72 LINE",
"215 302 LINE",
"440 302 LINE SMOOTH",
"521 302 OFFCURVE",
"550 273 OFFCURVE",
"550 184 CURVE SMOOTH",
"550 103 OFFCURVE",
"526 72 OFFCURVE",
"458 72 CURVE SMOOTH"
);
}
);
};
guideLines = (
{
angle = 124.013;
position = "{576, 0}";
},
{
angle = 90;
position = "{650, 176}";
},
{
angle = 34.0127;
position = "{632, 104}";
showMeasurement = 1;
},
{
angle = 124.013;
position = "{632, 0}";
},
{
angle = 34.0127;
position = "{533, 281}";
showMeasurement = 1;
},
{
angle = 90;
position = "{172, 142}";
}
);
layerId = "0B6BC22A-DC0B-4B68-8EBF-AE02E767F69D";
name = "Regular Jun 16 14, 09:43";
paths = (
{
closed = 1;
nodes = (
"55 680 LINE",
"55 623 LINE",
"129 594 LINE",
"129 86 LINE",
"55 55 LINE",
"55 0 LINE",
"289 0 LINE",
"289 55 LINE",
"215 86 LINE",
"215 282 LINE",
"462 282 LINE",
"591 293 OFFCURVE",
"651 354 OFFCURVE",
"651 487 CURVE SMOOTH",
"651 609 OFFCURVE",
"600 680 OFFCURVE",
"438 680 CURVE SMOOTH"
);
},
{
closed = 1;
nodes = (
"376 303 LINE",
"575 0 LINE",
"687 0 LINE",
"687 55 LINE",
"623 85 LINE",
"473 303 LINE"
);
},
{
closed = 1;
nodes = (
"520 608 OFFCURVE",
"561 585 OFFCURVE",
"561 481 CURVE SMOOTH",
"561 375 OFFCURVE",
"522 354 OFFCURVE",
"432 354 CURVE SMOOTH",
"215 354 LINE",
"215 608 LINE",
"432 608 LINE SMOOTH"
);
}
);
width = 722;
}
);
leftMetricsKey = H;
unicode = 0052;
},
{
color = 4;
glyphname = S;
lastChange = "2014-09-18 19:42:26 +0000";
layers = (
{
anchors = (
{
name = bottom;
position = "{316, 0}";
},
{
name = top;
position = "{314, 680}";
}
);
background = {
paths = (
{
closed = 1;
nodes = (
"123 692 OFFCURVE",
"47 644 OFFCURVE",
"47 500 CURVE SMOOTH",
"47 384 OFFCURVE",
"94 342 OFFCURVE",
"255 312 CURVE SMOOTH",
"461 273 OFFCURVE",
"480 274 OFFCURVE",
"480 174 CURVE SMOOTH",
"480 94 OFFCURVE",
"450 62 OFFCURVE",
"300 62 CURVE SMOOTH",
"244 62 OFFCURVE",
"186 67 OFFCURVE",
"124 81 CURVE",
"146 44 LINE",
"124 192 LINE",
"55 192 LINE",
"55 14 LINE",
"138 -5 OFFCURVE",
"217 -12 OFFCURVE",
"297 -12 CURVE SMOOTH",
"493 -12 OFFCURVE",
"568 36 OFFCURVE",
"568 188 CURVE SMOOTH",
"568 325 OFFCURVE",
"518 351 OFFCURVE",
"366 380 CURVE SMOOTH",
"163 419 OFFCURVE",
"135 419 OFFCURVE",
"135 515 CURVE SMOOTH",
"135 586 OFFCURVE",
"164 618 OFFCURVE",
"314 618 CURVE SMOOTH",
"370 618 OFFCURVE",
"428 613 OFFCURVE",
"490 599 CURVE",
"473 638 LINE",
"494 491 LINE",
"560 491 LINE",
"560 666 LINE",
"478 683 OFFCURVE",
"398 692 OFFCURVE",
"318 692 CURVE SMOOTH"
);
}
);
};
guideLines = (
{
angle = 90;
position = "{568, 188}";
},
{
angle = 90;
position = "{47, 500}";
},
{
angle = 79.4448;
position = "{294, 268}";
showMeasurement = 1;
}
);
layerId = "0225C979-6A3F-4323-834E-E3153ADD1AE8";
name = Regular;
paths = (
{
closed = 1;
nodes = (
"123 692 OFFCURVE",
"47 644 OFFCURVE",
"47 500 CURVE SMOOTH",
"47 384 OFFCURVE",
"94 342 OFFCURVE",
"255 312 CURVE SMOOTH",
"461 273 OFFCURVE",
"479 274 OFFCURVE",
"479 174 CURVE SMOOTH",
"479 94 OFFCURVE",
"449 62 OFFCURVE",
"300 62 CURVE SMOOTH",
"244 62 OFFCURVE",
"186 67 OFFCURVE",
"124 81 CURVE",
"146 44 LINE",
"124 192 LINE",
"55 192 LINE",
"55 14 LINE",
"138 -5 OFFCURVE",
"217 -12 OFFCURVE",
"297 -12 CURVE SMOOTH",
"492 -12 OFFCURVE",
"567 36 OFFCURVE",
"567 188 CURVE SMOOTH",
"567 325 OFFCURVE",
"518 351 OFFCURVE",
"366 380 CURVE SMOOTH",
"163 419 OFFCURVE",
"135 419 OFFCURVE",
"135 515 CURVE SMOOTH",
"135 586 OFFCURVE",
"164 618 OFFCURVE",
"313 618 CURVE SMOOTH",
"369 618 OFFCURVE",
"427 613 OFFCURVE",
"489 599 CURVE",
"472 638 LINE",
"493 491 LINE",
"559 491 LINE",
"559 666 LINE",
"477 683 OFFCURVE",
"397 692 OFFCURVE",
"317 692 CURVE SMOOTH"
);
}
);
width = 619;
},
{
anchors = (
{
name = bottom;
position = "{316, 0}";
},
{
name = top;
position = "{314, 680}";
}
);
associatedMasterId = "0225C979-6A3F-4323-834E-E3153ADD1AE8";
background = {
paths = (
{
closed = 1;
nodes = (
"116 692 OFFCURVE",
"-11 587 OFFCURVE",
"-11 340 CURVE SMOOTH",
"-11 99 OFFCURVE",
"110 -12 OFFCURVE",
"330 -12 CURVE SMOOTH",
"399 -12 OFFCURVE",
"489 -1 OFFCURVE",
"559 21 CURVE",
"559 254 LINE",
"623 283 LINE",
"623 340 LINE",
"410 340 LINE",
"410 283 LINE",
"474 254 LINE",
"474 79 LINE",
"429 67 OFFCURVE",
"379 62 OFFCURVE",
"326 62 CURVE SMOOTH",
"156 62 OFFCURVE",
"79 139 OFFCURVE",
"79 340 CURVE SMOOTH",
"79 547 OFFCURVE",
"153 618 OFFCURVE",
"333 618 CURVE SMOOTH",
"388 618 OFFCURVE",
"439 613 OFFCURVE",
"491 600 CURVE",
"472 642 LINE",
"494 491 LINE",
"559 491 LINE",
"559 668 LINE",
"485 684 OFFCURVE",
"414 692 OFFCURVE",
"334 692 CURVE SMOOTH"
);
}
);
};
layerId = "E27A097B-05CF-4FB4-8DA3-81AE8DDE20F7";
name = "Regular Jun 16 14, 10:18";
paths = (
{
closed = 1;
nodes = (
"123 692 OFFCURVE",
"47 644 OFFCURVE",
"47 500 CURVE SMOOTH",
"47 384 OFFCURVE",
"94 342 OFFCURVE",
"255 312 CURVE SMOOTH",
"461 273 OFFCURVE",
"480 274 OFFCURVE",
"480 174 CURVE SMOOTH",
"480 94 OFFCURVE",
"450 62 OFFCURVE",
"299 62 CURVE SMOOTH",
"243 62 OFFCURVE",
"185 67 OFFCURVE",
"123 81 CURVE",
"147 44 LINE",
"123 192 LINE",
"54 192 LINE",
"54 16 LINE",
"137 -1 OFFCURVE",
"208 -12 OFFCURVE",
"296 -12 CURVE SMOOTH",
"493 -12 OFFCURVE",
"568 36 OFFCURVE",
"568 188 CURVE SMOOTH",
"568 325 OFFCURVE",
"518 351 OFFCURVE",
"366 380 CURVE SMOOTH",
"163 419 OFFCURVE",
"135 419 OFFCURVE",
"135 515 CURVE SMOOTH",
"135 586 OFFCURVE",
"164 618 OFFCURVE",
"314 618 CURVE SMOOTH",
"369 618 OFFCURVE",
"427 613 OFFCURVE",
"489 599 CURVE",
"468 640 LINE",
"493 491 LINE",
"559 491 LINE",
"559 664 LINE",
"475 683 OFFCURVE",
"405 692 OFFCURVE",
"318 692 CURVE SMOOTH"
);
}
);
width = 620;
},
{
anchors = (
{
name = bottom;
position = "{349, 0}";
},
{
name = top;
position = "{458, 680}";
}
);
associatedMasterId = "0225C979-6A3F-4323-834E-E3153ADD1AE8";
background = {
paths = (
{
closed = 1;
nodes = (
"113 698 OFFCURVE",
"32 639 OFFCURVE",
"32 478 CURVE SMOOTH",
"32 320 OFFCURVE",
"150 280 OFFCURVE",
"299 254 CURVE SMOOTH",
"404 236 OFFCURVE",
"430 231 OFFCURVE",
"430 183 CURVE SMOOTH",
"430 140 OFFCURVE",
"411 122 OFFCURVE",
"316 122 CURVE SMOOTH",
"266 122 OFFCURVE",
"212 125 OFFCURVE",
"173 137 CURVE",
"205 92 LINE",
"182 220 LINE",
"40 220 LINE",
"40 6 LINE",
"116 -11 OFFCURVE",
"202 -18 OFFCURVE",
"292 -18 CURVE SMOOTH",
"560 -18 OFFCURVE",
"630 48 OFFCURVE",
"630 202 CURVE SMOOTH",
"630 330 OFFCURVE",
"576 392 OFFCURVE",
"393 426 CURVE SMOOTH",
"294 445 OFFCURVE",
"228 452 OFFCURVE",
"228 504 CURVE SMOOTH",
"228 542 OFFCURVE",
"241 560 OFFCURVE",
"346 560 CURVE SMOOTH",
"393 560 OFFCURVE",
"447 555 OFFCURVE",
"486 543 CURVE",
"459 592 LINE",
"482 464 LINE",
"620 464 LINE",
"620 672 LINE",
"549 688 OFFCURVE",
"465 698 OFFCURVE",
"370 698 CURVE SMOOTH"
);
}
);
};
guideLines = (
{
angle = 100.187;
position = "{485, 464}";
},
{
angle = 79.1359;
position = "{374, 491}";
showMeasurement = 1;
}
);
layerId = "0A02CC52-6928-4602-A758-DDA9EDC99F52";
name = "Bold Jun 16 14, 10:18";
paths = (
{
closed = 1;
nodes = (
"113 698 OFFCURVE",
"32 639 OFFCURVE",
"32 478 CURVE SMOOTH",
"32 320 OFFCURVE",
"150 280 OFFCURVE",
"299 254 CURVE SMOOTH",
"404 236 OFFCURVE",
"430 231 OFFCURVE",
"430 183 CURVE SMOOTH",
"430 140 OFFCURVE",
"411 122 OFFCURVE",
"316 122 CURVE SMOOTH",
"266 122 OFFCURVE",
"212 125 OFFCURVE",
"173 137 CURVE",
"205 92 LINE",
"182 220 LINE",
"40 220 LINE",
"40 6 LINE",
"116 -11 OFFCURVE",
"202 -18 OFFCURVE",
"292 -18 CURVE SMOOTH",
"560 -18 OFFCURVE",
"630 48 OFFCURVE",
"630 202 CURVE SMOOTH",
"630 330 OFFCURVE",
"576 392 OFFCURVE",
"393 426 CURVE SMOOTH",
"294 445 OFFCURVE",
"228 452 OFFCURVE",
"228 504 CURVE SMOOTH",
"228 542 OFFCURVE",
"241 560 OFFCURVE",
"346 560 CURVE SMOOTH",
"393 560 OFFCURVE",
"447 555 OFFCURVE",
"486 543 CURVE",
"459 592 LINE",
"482 464 LINE",
"620 464 LINE",
"620 672 LINE",
"549 688 OFFCURVE",
"465 698 OFFCURVE",
"370 698 CURVE SMOOTH"
);
}
);
width = 660;
}
);
unicode = 0053;
},
{
color = 3;
glyphname = Germandbls;
lastChange = "2014-09-18 19:42:26 +0000";
layers = (
{
background = {
guideLines = (
{
angle = 137.77;
position = "{581, 455}";
showMeasurement = 1;
}
);
paths = (
{
closed = 1;
nodes = (
"129 680 LINE",
"129 86 LINE",
"55 55 LINE",
"55 0 LINE",
"215 0 LINE",
"215 608 LINE",
"558 608 LINE",
"558 626 LINE",
"362 405 LINE",
"362 333 LINE",
"392 333 LINE SMOOTH",
"569 333 OFFCURVE",
"603 287 OFFCURVE",
"603 201 CURVE SMOOTH",
"603 110 OFFCURVE",
"565 65 OFFCURVE",
"449 62 CURVE SMOOTH",
"404 61 OFFCURVE",
"372 64 OFFCURVE",
"337 69 CURVE",
"337 -3 LINE",
"369 -9 OFFCURVE",
"410 -12 OFFCURVE",
"449 -12 CURVE SMOOTH",
"618 -12 OFFCURVE",
"693 71 OFFCURVE",
"693 201 CURVE SMOOTH",
"693 332 OFFCURVE",
"614 399 OFFCURVE",
"467 403 CURVE",
"658 618 LINE",
"658 680 LINE"
);
}
);
};
guideLines = (
{
angle = 90;
position = "{453, 416}";
}
);
layerId = "0225C979-6A3F-4323-834E-E3153ADD1AE8";
leftMetricsKey = "=H";
name = Regular;
paths = (
{
closed = 1;
nodes = (
"129 680 LINE",
"129 86 LINE",
"55 55 LINE",
"55 0 LINE",
"215 0 LINE",
"215 608 LINE",
"558 608 LINE",
"558 626 LINE",
"362 405 LINE",
"362 333 LINE",
"392 333 LINE SMOOTH",
"569 333 OFFCURVE",
"603 287 OFFCURVE",
"603 201 CURVE SMOOTH",
"603 110 OFFCURVE",
"565 65 OFFCURVE",
"449 62 CURVE SMOOTH",
"404 61 OFFCURVE",
"372 64 OFFCURVE",
"337 69 CURVE",
"337 -3 LINE",
"369 -9 OFFCURVE",
"410 -12 OFFCURVE",
"449 -12 CURVE SMOOTH",
"618 -12 OFFCURVE",
"693 71 OFFCURVE",
"693 201 CURVE SMOOTH",
"693 336 OFFCURVE",
"609 403 OFFCURVE",
"453 403 CURVE",
"453 387 LINE",
"658 618 LINE",
"658 680 LINE"
);
}
);
width = 725;
}
);
leftMetricsKey = H;
unicode = 1E9E;
},
{
color = 4;
glyphname = T;
lastChange = "2014-09-18 19:42:26 +0000";
layers = (
{
background = {
paths = (
{
closed = 1;
nodes = (
"40 680 LINE",
"40 488 LINE",
"95 488 LINE",
"124 608 LINE",
"295 608 LINE",
"295 85 LINE",
"211 55 LINE",
"211 0 LINE",
"465 0 LINE",
"465 55 LINE",
"381 85 LINE",
"381 608 LINE",
"552 608 LINE",
"581 488 LINE",
"636 488 LINE",
"636 680 LINE"
);
}
);
};
guideLines = (
{
angle = 90;
position = "{620, 594}";
},
{
angle = 90;
position = "{56, 594}";
}
);
layerId = "0225C979-6A3F-4323-834E-E3153ADD1AE8";
name = Regular;
paths = (
{
closed = 1;
nodes = (
"40 680 LINE",
"40 488 LINE",
"95 488 LINE",
"124 608 LINE",
"295 608 LINE",
"295 85 LINE",
"211 55 LINE",
"211 0 LINE",
"465 0 LINE",
"465 55 LINE",
"381 85 LINE",
"381 608 LINE",
"552 608 LINE",
"581 488 LINE",
"636 488 LINE",
"636 680 LINE"
);
}
);
width = 676;
}
);
unicode = 0054;
},
{
color = 4;
glyphname = U;
lastChange = "2014-09-18 19:42:26 +0000";
layers = (
{
anchors = (
{
name = ogonek;
position = "{468, 8}";
},
{
name = top;
position = "{423, 680}";
}
);
background = {
paths = (
{
closed = 1;
nodes = (
"521 680 LINE",
"521 623 LINE",
"602 594 LINE",
"602 260 LINE SMOOTH",
"602 99 OFFCURVE",
"537 59 OFFCURVE",
"411 59 CURVE SMOOTH",
"274 59 OFFCURVE",
"210 107 OFFCURVE",
"210 267 CURVE SMOOTH",
"210 594 LINE",
"284 623 LINE",
"284 680 LINE",
"50 680 LINE",
"50 623 LINE",
"124 594 LINE",
"124 260 LINE SMOOTH",
"124 57 OFFCURVE",
"231 -15 OFFCURVE",
"407 -15 CURVE SMOOTH",
"582 -15 OFFCURVE",
"674 57 OFFCURVE",
"674 267 CURVE SMOOTH",
"674 594 LINE",
"758 623 LINE",
"758 680 LINE"
);
}
);
};
layerId = "0225C979-6A3F-4323-834E-E3153ADD1AE8";
rightMetricsKey = "=|U-8";
name = Regular;
paths = (
{
closed = 1;
nodes = (
"521 680 LINE",
"521 623 LINE",
"602 594 LINE",
"602 260 LINE SMOOTH",
"602 99 OFFCURVE",
"537 59 OFFCURVE",
"411 59 CURVE SMOOTH",
"274 59 OFFCURVE",
"210 107 OFFCURVE",
"210 267 CURVE SMOOTH",
"210 594 LINE",
"284 623 LINE",
"284 680 LINE",
"50 680 LINE",
"50 623 LINE",
"124 594 LINE",
"124 260 LINE SMOOTH",
"124 57 OFFCURVE",
"231 -15 OFFCURVE",
"407 -15 CURVE SMOOTH",
"582 -15 OFFCURVE",
"674 57 OFFCURVE",
"674 267 CURVE SMOOTH",
"674 594 LINE",
"758 623 LINE",
"758 680 LINE"
);
}
);
width = 800;
}
);
leftMetricsKey = "=H-5";
rightMetricsKey = "=|U";
unicode = 0055;
},
{
color = 4;
glyphname = V;
lastChange = "2014-09-18 19:42:26 +0000";
layers = (
{
background = {
paths = (
{
closed = 1;
nodes = (
"431 0 LINE",
"657 594 LINE",
"726 623 LINE",
"726 680 LINE",
"507 680 LINE",
"507 623 LINE",
"581 594 LINE",
"370 30 LINE",
"400 30 LINE",
"190 594 LINE",
"264 623 LINE",
"264 680 LINE",
"29 680 LINE",
"29 623 LINE",
"98 594 LINE",
"324 0 LINE"
);
}
);
};
guideLines = (
{
angle = 158.629;
position = "{1572, 1140}";
showMeasurement = 1;
},
{
angle = 158.749;
position = "{515, 60}";
showMeasurement = 1;
},
{
angle = 21.2505;
position = "{255, 522}";
showMeasurement = 1;
},
{
angle = 201.038;
position = "{225, 50}";
showMeasurement = 1;
},
{
angle = 158.749;
position = "{528, 609}";
showMeasurement = 1;
}
);
layerId = "0225C979-6A3F-4323-834E-E3153ADD1AE8";
name = Regular;
paths = (
{
closed = 1;
nodes = (
"431 0 LINE",
"657 594 LINE",
"726 623 LINE",
"726 680 LINE",
"507 680 LINE",
"507 623 LINE",
"581 594 LINE",
"370 30 LINE",
"400 30 LINE",
"190 594 LINE",
"264 623 LINE",
"264 680 LINE",
"29 680 LINE",
"29 623 LINE",
"98 594 LINE",
"324 0 LINE"
);
}
);
width = 755;
}
);
unicode = 0056;
},
{
color = 3;
glyphname = W;
lastChange = "2014-09-18 19:42:26 +0000";
layers = (
{
background = {
paths = (
{
closed = 1;
nodes = (
"831 680 LINE",
"831 623 LINE",
"905 594 LINE",
"745 70 LINE",
"757 70 LINE",
"596 637 LINE",
"485 637 LINE",
"330 66 LINE",
"344 66 LINE",
"182 594 LINE",
"256 623 LINE",
"256 680 LINE",
"23 680 LINE",
"23 623 LINE",
"92 594 LINE",
"279 0 LINE",
"381 0 LINE",
"547 594 LINE",
"519 594 LINE",
"694 0 LINE",
"795 0 LINE",
"980 594 LINE",
"1049 623 LINE",
"1049 680 LINE"
);
}
);
};
guideLines = (
{
angle = 198.327;
position = "{174, 1177}";
},
{
position = "{758, 1416}";
},
{
angle = 105.852;
position = "{694, 0}";
}
);
layerId = "0225C979-6A3F-4323-834E-E3153ADD1AE8";
name = Regular;
paths = (
{
closed = 1;
nodes = (
"831 680 LINE",
"831 623 LINE",
"905 594 LINE",
"745 70 LINE",
"757 70 LINE",
"596 637 LINE",
"491 637 LINE",
"330 66 LINE",
"344 66 LINE",
"182 594 LINE",
"256 623 LINE",
"256 680 LINE",
"23 680 LINE",
"23 623 LINE",
"92 594 LINE",
"279 0 LINE",
"381 0 LINE",
"553 594 LINE",
"525 594 LINE",
"694 0 LINE",
"795 0 LINE",
"980 594 LINE",
"1049 623 LINE",
"1049 680 LINE"
);
}
);
width = 1073;
},
{
associatedMasterId = "0225C979-6A3F-4323-834E-E3153ADD1AE8";
background = {
paths = (
{
closed = 1;
nodes = (
"886 680 LINE",
"886 623 LINE",
"960 594 LINE",
"800 70 LINE",
"812 70 LINE",
"651 637 LINE",
"546 637 LINE",
"385 66 LINE",
"399 66 LINE",
"237 594 LINE",
"311 623 LINE",
"311 680 LINE",
"78 680 LINE",
"78 623 LINE",
"147 594 LINE",
"334 0 LINE",
"436 0 LINE",
"608 594 LINE",
"580 594 LINE",
"749 0 LINE",
"850 0 LINE",
"1035 594 LINE",
"1104 623 LINE",
"1104 680 LINE"
);
}
);
};
guideLines = (
{
position = "{391, 638}";
}
);
layerId = "16BE2038-F755-46A9-B78B-FCFC850878BB";
name = "Bold Jun 18 14, 11:31";
paths = (
{
closed = 1;
nodes = (
"836 680 LINE",
"836 567 LINE",
"923 535 LINE",
"774 41 LINE",
"879 37 LINE",
"703 664 LINE",
"492 664 LINE",
"314 38 LINE",
"417 38 LINE",
"275 535 LINE",
"347 567 LINE",
"347 680 LINE",
"-8 680 LINE",
"-8 567 LINE",
"64 534 LINE",
"225 0 LINE",
"465 0 LINE",
"623 555 LINE",
"534 555 LINE",
"690 0 LINE SMOOTH",
"924 0 LINE",
"1085 535 LINE",
"1157 565 LINE",
"1157 680 LINE"
);
}
);
width = 1162;
}
);
unicode = 0057;
},
{
color = 3;
glyphname = X;
lastChange = "2014-09-18 19:42:26 +0000";
layers = (
{
background = {
paths = (
{
closed = 1;
nodes = (
"32 680 LINE",
"32 623 LINE",
"101 594 LINE",
"550 85 LINE",
"476 55 LINE",
"476 0 LINE",
"730 0 LINE",
"730 55 LINE",
"661 85 LINE",
"212 594 LINE",
"286 623 LINE",
"286 680 LINE"
);
},
{
closed = 1;
nodes = (
"101 85 LINE",
"32 55 LINE",
"32 0 LINE",
"272 0 LINE",
"272 55 LINE",
"198 85 LINE",
"385 299 LINE",
"339 350 LINE"
);
},
{
closed = 1;
nodes = (
"661 595 LINE",
"730 625 LINE",
"730 680 LINE",
"492 680 LINE",
"492 625 LINE",
"566 595 LINE",
"379 381 LINE",
"423 330 LINE"
);
}
);
};
guideLines = (
{
angle = 41.2894;
position = "{231, 594}";
showMeasurement = 1;
},
{
angle = 138.662;
position = "{554, 595}";
showMeasurement = 1;
},
{
angle = 138.662;
position = "{487, 323}";
showMeasurement = 1;
}
);
layerId = "0225C979-6A3F-4323-834E-E3153ADD1AE8";
name = Regular;
paths = (
{
closed = 1;
nodes = (
"34 680 LINE",
"34 623 LINE",
"103 594 LINE",
"550 85 LINE",
"476 55 LINE",
"476 0 LINE",
"730 0 LINE",
"730 55 LINE",
"661 85 LINE",
"214 594 LINE",
"288 623 LINE",
"288 680 LINE"
);
},
{
closed = 1;
nodes = (
"101 85 LINE",
"32 55 LINE",
"32 0 LINE",
"272 0 LINE",
"272 55 LINE",
"198 85 LINE",
"383 300 LINE",
"337 351 LINE"
);
},
{
closed = 1;
nodes = (
"490 680 LINE",
"490 625 LINE",
"564 595 LINE",
"381 380 LINE",
"425 329 LINE",
"659 595 LINE",
"728 625 LINE",
"728 680 LINE"
);
}
);
width = 762;
}
);
unicode = 0058;
},
{
color = 3;
glyphname = Y;
lastChange = "2014-09-18 19:42:26 +0000";
layers = (
{
background = {
paths = (
{
closed = 1;
nodes = (
"493 680 LINE",
"493 623 LINE",
"567 594 LINE",
"375 325 LINE",
"388 325 LINE",
"194 594 LINE",
"268 623 LINE",
"268 680 LINE",
"22 680 LINE",
"22 623 LINE",
"91 594 LINE",
"330 267 LINE",
"330 85 LINE",
"239 55 LINE",
"239 0 LINE",
"507 0 LINE",
"507 55 LINE",
"416 85 LINE",
"416 267 LINE",
"655 594 LINE",
"724 623 LINE",
"724 680 LINE"
);
}
);
};
layerId = "0225C979-6A3F-4323-834E-E3153ADD1AE8";
name = Regular;
paths = (
{
closed = 1;
nodes = (
"438 680 LINE",
"438 623 LINE",
"507 594 LINE",
"340 325 LINE",
"355 325 LINE",
"186 594 LINE",
"256 623 LINE",
"256 680 LINE",
"22 680 LINE",
"22 623 LINE",
"87 594 LINE",
"297 267 LINE",
"297 85 LINE",
"215 55 LINE",
"215 0 LINE",
"464 0 LINE",
"464 55 LINE",
"383 85 LINE",
"383 267 LINE",
"593 594 LINE",
"657 623 LINE",
"657 680 LINE"
);
}
);
width = 670;
},
{
associatedMasterId = "0225C979-6A3F-4323-834E-E3153ADD1AE8";
background = {
paths = (
{
closed = 1;
nodes = (
"493 680 LINE",
"493 623 LINE",
"567 594 LINE",
"375 325 LINE",
"388 325 LINE",
"194 594 LINE",
"268 623 LINE",
"268 680 LINE",
"22 680 LINE",
"22 623 LINE",
"91 594 LINE",
"330 267 LINE",
"330 85 LINE",
"239 55 LINE",
"239 0 LINE",
"507 0 LINE",
"507 55 LINE",
"416 85 LINE",
"416 267 LINE",
"655 594 LINE",
"724 623 LINE",
"724 680 LINE"
);
}
);
};
layerId = "CE15006A-D4F5-486B-81D6-AE80AD0E4520";
name = "Regular N";
paths = (
{
closed = 1;
nodes = (
"430 680 LINE",
"430 623 LINE",
"499 594 LINE",
"335 325 LINE",
"351 325 LINE",
"185 594 LINE",
"254 623 LINE",
"254 680 LINE",
"22 680 LINE",
"22 623 LINE",
"86 594 LINE",
"292 267 LINE",
"292 85 LINE",
"212 55 LINE",
"212 0 LINE",
"458 0 LINE",
"458 55 LINE",
"378 85 LINE",
"378 267 LINE",
"584 594 LINE",
"648 623 LINE",
"648 680 LINE"
);
}
);
width = 670;
},
{
associatedMasterId = "0225C979-6A3F-4323-834E-E3153ADD1AE8";
background = {
paths = (
{
closed = 1;
nodes = (
"493 680 LINE",
"493 623 LINE",
"567 594 LINE",
"375 325 LINE",
"388 325 LINE",
"194 594 LINE",
"268 623 LINE",
"268 680 LINE",
"22 680 LINE",
"22 623 LINE",
"91 594 LINE",
"330 267 LINE",
"330 85 LINE",
"239 55 LINE",
"239 0 LINE",
"507 0 LINE",
"507 55 LINE",
"416 85 LINE",
"416 267 LINE",
"655 594 LINE",
"724 623 LINE",
"724 680 LINE"
);
}
);
};
layerId = "4CD24A30-BA12-464D-86DA-DFEDF5F81447";
name = "Regular W";
paths = (
{
closed = 1;
nodes = (
"493 680 LINE",
"493 623 LINE",
"567 594 LINE",
"375 325 LINE",
"388 325 LINE",
"194 594 LINE",
"268 623 LINE",
"268 680 LINE",
"22 680 LINE",
"22 623 LINE",
"91 594 LINE",
"330 267 LINE",
"330 85 LINE",
"239 55 LINE",
"239 0 LINE",
"507 0 LINE",
"507 55 LINE",
"416 85 LINE",
"416 267 LINE",
"655 594 LINE",
"724 623 LINE",
"724 680 LINE"
);
}
);
width = 746;
},
{
associatedMasterId = "0225C979-6A3F-4323-834E-E3153ADD1AE8";
background = {
paths = (
{
closed = 1;
nodes = (
"521 680 LINE",
"521 577 LINE",
"593 545 LINE",
"459 392 LINE",
"487 392 LINE",
"352 545 LINE",
"424 577 LINE",
"424 680 LINE",
"20 680 LINE",
"20 567 LINE",
"97 535 LINE",
"333 284 LINE",
"333 146 LINE",
"236 114 LINE",
"236 0 LINE",
"642 0 LINE",
"642 114 LINE",
"545 146 LINE",
"545 284 LINE",
"781 535 LINE",
"858 567 LINE",
"858 680 LINE"
);
}
);
};
guideLines = (
{
angle = 37.1787;
position = "{346, 545}";
showMeasurement = 1;
}
);
layerId = "AA7CB378-48AC-45E4-B9DA-D089473555B9";
name = "Bold N";
paths = (
{
closed = 1;
nodes = (
"468 680 LINE",
"468 577 LINE",
"538 545 LINE",
"422 392 LINE",
"451 392 LINE",
"334 545 LINE",
"404 577 LINE",
"404 680 LINE",
"20 680 LINE",
"20 567 LINE",
"92 535 LINE",
"298 284 LINE",
"298 146 LINE",
"211 114 LINE",
"211 0 LINE",
"597 0 LINE",
"597 114 LINE",
"510 146 LINE",
"510 284 LINE",
"716 535 LINE",
"788 567 LINE",
"788 680 LINE"
);
}
);
width = 808;
},
{
associatedMasterId = "0225C979-6A3F-4323-834E-E3153ADD1AE8";
background = {
paths = (
{
closed = 1;
nodes = (
"516 680 LINE",
"516 577 LINE",
"588 545 LINE",
"454 392 LINE",
"482 392 LINE",
"347 545 LINE",
"419 577 LINE",
"419 680 LINE",
"15 680 LINE",
"15 567 LINE",
"92 535 LINE",
"328 284 LINE",
"328 146 LINE",
"231 114 LINE",
"231 0 LINE",
"637 0 LINE",
"637 114 LINE",
"540 146 LINE",
"540 284 LINE",
"776 535 LINE",
"853 567 LINE",
"853 680 LINE"
);
}
);
};
layerId = "41F188F8-83B3-4C87-90E8-D8F6FAFD73E1";
name = "Bold Jun W";
paths = (
{
closed = 1;
nodes = (
"516 680 LINE",
"516 577 LINE",
"588 545 LINE",
"454 392 LINE",
"482 392 LINE",
"347 545 LINE",
"419 577 LINE",
"419 680 LINE",
"15 680 LINE",
"15 567 LINE",
"92 535 LINE",
"328 284 LINE",
"328 146 LINE",
"231 114 LINE",
"231 0 LINE",
"637 0 LINE",
"637 114 LINE",
"540 146 LINE",
"540 284 LINE",
"776 535 LINE",
"853 567 LINE",
"853 680 LINE"
);
}
);
width = 868;
}
);
unicode = 0059;
},
{
color = 3;
glyphname = Z;
lastChange = "2014-09-18 19:42:26 +0000";
layers = (
{
background = {
guideLines = (
{
angle = -43;
position = "{172, 1027}";
showMeasurement = 1;
}
);
paths = (
{
closed = 1;
nodes = (
"60 680 LINE",
"60 503 LINE",
"119 503 LINE",
"145 608 LINE",
"523 608 LINE",
"55 85 LINE",
"55 0 LINE",
"629 0 LINE",
"629 187 LINE",
"570 187 LINE",
"544 72 LINE",
"152 72 LINE",
"619 594 LINE",
"619 680 LINE"
);
}
);
};
layerId = "0225C979-6A3F-4323-834E-E3153ADD1AE8";
name = Regular;
paths = (
{
closed = 1;
nodes = (
"60 680 LINE",
"60 503 LINE",
"119 503 LINE",
"145 608 LINE",
"562 608 LINE",
"549 638 LINE",
"55 85 LINE",
"55 0 LINE",
"629 0 LINE",
"629 187 LINE",
"570 187 LINE",
"544 72 LINE",
"113 72 LINE",
"126 43 LINE",
"619 595 LINE",
"619 680 LINE"
);
}
);
width = 674;
}
);
unicode = 005A;
},
{
color = 0;
export = 0;
glyphname = AE;
lastChange = "2014-09-18 19:42:26 +0000";
layers = (
{
background = {
paths = (
{
closed = 1;
nodes = (
"468 680 LINE",
"66 85 LINE",
"-15 55 LINE",
"-15 0 LINE",
"204 0 LINE",
"204 55 LINE",
"149 82 LINE",
"509 609 LINE",
"523 609 LINE",
"523 85 LINE",
"427 55 LINE",
"427 0 LINE",
"1077 0 LINE",
"1077 204 LINE",
"1018 204 LINE",
"991 71 LINE",
"609 71 LINE",
"609 312 LINE",
"813 312 LINE",
"828 234 LINE",
"884 234 LINE",
"884 460 LINE",
"828 460 LINE",
"813 383 LINE",
"609 383 LINE",
"609 609 LINE",
"991 609 LINE",
"1018 497 LINE",
"1077 497 LINE",
"1077 680 LINE"
);
},
{
closed = 1;
nodes = (
"226 297 LINE",
"226 226 LINE",
"560 226 LINE",
"560 297 LINE"
);
}
);
};
layerId = "0225C979-6A3F-4323-834E-E3153ADD1AE8";
name = Regular;
paths = (
{
closed = 1;
nodes = (
"468 680 LINE",
"66 85 LINE",
"-15 55 LINE",
"-15 0 LINE",
"204 0 LINE",
"204 55 LINE",
"149 82 LINE",
"509 609 LINE",
"523 609 LINE",
"523 85 LINE",
"427 55 LINE",
"427 0 LINE",
"1077 0 LINE",
"1077 204 LINE",
"1018 204 LINE",
"991 71 LINE",
"609 71 LINE",
"609 312 LINE",
"813 312 LINE",
"828 234 LINE",
"884 234 LINE",
"884 460 LINE",
"828 460 LINE",
"813 383 LINE",
"609 383 LINE",
"609 609 LINE",
"991 609 LINE",
"1018 497 LINE",
"1077 497 LINE",
"1077 680 LINE"
);
},
{
closed = 1;
nodes = (
"226 297 LINE",
"226 226 LINE",
"560 226 LINE",
"560 297 LINE"
);
}
);
width = 1162;
}
);
rightMetricsKey = E;
unicode = 00C6;
},
{
color = 0;
export = 0;
glyphname = OE;
lastChange = "2014-09-18 19:42:26 +0000";
layers = (
{
background = {
paths = (
{
closed = 1;
nodes = (
"202 694 OFFCURVE",
"69 580 OFFCURVE",
"69 342 CURVE SMOOTH",
"69 100 OFFCURVE",
"202 -15 OFFCURVE",
"431 -15 CURVE SMOOTH",
"490 -15 OFFCURVE",
"546 -8 OFFCURVE",
"580 0 CURVE",
"1200 0 LINE",
"1200 204 LINE",
"1141 204 LINE",
"1115 71 LINE",
"724 71 LINE",
"724 312 LINE",
"937 312 LINE",
"952 234 LINE",
"1012 234 LINE",
"1012 460 LINE",
"952 460 LINE",
"937 383 LINE",
"724 383 LINE",
"724 609 LINE",
"1115 609 LINE",
"1141 497 LINE",
"1200 497 LINE",
"1200 680 LINE",
"580 680 LINE",
"546 686 OFFCURVE",
"490 694 OFFCURVE",
"431 694 CURVE SMOOTH"
);
},
{
closed = 1;
nodes = (
"494 620 OFFCURVE",
"568 613 OFFCURVE",
"639 590 CURVE",
"639 89 LINE",
"568 67 OFFCURVE",
"494 59 OFFCURVE",
"423 59 CURVE SMOOTH",
"258 63 OFFCURVE",
"158 144 OFFCURVE",
"158 342 CURVE SMOOTH",
"158 536 OFFCURVE",
"258 620 OFFCURVE",
"423 620 CURVE SMOOTH"
);
}
);
};
layerId = "0225C979-6A3F-4323-834E-E3153ADD1AE8";
name = Regular;
paths = (
{
closed = 1;
nodes = (
"202 694 OFFCURVE",
"69 580 OFFCURVE",
"69 342 CURVE SMOOTH",
"69 100 OFFCURVE",
"202 -15 OFFCURVE",
"431 -15 CURVE SMOOTH",
"490 -15 OFFCURVE",
"546 -8 OFFCURVE",
"580 0 CURVE",
"1200 0 LINE",
"1200 204 LINE",
"1141 204 LINE",
"1115 71 LINE",
"724 71 LINE",
"724 312 LINE",
"937 312 LINE",
"952 234 LINE",
"1012 234 LINE",
"1012 460 LINE",
"952 460 LINE",
"937 383 LINE",
"724 383 LINE",
"724 609 LINE",
"1115 609 LINE",
"1141 497 LINE",
"1200 497 LINE",
"1200 680 LINE",
"580 680 LINE",
"546 686 OFFCURVE",
"490 694 OFFCURVE",
"431 694 CURVE SMOOTH"
);
},
{
closed = 1;
nodes = (
"494 620 OFFCURVE",
"568 613 OFFCURVE",
"639 590 CURVE",
"639 89 LINE",
"568 67 OFFCURVE",
"494 59 OFFCURVE",
"423 59 CURVE SMOOTH",
"258 63 OFFCURVE",
"158 144 OFFCURVE",
"158 342 CURVE SMOOTH",
"158 536 OFFCURVE",
"258 620 OFFCURVE",
"423 620 CURVE SMOOTH"
);
}
);
width = 1293;
}
);
leftMetricsKey = O;
rightMetricsKey = E;
unicode = 0152;
},
{
color = 3;
glyphname = a;
lastChange = "2014-09-18 19:42:26 +0000";
layers = (
{
anchors = (
{
name = ogonek;
position = "{518, 10}";
},
{
name = top;
position = "{299, 509}";
}
);
background = {
hints = (
{
place = "{0.000000, 0.000000}";
}
);
paths = (
{
closed = 1;
nodes = (
"266 516 OFFCURVE",
"198 497 OFFCURVE",
"119 455 CURVE",
"140 446 LINE",
"104 502 LINE",
"-27 502 LINE",
"-27 445 LINE",
"61 417 LINE",
"61 85 LINE",
"-27 55 LINE",
"-27 0 LINE",
"233 0 LINE",
"233 55 LINE",
"145 85 LINE",
"145 402 LINE",
"215 427 OFFCURVE",
"260 443 OFFCURVE",
"311 443 CURVE SMOOTH",
"382 443 OFFCURVE",
"423 412 OFFCURVE",
"423 331 CURVE SMOOTH",
"423 0 LINE",
"595 0 LINE",
"595 55 LINE",
"507 85 LINE",
"507 320 LINE SMOOTH",
"507 462 OFFCURVE",
"464 516 OFFCURVE",
"338 516 CURVE SMOOTH"
);
}
);
};
layerId = "0225C979-6A3F-4323-834E-E3153ADD1AE8";
name = Regular;
paths = (
{
closed = 1;
nodes = (
"211 516 OFFCURVE",
"140 506 OFFCURVE",
"75 492 CURVE",
"75 420 LINE",
"143 435 OFFCURVE",
"211 444 OFFCURVE",
"285 444 CURVE SMOOTH",
"397 444 OFFCURVE",
"423 413 OFFCURVE",
"423 324 CURVE SMOOTH",
"423 285 LINE",
"397 299 OFFCURVE",
"348 314 OFFCURVE",
"279 314 CURVE SMOOTH",
"117 314 OFFCURVE",
"47 264 OFFCURVE",
"47 147 CURVE SMOOTH",
"47 35 OFFCURVE",
"110 -10 OFFCURVE",
"235 -10 CURVE SMOOTH",
"322 -10 OFFCURVE",
"387 21 OFFCURVE",
"446 90 CURVE",
"423 90 LINE",
"456 0 LINE",
"575 0 LINE",
"575 55 LINE",
"507 85 LINE",
"507 342 LINE SMOOTH",
"507 457 OFFCURVE",
"481 516 OFFCURVE",
"287 516 CURVE SMOOTH"
);
},
{
closed = 1;
nodes = (
"328 244 OFFCURVE",
"381 240 OFFCURVE",
"423 228 CURVE",
"423 128 LINE",
"375 88 OFFCURVE",
"315 62 OFFCURVE",
"249 62 CURVE SMOOTH",
"160 62 OFFCURVE",
"135 90 OFFCURVE",
"135 153 CURVE SMOOTH",
"135 212 OFFCURVE",
"167 244 OFFCURVE",
"288 244 CURVE SMOOTH"
);
}
);
width = 610;
}
);
rightMetricsKey = n;
unicode = 0061;
},
{
color = 4;
glyphname = b;
lastChange = "2014-09-18 19:42:26 +0000";
layers = (
{
background = {
paths = (
{
closed = 1;
nodes = (
"36 710 LINE",
"36 653 LINE",
"104 625 LINE",
"104 0 LINE",
"155 0 LINE",
"188 90 LINE",
"165 90 LINE",
"224 21 OFFCURVE",
"289 -10 OFFCURVE",
"372 -10 CURVE SMOOTH",
"510 -10 OFFCURVE",
"579 47 OFFCURVE",
"579 249 CURVE SMOOTH",
"579 446 OFFCURVE",
"497 516 OFFCURVE",
"371 516 CURVE SMOOTH",
"308 516 OFFCURVE",
"249 499 OFFCURVE",
"178 455 CURVE",
"188 451 LINE",
"188 710 LINE"
);
},
{
closed = 1;
nodes = (
"449 443 OFFCURVE",
"491 374 OFFCURVE",
"491 253 CURVE SMOOTH",
"491 90 OFFCURVE",
"447 63 OFFCURVE",
"359 63 CURVE SMOOTH",
"297 63 OFFCURVE",
"236 89 OFFCURVE",
"188 128 CURVE",
"188 402 LINE",
"258 427 OFFCURVE",
"298 443 OFFCURVE",
"356 443 CURVE SMOOTH"
);
}
);
};
layerId = "0225C979-6A3F-4323-834E-E3153ADD1AE8";
leftMetricsKey = "=h-10";
rightMetricsKey = "=o+4";
name = Regular;
paths = (
{
closed = 1;
nodes = (
"36 710 LINE",
"36 653 LINE",
"104 625 LINE",
"104 0 LINE",
"155 0 LINE",
"188 90 LINE",
"165 90 LINE",
"224 21 OFFCURVE",
"289 -10 OFFCURVE",
"380 -10 CURVE SMOOTH",
"510 -10 OFFCURVE",
"579 47 OFFCURVE",
"579 249 CURVE SMOOTH",
"579 446 OFFCURVE",
"497 516 OFFCURVE",
"371 516 CURVE SMOOTH",
"308 516 OFFCURVE",
"249 499 OFFCURVE",
"178 455 CURVE",
"188 451 LINE",
"188 710 LINE"
);
},
{
closed = 1;
nodes = (
"454 443 OFFCURVE",
"491 374 OFFCURVE",
"491 241 CURVE SMOOTH",
"491 101 OFFCURVE",
"450 63 OFFCURVE",
"363 63 CURVE SMOOTH",
"297 63 OFFCURVE",
"241 86 OFFCURVE",
"188 128 CURVE",
"188 402 LINE",
"252 425 OFFCURVE",
"299 443 OFFCURVE",
"351 443 CURVE SMOOTH"
);
}
);
width = 624;
}
);
leftMetricsKey = "=H-10";
rightMetricsKey = "=o+4";
unicode = 0062;
},
{
color = 3;
glyphname = c;
lastChange = "2014-10-01 18:15:53 +0000";
layers = (
{
anchors = (
{
name = bottom;
position = "{291, 0}";
},
{
name = top;
position = "{287, 474}";
}
);
background = {
paths = (
{
closed = 1;
nodes = (
"142 516 OFFCURVE",
"41 442 OFFCURVE",
"41 250 CURVE SMOOTH",
"41 46 OFFCURVE",
"149 -14 OFFCURVE",
"310 -14 CURVE SMOOTH",
"365 -14 OFFCURVE",
"425 -5 OFFCURVE",
"470 13 CURVE",
"470 83 LINE",
"415 64 OFFCURVE",
"370 58 OFFCURVE",
"314 58 CURVE SMOOTH",
"186 58 OFFCURVE",
"130 92 OFFCURVE",
"130 253 CURVE SMOOTH",
"130 400 OFFCURVE",
"165 447 OFFCURVE",
"340 447 CURVE",
"384 347 LINE",
"452 347 OFFCURVE",
"480 378 OFFCURVE",
"480 428 CURVE SMOOTH",
"480 487 OFFCURVE",
"443 516 OFFCURVE",
"329 516 CURVE SMOOTH"
);
}
);
};
guideLines = (
{
angle = -66.2505;
position = "{340, 447}";
},
{
angle = 90;
position = "{480, 428}";
},
{
angle = 90;
position = "{505, 251}";
}
);
layerId = "0225C979-6A3F-4323-834E-E3153ADD1AE8";
name = Regular;
paths = (
{
closed = 1;
nodes = (
"142 516 OFFCURVE",
"41 442 OFFCURVE",
"41 250 CURVE SMOOTH",
"41 46 OFFCURVE",
"149 -14 OFFCURVE",
"310 -14 CURVE SMOOTH",
"365 -14 OFFCURVE",
"427 -5 OFFCURVE",
"472 13 CURVE",
"472 83 LINE",
"417 64 OFFCURVE",
"370 58 OFFCURVE",
"314 58 CURVE SMOOTH",
"186 58 OFFCURVE",
"130 92 OFFCURVE",
"130 253 CURVE SMOOTH",
"130 400 OFFCURVE",
"165 447 OFFCURVE",
"340 447 CURVE",
"384 347 LINE",
"452 347 OFFCURVE",
"480 378 OFFCURVE",
"480 428 CURVE SMOOTH",
"480 487 OFFCURVE",
"443 516 OFFCURVE",
"329 516 CURVE SMOOTH"
);
}
);
width = 520;
}
);
leftMetricsKey = o;
unicode = 0063;
},
{
color = 4;
glyphname = d;
lastChange = "2014-09-18 19:42:26 +0000";
layers = (
{
background = {
paths = (
{
closed = 1;
nodes = (
"369 710 LINE",
"369 653 LINE",
"437 625 LINE",
"437 451 LINE",
"447 455 LINE",
"376 499 OFFCURVE",
"317 516 OFFCURVE",
"254 516 CURVE SMOOTH",
"128 516 OFFCURVE",
"46 446 OFFCURVE",
"46 249 CURVE SMOOTH",
"46 47 OFFCURVE",
"115 -10 OFFCURVE",
"245 -10 CURVE SMOOTH",
"336 -10 OFFCURVE",
"401 21 OFFCURVE",
"460 90 CURVE",
"437 90 LINE",
"470 0 LINE",
"589 0 LINE",
"589 55 LINE",
"521 85 LINE",
"521 710 LINE"
);
},
{
closed = 1;
nodes = (
"327 443 OFFCURVE",
"367 427 OFFCURVE",
"437 402 CURVE",
"437 128 LINE",
"389 88 OFFCURVE",
"328 62 OFFCURVE",
"266 62 CURVE SMOOTH",
"178 62 OFFCURVE",
"134 89 OFFCURVE",
"134 253 CURVE SMOOTH",
"134 374 OFFCURVE",
"176 443 OFFCURVE",
"269 443 CURVE SMOOTH"
);
}
);
};
layerId = "0225C979-6A3F-4323-834E-E3153ADD1AE8";
leftMetricsKey = "=o+5";
name = Regular;
paths = (
{
closed = 1;
nodes = (
"369 710 LINE",
"369 653 LINE",
"437 625 LINE",
"437 451 LINE",
"447 455 LINE",
"376 499 OFFCURVE",
"317 516 OFFCURVE",
"254 516 CURVE SMOOTH",
"128 516 OFFCURVE",
"46 446 OFFCURVE",
"46 249 CURVE SMOOTH",
"46 47 OFFCURVE",
"115 -10 OFFCURVE",
"245 -10 CURVE SMOOTH",
"336 -10 OFFCURVE",
"401 21 OFFCURVE",
"460 90 CURVE",
"437 90 LINE",
"470 0 LINE",
"589 0 LINE",
"589 55 LINE",
"521 85 LINE",
"521 710 LINE"
);
},
{
closed = 1;
nodes = (
"326 443 OFFCURVE",
"373 425 OFFCURVE",
"437 402 CURVE",
"437 128 LINE",
"384 86 OFFCURVE",
"328 63 OFFCURVE",
"262 63 CURVE SMOOTH",
"175 63 OFFCURVE",
"134 101 OFFCURVE",
"134 241 CURVE SMOOTH",
"134 374 OFFCURVE",
"171 443 OFFCURVE",
"274 443 CURVE SMOOTH"
);
}
);
width = 624;
}
);
leftMetricsKey = "=o+4";
rightMetricsKey = n;
unicode = 0064;
},
{
color = 3;
glyphname = eth;
lastChange = "2014-09-18 19:42:26 +0000";
layers = (
{
background = {
paths = (
{
closed = 1;
nodes = (
"170 656 LINE",
"360 646 OFFCURVE",
"461 518 OFFCURVE",
"461 288 CURVE SMOOTH",
"461 107 OFFCURVE",
"412 58 OFFCURVE",
"293 58 CURVE SMOOTH",
"183 58 OFFCURVE",
"129 100 OFFCURVE",
"129 229 CURVE SMOOTH",
"129 341 OFFCURVE",
"188 390 OFFCURVE",
"276 390 CURVE SMOOTH",
"326 390 OFFCURVE",
"390 374 OFFCURVE",
"471 335 CURVE",
"471 397 LINE",
"401 438 OFFCURVE",
"323 462 OFFCURVE",
"251 462 CURVE SMOOTH",
"131 462 OFFCURVE",
"41 390 OFFCURVE",
"41 229 CURVE SMOOTH",
"41 48 OFFCURVE",
"156 -14 OFFCURVE",
"290 -14 CURVE SMOOTH",
"442 -14 OFFCURVE",
"549 67 OFFCURVE",
"549 287 CURVE SMOOTH",
"549 511 OFFCURVE",
"434 708 OFFCURVE",
"170 718 CURVE"
);
},
{
closed = 1;
nodes = (
"170 539 LINE",
"188 492 LINE",
"531 618 LINE",
"508 679 LINE"
);
}
);
};
guideLines = (
{
angle = 90;
position = "{549, 287}";
},
{
angle = 90;
position = "{505, 287}";
},
{
angle = 90;
position = "{212, 234}";
},
{
angle = 20.6589;
position = "{531, 618}";
},
{
angle = 90;
position = "{170, 234}";
},
{
angle = 20.6589;
position = "{508, 679}";
}
);
layerId = "0225C979-6A3F-4323-834E-E3153ADD1AE8";
rightMetricsKey = "=o";
name = Regular;
paths = (
{
closed = 1;
nodes = (
"170 656 LINE",
"357 645 OFFCURVE",
"461 527 OFFCURVE",
"461 281 CURVE SMOOTH",
"461 107 OFFCURVE",
"409 58 OFFCURVE",
"294 58 CURVE SMOOTH",
"187 58 OFFCURVE",
"129 100 OFFCURVE",
"129 221 CURVE SMOOTH",
"129 344 OFFCURVE",
"188 390 OFFCURVE",
"275 390 CURVE SMOOTH",
"326 390 OFFCURVE",
"390 374 OFFCURVE",
"471 335 CURVE",
"471 397 LINE",
"401 438 OFFCURVE",
"322 462 OFFCURVE",
"252 462 CURVE SMOOTH",
"131 462 OFFCURVE",
"41 390 OFFCURVE",
"41 229 CURVE SMOOTH",
"41 48 OFFCURVE",
"156 -14 OFFCURVE",
"289 -14 CURVE SMOOTH",
"442 -14 OFFCURVE",
"549 67 OFFCURVE",
"549 285 CURVE SMOOTH",
"549 513 OFFCURVE",
"433 708 OFFCURVE",
"170 718 CURVE"
);
},
{
closed = 1;
nodes = (
"170 541 LINE",
"188 494 LINE",
"531 616 LINE",
"508 677 LINE"
);
}
);
width = 590;
}
);
leftMetricsKey = d;
rightMetricsKey = o;
unicode = 00F0;
},
{
color = 4;
glyphname = e;
lastChange = "2014-09-18 19:42:26 +0000";
layers = (
{
background = {
guideLines = (
{
angle = 90;
position = "{300, 450}";
}
);
paths = (
{
closed = 1;
nodes = (
"147 516 OFFCURVE",
"41 439 OFFCURVE",
"41 251 CURVE SMOOTH",
"41 48 OFFCURVE",
"145 -14 OFFCURVE",
"312 -14 CURVE SMOOTH",
"381 -14 OFFCURVE",
"455 -3 OFFCURVE",
"502 11 CURVE",
"502 86 LINE",
"429 66 OFFCURVE",
"373 58 OFFCURVE",
"314 58 CURVE SMOOTH",
"182 58 OFFCURVE",
"139 90 OFFCURVE",
"130 224 CURVE",
"521 224 LINE",
"521 264 LINE SMOOTH",
"521 439 OFFCURVE",
"420 516 OFFCURVE",
"292 516 CURVE SMOOTH"
);
},
{
closed = 1;
nodes = (
"380 444 OFFCURVE",
"424 392 OFFCURVE",
"432 295 CURVE",
"130 295 LINE",
"139 400 OFFCURVE",
"183 444 OFFCURVE",
"287 444 CURVE SMOOTH"
);
}
);
};
guideLines = (
{
angle = 90;
position = "{300, 450}";
},
{
angle = 90;
position = "{512, 563}";
},
{
angle = 245.545;
position = "{216, 119}";
showMeasurement = 1;
}
);
layerId = "0225C979-6A3F-4323-834E-E3153ADD1AE8";
rightMetricsKey = "=|-10";
name = Regular;
paths = (
{
closed = 1;
nodes = (
"147 516 OFFCURVE",
"41 439 OFFCURVE",
"41 251 CURVE SMOOTH",
"41 48 OFFCURVE",
"145 -14 OFFCURVE",
"312 -14 CURVE SMOOTH",
"377 -14 OFFCURVE",
"452 -4 OFFCURVE",
"502 9 CURVE",
"502 81 LINE",
"429 63 OFFCURVE",
"373 58 OFFCURVE",
"314 58 CURVE SMOOTH",
"188 58 OFFCURVE",
"139 91 OFFCURVE",
"129 224 CURVE",
"521 224 LINE",
"521 264 LINE SMOOTH",
"521 439 OFFCURVE",
"420 516 OFFCURVE",
"292 516 CURVE SMOOTH"
);
},
{
closed = 1;
nodes = (
"380 444 OFFCURVE",
"424 392 OFFCURVE",
"432 295 CURVE",
"130 295 LINE",
"139 400 OFFCURVE",
"183 444 OFFCURVE",
"287 444 CURVE SMOOTH"
);
}
);
width = 552;
}
);
leftMetricsKey = o;
rightMetricsKey = "=|-10";
unicode = 0065;
},
{
color = 3;
glyphname = f;
lastChange = "2014-09-18 19:42:26 +0000";
layers = (
{
background = {
paths = (
{
closed = 1;
nodes = (
"177 718 OFFCURVE",
"114 664 OFFCURVE",
"114 550 CURVE SMOOTH",
"114 502 LINE",
"46 488 LINE",
"46 430 LINE",
"114 430 LINE",
"114 85 LINE",
"46 55 LINE",
"46 0 LINE",
"281 0 LINE",
"281 55 LINE",
"198 85 LINE",
"198 430 LINE",
"291 430 LINE",
"291 502 LINE",
"198 502 LINE",
"196 544 OFFCURVE",
"196 561 OFFCURVE",
"196 576 CURVE SMOOTH",
"196 625 OFFCURVE",
"220 656 OFFCURVE",
"275 656 CURVE",
"302 597 LINE",
"354 597 OFFCURVE",
"373 616 OFFCURVE",
"373 651 CURVE SMOOTH",
"373 697 OFFCURVE",
"348 718 OFFCURVE",
"286 718 CURVE SMOOTH"
);
}
);
};
guideLines = (
{
angle = 90;
position = "{291, 502}";
},
{
angle = 90;
position = "{266, 502}";
}
);
layerId = "0225C979-6A3F-4323-834E-E3153ADD1AE8";
name = Regular;
paths = (
{
closed = 1;
nodes = (
"177 718 OFFCURVE",
"114 664 OFFCURVE",
"114 550 CURVE SMOOTH",
"114 502 LINE",
"46 488 LINE",
"46 432 LINE",
"114 432 LINE",
"114 85 LINE",
"46 55 LINE",
"46 0 LINE",
"291 0 LINE",
"291 55 LINE",
"198 85 LINE",
"198 432 LINE",
"291 432 LINE",
"291 502 LINE",
"198 502 LINE",
"196 544 OFFCURVE",
"196 561 OFFCURVE",
"196 576 CURVE SMOOTH",
"196 625 OFFCURVE",
"220 656 OFFCURVE",
"275 656 CURVE",
"302 597 LINE",
"354 597 OFFCURVE",
"373 616 OFFCURVE",
"373 651 CURVE SMOOTH",
"373 697 OFFCURVE",
"348 718 OFFCURVE",
"286 718 CURVE SMOOTH"
);
}
);
width = 338;
},
{
associatedMasterId = "0225C979-6A3F-4323-834E-E3153ADD1AE8";
background = {
paths = (
{
closed = 1;
nodes = (
"187 718 OFFCURVE",
"128 664 OFFCURVE",
"125 550 CURVE SMOOTH",
"124 510 LINE",
"36 496 LINE",
"36 438 LINE",
"124 438 LINE",
"124 85 LINE",
"36 55 LINE",
"36 0 LINE",
"301 0 LINE",
"301 55 LINE",
"208 85 LINE",
"208 438 LINE",
"301 438 LINE",
"301 510 LINE",
"208 510 LINE",
"206 544 OFFCURVE",
"206 561 OFFCURVE",
"206 576 CURVE SMOOTH",
"206 625 OFFCURVE",
"230 656 OFFCURVE",
"285 656 CURVE",
"316 587 LINE",
"371 587 OFFCURVE",
"393 610 OFFCURVE",
"393 651 CURVE SMOOTH",
"393 697 OFFCURVE",
"365 718 OFFCURVE",
"296 718 CURVE SMOOTH"
);
}
);
};
guideLines = (
{
angle = 90;
position = "{296, 0}";
},
{
angle = 90;
position = "{36, 0}";
}
);
layerId = "6A3ECE54-E721-4831-A46F-57CC2E2CFF16";
name = "Regular Apr 25 14, 15:38";
paths = (
{
closed = 1;
nodes = (
"180 718 OFFCURVE",
"126 670 OFFCURVE",
"125 560 CURVE SMOOTH",
"124 510 LINE",
"36 496 LINE",
"36 438 LINE",
"124 438 LINE",
"124 85 LINE",
"36 55 LINE",
"36 0 LINE",
"306 0 LINE",
"306 55 LINE",
"208 85 LINE",
"208 438 LINE",
"306 438 LINE",
"306 510 LINE",
"208 510 LINE",
"208 565 LINE SMOOTH",
"208 625 OFFCURVE",
"226 645 OFFCURVE",
"281 645 CURVE SMOOTH",
"292 645 OFFCURVE",
"306 644 OFFCURVE",
"316 643 CURVE",
"316 716 LINE",
"301 718 OFFCURVE",
"291 718 OFFCURVE",
"280 718 CURVE SMOOTH"
);
}
);
width = 342;
},
{
associatedMasterId = "0225C979-6A3F-4323-834E-E3153ADD1AE8";
background = {
paths = (
{
closed = 1;
nodes = (
"195 718 OFFCURVE",
"104 663 OFFCURVE",
"104 516 CURVE",
"104 516 LINE",
"30 486 LINE",
"30 372 LINE",
"104 372 LINE",
"104 142 LINE",
"30 112 LINE",
"30 0 LINE",
"390 0 LINE",
"390 112 LINE",
"306 142 LINE",
"306 372 LINE",
"391 372 LINE",
"391 516 LINE",
"301 516 LINE",
"293 538 OFFCURVE",
"291 556 OFFCURVE",
"291 569 CURVE SMOOTH",
"291 599 OFFCURVE",
"307 618 OFFCURVE",
"341 618 CURVE",
"366 567 LINE",
"433 567 OFFCURVE",
"458 590 OFFCURVE",
"458 640 CURVE SMOOTH",
"458 693 OFFCURVE",
"427 718 OFFCURVE",
"320 718 CURVE SMOOTH"
);
}
);
};
guideLines = (
{
angle = 90;
position = "{104, 184}";
}
);
layerId = "468CB87C-B886-4C17-B3B4-E6DC9C7B3C4A";
leftMetricsKey = "=n";
name = "Bold Apr 25 14, 15:38";
paths = (
{
closed = 1;
nodes = (
"195 718 OFFCURVE",
"104 682 OFFCURVE",
"104 516 CURVE",
"104 516 LINE",
"30 486 LINE",
"30 372 LINE",
"104 372 LINE",
"104 142 LINE",
"30 112 LINE",
"30 0 LINE",
"390 0 LINE",
"390 112 LINE",
"306 142 LINE",
"306 372 LINE",
"390 372 LINE",
"390 516 LINE",
"301 516 LINE",
"301 537 LINE SMOOTH",
"301 571 OFFCURVE",
"317 588 OFFCURVE",
"363 588 CURVE SMOOTH",
"373 588 OFFCURVE",
"383 587 OFFCURVE",
"390 586 CURVE",
"390 714 LINE",
"370 717 OFFCURVE",
"354 718 OFFCURVE",
"335 718 CURVE SMOOTH"
);
}
);
width = 420;
}
);
leftMetricsKey = n;
unicode = 0066;
},
{
color = 4;
glyphname = g;
lastChange = "2014-09-18 19:42:26 +0000";
layers = (
{
background = {
guideLines = (
{
angle = 90;
position = "{596, 507}";
}
);
paths = (
{
closed = 1;
nodes = (
"126 516 OFFCURVE",
"42 457 OFFCURVE",
"42 334 CURVE SMOOTH",
"42 206 OFFCURVE",
"127 152 OFFCURVE",
"265 152 CURVE SMOOTH",
"405 152 OFFCURVE",
"488 203 OFFCURVE",
"488 334 CURVE SMOOTH",
"488 452 OFFCURVE",
"404 516 OFFCURVE",
"265 516 CURVE SMOOTH"
);
},
{
closed = 1;
nodes = (
"380 449 OFFCURVE",
"405 412 OFFCURVE",
"405 334 CURVE SMOOTH",
"405 256 OFFCURVE",
"380 219 OFFCURVE",
"265 219 CURVE SMOOTH",
"150 219 OFFCURVE",
"125 255 OFFCURVE",
"125 334 CURVE SMOOTH",
"125 411 OFFCURVE",
"150 449 OFFCURVE",
"265 449 CURVE SMOOTH"
);
},
{
closed = 1;
nodes = (
"536 445 LINE",
"536 502 LINE",
"359 502 LINE",
"448 417 LINE"
);
},
{
closed = 1;
nodes = (
"60 197 OFFCURVE",
"32 167 OFFCURVE",
"32 118 CURVE SMOOTH",
"32 68 OFFCURVE",
"56 32 OFFCURVE",
"109 18 CURVE",
"109 28 LINE",
"46 16 OFFCURVE",
"17 -24 OFFCURVE",
"17 -79 CURVE SMOOTH",
"17 -138 OFFCURVE",
"38 -174 OFFCURVE",
"84 -198 CURVE SMOOTH",
"132 -223 OFFCURVE",
"207 -234 OFFCURVE",
"289 -234 CURVE SMOOTH",
"452 -234 OFFCURVE",
"536 -179 OFFCURVE",
"536 -54 CURVE SMOOTH",
"536 35 OFFCURVE",
"496 78 OFFCURVE",
"391 78 CURVE SMOOTH",
"199 78 LINE SMOOTH",
"128 78 OFFCURVE",
"105 95 OFFCURVE",
"105 132 CURVE SMOOTH",
"105 157 OFFCURVE",
"118 181 OFFCURVE",
"152 197 CURVE",
"112 215 LINE"
);
},
{
closed = 1;
nodes = (
"435 0 OFFCURVE",
"453 -18 OFFCURVE",
"453 -64 CURVE SMOOTH",
"453 -140 OFFCURVE",
"423 -167 OFFCURVE",
"299 -167 CURVE SMOOTH",
"140 -167 OFFCURVE",
"95 -136 OFFCURVE",
"95 -71 CURVE SMOOTH",
"95 -23 OFFCURVE",
"119 0 OFFCURVE",
"164 0 CURVE SMOOTH",
"384 0 LINE SMOOTH"
);
}
);
};
guideLines = (
{
angle = 90;
position = "{453, -64}";
},
{
position = "{381, 764}";
},
{
angle = 90;
position = "{42, -142}";
},
{
angle = 270;
position = "{536, 667}";
},
{
angle = 90;
position = "{494, -58}";
}
);
layerId = "0225C979-6A3F-4323-834E-E3153ADD1AE8";
name = Regular;
paths = (
{
closed = 1;
nodes = (
"126 516 OFFCURVE",
"42 457 OFFCURVE",
"42 336 CURVE SMOOTH",
"42 210 OFFCURVE",
"127 156 OFFCURVE",
"261 156 CURVE SMOOTH",
"397 156 OFFCURVE",
"481 207 OFFCURVE",
"481 336 CURVE SMOOTH",
"481 452 OFFCURVE",
"396 516 OFFCURVE",
"261 516 CURVE SMOOTH"
);
},
{
closed = 1;
nodes = (
"374 451 OFFCURVE",
"397 414 OFFCURVE",
"397 336 CURVE SMOOTH",
"397 258 OFFCURVE",
"374 221 OFFCURVE",
"261 221 CURVE SMOOTH",
"148 221 OFFCURVE",
"125 257 OFFCURVE",
"125 336 CURVE SMOOTH",
"125 413 OFFCURVE",
"148 451 OFFCURVE",
"261 451 CURVE SMOOTH"
);
},
{
closed = 1;
nodes = (
"536 445 LINE",
"536 502 LINE",
"329 502 LINE",
"448 417 LINE"
);
},
{
closed = 1;
nodes = (
"56 199 OFFCURVE",
"32 165 OFFCURVE",
"32 118 CURVE SMOOTH",
"32 68 OFFCURVE",
"56 32 OFFCURVE",
"109 18 CURVE",
"109 28 LINE",
"46 16 OFFCURVE",
"17 -24 OFFCURVE",
"17 -79 CURVE SMOOTH",
"17 -138 OFFCURVE",
"38 -174 OFFCURVE",
"84 -198 CURVE SMOOTH",
"132 -223 OFFCURVE",
"207 -234 OFFCURVE",
"281 -234 CURVE SMOOTH",
"452 -234 OFFCURVE",
"536 -179 OFFCURVE",
"536 -62 CURVE SMOOTH",
"536 35 OFFCURVE",
"496 78 OFFCURVE",
"383 78 CURVE SMOOTH",
"199 78 LINE SMOOTH",
"128 78 OFFCURVE",
"105 95 OFFCURVE",
"105 132 CURVE SMOOTH",
"105 157 OFFCURVE",
"118 181 OFFCURVE",
"152 197 CURVE",
"108 217 LINE"
);
},
{
closed = 1;
nodes = (
"435 0 OFFCURVE",
"453 -18 OFFCURVE",
"453 -72 CURVE SMOOTH",
"453 -140 OFFCURVE",
"423 -167 OFFCURVE",
"299 -167 CURVE SMOOTH",
"140 -167 OFFCURVE",
"95 -136 OFFCURVE",
"95 -71 CURVE SMOOTH",
"95 -23 OFFCURVE",
"119 0 OFFCURVE",
"164 0 CURVE SMOOTH",
"376 0 LINE SMOOTH"
);
}
);
width = 556;
}
);
unicode = 0067;
},
{
color = 4;
glyphname = h;
lastChange = "2014-09-18 19:42:26 +0000";
layers = (
{
background = {
hints = (
{
place = "{0.000000, 0.000000}";
}
);
paths = (
{
closed = 1;
nodes = (
"45 710 LINE",
"45 653 LINE",
"114 625 LINE",
"114 85 LINE",
"46 55 LINE",
"46 0 LINE",
"266 0 LINE",
"266 55 LINE",
"198 85 LINE",
"198 402 LINE",
"268 427 OFFCURVE",
"313 443 OFFCURVE",
"364 443 CURVE SMOOTH",
"435 443 OFFCURVE",
"476 412 OFFCURVE",
"476 331 CURVE SMOOTH",
"476 0 LINE",
"628 0 LINE",
"628 55 LINE",
"560 85 LINE",
"560 320 LINE SMOOTH",
"560 462 OFFCURVE",
"518 516 OFFCURVE",
"387 516 CURVE SMOOTH",
"319 516 OFFCURVE",
"252 498 OFFCURVE",
"171 452 CURVE",
"198 452 LINE",
"198 710 LINE"
);
}
);
};
layerId = "0225C979-6A3F-4323-834E-E3153ADD1AE8";
name = Regular;
paths = (
{
closed = 1;
nodes = (
"46 710 LINE",
"46 653 LINE",
"114 625 LINE",
"114 85 LINE",
"46 55 LINE",
"46 0 LINE",
"266 0 LINE",
"266 55 LINE",
"198 85 LINE",
"198 402 LINE",
"268 427 OFFCURVE",
"313 443 OFFCURVE",
"364 443 CURVE SMOOTH",
"435 443 OFFCURVE",
"476 412 OFFCURVE",
"476 331 CURVE SMOOTH",
"476 0 LINE",
"628 0 LINE",
"628 55 LINE",
"560 85 LINE",
"560 320 LINE SMOOTH",
"560 462 OFFCURVE",
"517 516 OFFCURVE",
"391 516 CURVE SMOOTH",
"319 516 OFFCURVE",
"252 498 OFFCURVE",
"171 452 CURVE",
"198 452 LINE",
"198 710 LINE"
);
}
);
width = 663;
}
);
leftMetricsKey = n;
rightMetricsKey = n;
unicode = 0068;
},
{
color = 4;
glyphname = i;
lastChange = "2014-09-18 19:42:26 +0000";
layers = (
{
background = {
paths = (
{
closed = 1;
nodes = (
"45 710 LINE",
"45 653 LINE",
"114 625 LINE",
"114 85 LINE",
"46 55 LINE",
"46 0 LINE",
"266 0 LINE",
"266 55 LINE",
"198 85 LINE",
"198 402 LINE",
"268 427 OFFCURVE",
"313 443 OFFCURVE",
"364 443 CURVE SMOOTH",
"435 443 OFFCURVE",
"476 412 OFFCURVE",
"476 331 CURVE SMOOTH",
"476 0 LINE",
"628 0 LINE",
"628 55 LINE",
"560 85 LINE",
"560 320 LINE SMOOTH",
"560 462 OFFCURVE",
"517 516 OFFCURVE",
"391 516 CURVE SMOOTH",
"319 516 OFFCURVE",
"252 498 OFFCURVE",
"171 452 CURVE",
"198 452 LINE",
"198 710 LINE"
);
}
);
};
guideLines = (
{
angle = 90;
position = "{114, 425}";
},
{
angle = 90;
position = "{198, 510}";
}
);
layerId = "0225C979-6A3F-4323-834E-E3153ADD1AE8";
rightMetricsKey = "=n";
name = Regular;
paths = (
{
closed = 1;
nodes = (
"46 502 LINE",
"46 445 LINE",
"114 417 LINE",
"114 85 LINE",
"46 55 LINE",
"46 0 LINE",
"266 0 LINE",
"266 55 LINE",
"198 85 LINE",
"198 502 LINE"
);
},
{
closed = 1;
nodes = (
"109 717 OFFCURVE",
"84 694 OFFCURVE",
"84 652 CURVE SMOOTH",
"84 610 OFFCURVE",
"109 587 OFFCURVE",
"148 587 CURVE SMOOTH",
"187 587 OFFCURVE",
"212 610 OFFCURVE",
"212 652 CURVE SMOOTH",
"212 694 OFFCURVE",
"187 717 OFFCURVE",
"148 717 CURVE SMOOTH"
);
}
);
width = 301;
}
);
leftMetricsKey = n;
rightMetricsKey = n;
unicode = 0069;
},
{
color = 3;
glyphname = j;
lastChange = "2014-09-18 19:42:26 +0000";
layers = (
{
background = {
paths = (
{
closed = 1;
nodes = (
"46 502 LINE",
"46 445 LINE",
"114 417 LINE",
"114 -7 LINE SMOOTH",
"116 -46 OFFCURVE",
"116 -64 OFFCURVE",
"116 -91 CURVE SMOOTH",
"116 -139 OFFCURVE",
"90 -161 OFFCURVE",
"47 -161 CURVE",
"20 -102 LINE",
"-33 -102 OFFCURVE",
"-51 -121 OFFCURVE",
"-51 -158 CURVE SMOOTH",
"-51 -202 OFFCURVE",
"-25 -223 OFFCURVE",
"38 -223 CURVE SMOOTH",
"133 -223 OFFCURVE",
"198 -174 OFFCURVE",
"198 -55 CURVE SMOOTH",
"198 502 LINE"
);
},
{
closed = 1;
nodes = (
"109 717 OFFCURVE",
"84 694 OFFCURVE",
"84 652 CURVE SMOOTH",
"84 610 OFFCURVE",
"109 587 OFFCURVE",
"148 587 CURVE SMOOTH",
"187 587 OFFCURVE",
"212 610 OFFCURVE",
"212 652 CURVE SMOOTH",
"212 694 OFFCURVE",
"187 717 OFFCURVE",
"148 717 CURVE SMOOTH"
);
}
);
};
layerId = "0225C979-6A3F-4323-834E-E3153ADD1AE8";
name = Regular;
paths = (
{
closed = 1;
nodes = (
"46 502 LINE",
"46 445 LINE",
"114 417 LINE",
"114 -8 LINE SMOOTH",
"114 -42 OFFCURVE",
"114 -58 OFFCURVE",
"114 -82 CURVE SMOOTH",
"114 -130 OFFCURVE",
"91 -154 OFFCURVE",
"44 -154 CURVE",
"20 -103 LINE",
"-33 -103 OFFCURVE",
"-51 -122 OFFCURVE",
"-51 -159 CURVE SMOOTH",
"-51 -203 OFFCURVE",
"-25 -224 OFFCURVE",
"38 -224 CURVE SMOOTH",
"132 -224 OFFCURVE",
"198 -176 OFFCURVE",
"198 -66 CURVE SMOOTH",
"198 502 LINE"
);
},
{
closed = 1;
nodes = (
"109 717 OFFCURVE",
"84 694 OFFCURVE",
"84 652 CURVE SMOOTH",
"84 610 OFFCURVE",
"109 587 OFFCURVE",
"148 587 CURVE SMOOTH",
"187 587 OFFCURVE",
"212 610 OFFCURVE",
"212 652 CURVE SMOOTH",
"212 694 OFFCURVE",
"187 717 OFFCURVE",
"148 717 CURVE SMOOTH"
);
}
);
width = 291;
},
{
associatedMasterId = "0225C979-6A3F-4323-834E-E3153ADD1AE8";
background = {
anchors = (
{
name = top;
position = "{192, 28}";
},
{
name = bottom;
position = "{188, 502}";
}
);
paths = (
{
closed = 1;
nodes = (
"135 -223 OFFCURVE",
"198 -169 OFFCURVE",
"198 -55 CURVE SMOOTH",
"198 -7 LINE",
"266 7 LINE",
"266 63 LINE",
"198 63 LINE",
"198 410 LINE",
"266 440 LINE",
"266 495 LINE",
"21 495 LINE",
"21 440 LINE",
"114 410 LINE",
"114 63 LINE",
"21 63 LINE",
"21 -7 LINE",
"114 -7 LINE",
"116 -49 OFFCURVE",
"116 -66 OFFCURVE",
"116 -81 CURVE SMOOTH",
"116 -130 OFFCURVE",
"92 -161 OFFCURVE",
"37 -161 CURVE",
"10 -102 LINE",
"-42 -102 OFFCURVE",
"-61 -121 OFFCURVE",
"-61 -156 CURVE SMOOTH",
"-61 -202 OFFCURVE",
"-36 -223 OFFCURVE",
"26 -223 CURVE SMOOTH"
);
}
);
};
layerId = "D1E0A7DB-CDD7-4DBD-9002-3FFF596D35E8";
name = "Regular Jun 23 14, 10:24";
paths = (
{
closed = 1;
nodes = (
"46 502 LINE",
"46 445 LINE",
"114 417 LINE",
"114 -19 LINE SMOOTH",
"114 -127 OFFCURVE",
"75 -155 OFFCURVE",
"30 -155 CURVE",
"-10 -65 LINE",
"-71 -65 OFFCURVE",
"-100 -93 OFFCURVE",
"-100 -139 CURVE SMOOTH",
"-100 -198 OFFCURVE",
"-52 -224 OFFCURVE",
"26 -224 CURVE SMOOTH",
"143 -224 OFFCURVE",
"198 -154 OFFCURVE",
"198 -19 CURVE SMOOTH",
"198 502 LINE"
);
},
{
closed = 1;
nodes = (
"109 717 OFFCURVE",
"84 694 OFFCURVE",
"84 652 CURVE SMOOTH",
"84 610 OFFCURVE",
"109 587 OFFCURVE",
"148 587 CURVE SMOOTH",
"187 587 OFFCURVE",
"212 610 OFFCURVE",
"212 652 CURVE SMOOTH",
"212 694 OFFCURVE",
"187 717 OFFCURVE",
"148 717 CURVE SMOOTH"
);
}
);
width = 291;
},
{
associatedMasterId = "0225C979-6A3F-4323-834E-E3153ADD1AE8";
background = {
paths = (
{
closed = 1;
nodes = (
"210 -224 OFFCURVE",
"301 -163 OFFCURVE",
"301 -16 CURVE",
"301 -16 LINE",
"375 14 LINE",
"375 128 LINE",
"301 128 LINE",
"301 352 LINE",
"375 382 LINE",
"375 494 LINE",
"0 494 LINE",
"0 382 LINE",
"99 352 LINE",
"99 128 LINE",
"0 128 LINE",
"0 -16 LINE",
"104 -16 LINE",
"112 -38 OFFCURVE",
"114 -56 OFFCURVE",
"114 -69 CURVE SMOOTH",
"114 -99 OFFCURVE",
"98 -118 OFFCURVE",
"64 -118 CURVE",
"39 -67 LINE",
"-28 -67 OFFCURVE",
"-53 -90 OFFCURVE",
"-53 -143 CURVE SMOOTH",
"-53 -199 OFFCURVE",
"-22 -224 OFFCURVE",
"85 -224 CURVE SMOOTH"
);
}
);
};
guideLines = (
{
angle = -60;
position = "{-10, -10}";
}
);
layerId = "6BD83658-5F5F-4F17-86FC-9F05F843D345";
name = "Bold Jun 23 14, 10:24";
paths = (
{
closed = 1;
nodes = (
"25 510 LINE",
"25 397 LINE",
"99 367 LINE",
"99 -18 LINE SMOOTH",
"99 -100 OFFCURVE",
"84 -116 OFFCURVE",
"47 -116 CURVE",
"-4 -28 LINE",
"-85 -28 OFFCURVE",
"-119 -60 OFFCURVE",
"-119 -118 CURVE SMOOTH",
"-119 -186 OFFCURVE",
"-75 -232 OFFCURVE",
"59 -232 CURVE SMOOTH",
"246 -232 OFFCURVE",
"301 -134 OFFCURVE",
"301 3 CURVE SMOOTH",
"301 510 LINE"
);
},
{
closed = 1;
nodes = (
"112 749 OFFCURVE",
"76 721 OFFCURVE",
"77 655 CURVE SMOOTH",
"76 589 OFFCURVE",
"112 561 OFFCURVE",
"195 561 CURVE SMOOTH",
"278 561 OFFCURVE",
"313 589 OFFCURVE",
"313 655 CURVE SMOOTH",
"313 721 OFFCURVE",
"278 749 OFFCURVE",
"195 749 CURVE SMOOTH"
);
}
);
width = 375;
}
);
unicode = 006A;
},
{
color = 3;
glyphname = k;
lastChange = "2014-09-18 19:42:26 +0000";
layers = (
{
background = {
guideLines = (
{
angle = 123.463;
position = "{434, 309}";
showMeasurement = 1;
}
);
paths = (
{
closed = 1;
nodes = (
"46 710 LINE",
"46 653 LINE",
"114 625 LINE",
"114 85 LINE",
"46 55 LINE",
"46 0 LINE",
"266 0 LINE",
"266 55 LINE",
"198 85 LINE",
"198 710 LINE"
);
},
{
closed = 1;
nodes = (
"346 502 LINE",
"346 445 LINE",
"414 417 LINE",
"178 237 LINE",
"178 150 LINE",
"529 417 LINE",
"597 445 LINE",
"597 502 LINE"
);
},
{
closed = 1;
nodes = (
"287 279 LINE",
"521 0 LINE",
"628 0 LINE",
"628 55 LINE",
"560 85 LINE",
"354 328 LINE"
);
}
);
};
layerId = "0225C979-6A3F-4323-834E-E3153ADD1AE8";
leftMetricsKey = "=h";
name = Regular;
paths = (
{
closed = 1;
nodes = (
"46 710 LINE",
"46 653 LINE",
"114 625 LINE",
"114 85 LINE",
"46 55 LINE",
"46 0 LINE",
"266 0 LINE",
"266 55 LINE",
"198 85 LINE",
"198 710 LINE"
);
},
{
closed = 1;
nodes = (
"346 502 LINE",
"346 445 LINE",
"450 402 LINE",
"445 440 LINE",
"178 237 LINE",
"178 150 LINE",
"529 417 LINE",
"597 445 LINE",
"597 502 LINE"
);
},
{
closed = 1;
nodes = (
"287 279 LINE",
"521 0 LINE",
"628 0 LINE",
"628 55 LINE",
"560 85 LINE",
"354 328 LINE"
);
}
);
width = 643;
},
{
associatedMasterId = "0225C979-6A3F-4323-834E-E3153ADD1AE8";
background = {
paths = (
{
closed = 1;
nodes = (
"89 710 LINE",
"89 653 LINE",
"157 625 LINE",
"157 85 LINE",
"89 55 LINE",
"89 0 LINE",
"309 0 LINE",
"309 55 LINE",
"241 85 LINE",
"241 710 LINE"
);
},
{
closed = 1;
nodes = (
"389 502 LINE",
"389 445 LINE",
"493 402 LINE",
"488 440 LINE",
"221 237 LINE",
"221 150 LINE",
"572 417 LINE",
"640 445 LINE",
"640 502 LINE"
);
},
{
closed = 1;
nodes = (
"330 279 LINE",
"564 0 LINE",
"671 0 LINE",
"671 55 LINE",
"603 85 LINE",
"397 328 LINE"
);
}
);
};
guideLines = (
{
position = "{306, 142}";
},
{
angle = 90;
position = "{286, 112}";
},
{
angle = 32.8038;
position = "{585, 321}";
showMeasurement = 1;
},
{
angle = 210.493;
position = "{454, 415}";
},
{
angle = 32.8038;
position = "{671, 155}";
showMeasurement = 1;
},
{
angle = 90;
position = "{403, 406}";
},
{
angle = 90;
position = "{349, 406}";
}
);
layerId = "7DA5FFC2-666F-4F87-BE63-5110DAB7F239";
name = "Bold Jun 18 14, 11:16";
paths = (
{
closed = 1;
nodes = (
"30 710 LINE",
"30 596 LINE",
"104 566 LINE",
"104 142 LINE",
"30 112 LINE",
"30 0 LINE",
"370 0 LINE",
"370 112 LINE",
"306 142 LINE",
"306 710 LINE"
);
},
{
closed = 1;
nodes = (
"349 510 LINE",
"349 396 LINE",
"422 366 LINE",
"422 385 LINE",
"286 305 LINE",
"286 154 LINE",
"646 366 LINE",
"710 396 LINE",
"710 510 LINE"
);
},
{
closed = 1;
nodes = (
"359 260 LINE",
"519 0 LINE",
"730 0 LINE",
"730 112 LINE",
"657 142 LINE",
"520 352 LINE"
);
}
);
width = 750;
}
);
leftMetricsKey = h;
unicode = 006B;
},
{
color = 3;
glyphname = l;
lastChange = "2014-09-18 19:42:26 +0000";
layers = (
{
background = {
paths = (
{
closed = 1;
nodes = (
"50 724 LINE",
"50 668 LINE",
"150 639 LINE",
"150 85 LINE",
"50 55 LINE",
"50 0 LINE",
"336 0 LINE",
"336 55 LINE",
"235 85 LINE",
"235 724 LINE"
);
}
);
};
layerId = "0225C979-6A3F-4323-834E-E3153ADD1AE8";
name = Regular;
paths = (
{
closed = 1;
nodes = (
"46 710 LINE",
"46 653 LINE",
"114 625 LINE",
"114 85 LINE",
"46 55 LINE",
"46 0 LINE",
"266 0 LINE",
"266 55 LINE",
"198 85 LINE",
"198 710 LINE"
);
}
);
width = 301;
}
);
leftMetricsKey = h;
rightMetricsKey = h;
unicode = 006C;
},
{
color = 4;
glyphname = m;
lastChange = "2014-09-18 19:42:26 +0000";
layers = (
{
background = {
paths = (
{
closed = 1;
nodes = (
"659 516 OFFCURVE",
"595 497 OFFCURVE",
"502 446 CURVE",
"535 443 LINE",
"505 495 OFFCURVE",
"460 516 OFFCURVE",
"382 516 CURVE SMOOTH",
"312 516 OFFCURVE",
"248 497 OFFCURVE",
"155 446 CURVE",
"193 446 LINE",
"157 502 LINE",
"46 502 LINE",
"46 445 LINE",
"114 417 LINE",
"114 85 LINE",
"46 55 LINE",
"46 0 LINE",
"266 0 LINE",
"266 55 LINE",
"198 85 LINE",
"198 402 LINE",
"268 427 OFFCURVE",
"308 443 OFFCURVE",
"359 443 CURVE SMOOTH",
"425 443 OFFCURVE",
"462 412 OFFCURVE",
"462 331 CURVE SMOOTH",
"462 0 LINE",
"614 0 LINE",
"614 55 LINE",
"546 85 LINE",
"546 402 LINE",
"615 427 OFFCURVE",
"655 443 OFFCURVE",
"707 443 CURVE SMOOTH",
"773 443 OFFCURVE",
"810 412 OFFCURVE",
"810 331 CURVE SMOOTH",
"810 0 LINE",
"962 0 LINE",
"962 55 LINE",
"894 85 LINE",
"894 320 LINE SMOOTH",
"894 462 OFFCURVE",
"854 516 OFFCURVE",
"730 516 CURVE SMOOTH"
);
}
);
};
layerId = "0225C979-6A3F-4323-834E-E3153ADD1AE8";
name = Regular;
paths = (
{
closed = 1;
nodes = (
"659 516 OFFCURVE",
"595 497 OFFCURVE",
"502 446 CURVE",
"535 443 LINE",
"505 495 OFFCURVE",
"460 516 OFFCURVE",
"386 516 CURVE SMOOTH",
"312 516 OFFCURVE",
"248 497 OFFCURVE",
"155 446 CURVE",
"193 446 LINE",
"157 502 LINE",
"46 502 LINE",
"46 445 LINE",
"114 417 LINE",
"114 85 LINE",
"46 55 LINE",
"46 0 LINE",
"266 0 LINE",
"266 55 LINE",
"198 85 LINE",
"198 402 LINE",
"268 427 OFFCURVE",
"308 443 OFFCURVE",
"359 443 CURVE SMOOTH",
"425 443 OFFCURVE",
"462 412 OFFCURVE",
"462 331 CURVE SMOOTH",
"462 0 LINE",
"614 0 LINE",
"614 55 LINE",
"546 85 LINE",
"546 402 LINE",
"615 427 OFFCURVE",
"655 443 OFFCURVE",
"707 443 CURVE SMOOTH",
"773 443 OFFCURVE",
"810 412 OFFCURVE",
"810 331 CURVE SMOOTH",
"810 0 LINE",
"962 0 LINE",
"962 55 LINE",
"894 85 LINE",
"894 320 LINE SMOOTH",
"894 462 OFFCURVE",
"854 516 OFFCURVE",
"734 516 CURVE SMOOTH"
);
}
);
width = 997;
}
);
leftMetricsKey = n;
rightMetricsKey = n;
unicode = 006D;
},
{
color = 4;
glyphname = n;
lastChange = "2014-09-18 19:42:26 +0000";
layers = (
{
background = {
paths = (
{
closed = 1;
nodes = (
"317 516 OFFCURVE",
"248 497 OFFCURVE",
"155 446 CURVE",
"193 446 LINE",
"157 502 LINE",
"26 502 LINE",
"26 445 LINE",
"114 417 LINE",
"114 85 LINE",
"26 55 LINE",
"26 0 LINE",
"286 0 LINE",
"286 55 LINE",
"198 85 LINE",
"198 402 LINE",
"268 427 OFFCURVE",
"313 443 OFFCURVE",
"364 443 CURVE SMOOTH",
"435 443 OFFCURVE",
"476 412 OFFCURVE",
"476 331 CURVE SMOOTH",
"476 0 LINE",
"648 0 LINE",
"648 55 LINE",
"560 85 LINE",
"560 320 LINE SMOOTH",
"560 462 OFFCURVE",
"518 516 OFFCURVE",
"387 516 CURVE SMOOTH"
);
}
);
};
layerId = "0225C979-6A3F-4323-834E-E3153ADD1AE8";
name = Regular;
paths = (
{
closed = 1;
nodes = (
"319 516 OFFCURVE",
"251 497 OFFCURVE",
"172 455 CURVE",
"193 446 LINE",
"157 502 LINE",
"46 502 LINE",
"46 445 LINE",
"114 417 LINE",
"114 85 LINE",
"46 55 LINE",
"46 0 LINE",
"276 0 LINE",
"276 55 LINE",
"198 85 LINE",
"198 402 LINE",
"268 427 OFFCURVE",
"313 443 OFFCURVE",
"364 443 CURVE SMOOTH",
"435 443 OFFCURVE",
"476 412 OFFCURVE",
"476 331 CURVE SMOOTH",
"476 0 LINE",
"628 0 LINE",
"628 55 LINE",
"560 85 LINE",
"560 320 LINE SMOOTH",
"560 462 OFFCURVE",
"517 516 OFFCURVE",
"391 516 CURVE SMOOTH"
);
}
);
width = 663;
}
);
unicode = 006E;
},
{
color = 3;
glyphname = o;
lastChange = "2014-09-18 19:42:26 +0000";
layers = (
{
anchors = (
{
name = top;
position = "{299, 509}";
}
);
background = {
paths = (
{
closed = 1;
nodes = (
"154 516 OFFCURVE",
"41 446 OFFCURVE",
"41 251 CURVE SMOOTH",
"41 56 OFFCURVE",
"153 -14 OFFCURVE",
"295 -14 CURVE SMOOTH",
"437 -14 OFFCURVE",
"549 56 OFFCURVE",
"549 251 CURVE SMOOTH",
"549 446 OFFCURVE",
"436 516 OFFCURVE",
"295 516 CURVE SMOOTH"
);
},
{
closed = 1;
nodes = (
"410 444 OFFCURVE",
"461 402 OFFCURVE",
"461 251 CURVE SMOOTH",
"461 100 OFFCURVE",
"410 58 OFFCURVE",
"295 58 CURVE SMOOTH",
"180 58 OFFCURVE",
"129 100 OFFCURVE",
"129 251 CURVE SMOOTH",
"129 402 OFFCURVE",
"180 444 OFFCURVE",
"295 444 CURVE SMOOTH"
);
}
);
};
layerId = "0225C979-6A3F-4323-834E-E3153ADD1AE8";
rightMetricsKey = "=|o";
name = Regular;
paths = (
{
closed = 1;
nodes = (
"154 516 OFFCURVE",
"41 446 OFFCURVE",
"41 251 CURVE SMOOTH",
"41 56 OFFCURVE",
"153 -14 OFFCURVE",
"295 -14 CURVE SMOOTH",
"437 -14 OFFCURVE",
"549 56 OFFCURVE",
"549 251 CURVE SMOOTH",
"549 446 OFFCURVE",
"436 516 OFFCURVE",
"295 516 CURVE SMOOTH"
);
},
{
closed = 1;
nodes = (
"410 444 OFFCURVE",
"461 402 OFFCURVE",
"461 251 CURVE SMOOTH",
"461 100 OFFCURVE",
"410 58 OFFCURVE",
"295 58 CURVE SMOOTH",
"180 58 OFFCURVE",
"129 100 OFFCURVE",
"129 251 CURVE SMOOTH",
"129 402 OFFCURVE",
"180 444 OFFCURVE",
"295 444 CURVE SMOOTH"
);
}
);
width = 590;
}
);
rightMetricsKey = "=|o";
unicode = 006F;
},
{
color = 3;
glyphname = p;
lastChange = "2014-09-18 19:42:26 +0000";
layers = (
{
background = {
paths = (
{
closed = 1;
nodes = (
"454 443 OFFCURVE",
"491 374 OFFCURVE",
"491 241 CURVE SMOOTH",
"491 101 OFFCURVE",
"450 63 OFFCURVE",
"363 63 CURVE SMOOTH",
"297 63 OFFCURVE",
"241 86 OFFCURVE",
"188 128 CURVE",
"188 402 LINE",
"252 425 OFFCURVE",
"299 443 OFFCURVE",
"351 443 CURVE SMOOTH"
);
},
{
closed = 0;
nodes = (
"188 90 LINE",
"165 90 LINE",
"224 21 OFFCURVE",
"289 -10 OFFCURVE",
"380 -10 CURVE SMOOTH",
"510 -10 OFFCURVE",
"579 47 OFFCURVE",
"579 249 CURVE SMOOTH",
"579 446 OFFCURVE",
"497 516 OFFCURVE",
"371 516 CURVE SMOOTH",
"308 516 OFFCURVE",
"249 499 OFFCURVE",
"178 455 CURVE",
"188 451 LINE"
);
},
{
closed = 0;
nodes = (
"183 446 LINE",
"147 502 LINE",
"16 502 LINE",
"16 445 LINE",
"104 417 LINE",
"104 -141 LINE",
"16 -171 LINE",
"16 -226 LINE",
"276 -226 LINE",
"276 -171 LINE",
"188 -141 LINE",
"188 402 LINE"
);
}
);
};
layerId = "0225C979-6A3F-4323-834E-E3153ADD1AE8";
leftMetricsKey = "=b";
name = Regular;
paths = (
{
closed = 1;
nodes = (
"308 516 OFFCURVE",
"246 499 OFFCURVE",
"169 449 CURVE",
"183 446 LINE",
"147 502 LINE",
"36 502 LINE",
"36 445 LINE",
"104 417 LINE",
"104 -139 LINE",
"36 -169 LINE",
"36 -224 LINE",
"266 -224 LINE",
"266 -169 LINE",
"188 -139 LINE",
"188 90 LINE",
"165 90 LINE",
"224 21 OFFCURVE",
"289 -10 OFFCURVE",
"380 -10 CURVE SMOOTH",
"510 -10 OFFCURVE",
"579 47 OFFCURVE",
"579 249 CURVE SMOOTH",
"579 446 OFFCURVE",
"497 516 OFFCURVE",
"371 516 CURVE SMOOTH"
);
},
{
closed = 1;
nodes = (
"454 443 OFFCURVE",
"491 374 OFFCURVE",
"491 241 CURVE SMOOTH",
"491 101 OFFCURVE",
"450 63 OFFCURVE",
"363 63 CURVE SMOOTH",
"297 63 OFFCURVE",
"241 86 OFFCURVE",
"188 128 CURVE",
"188 402 LINE",
"252 425 OFFCURVE",
"299 443 OFFCURVE",
"351 443 CURVE SMOOTH"
);
}
);
width = 624;
}
);
leftMetricsKey = n;
rightMetricsKey = "=o+4";
unicode = 0070;
},
{
color = 3;
glyphname = thorn;
lastChange = "2014-09-18 19:42:26 +0000";
layers = (
{
background = {
paths = (
{
closed = 1;
nodes = (
"45 710 LINE",
"45 653 LINE",
"114 625 LINE",
"114 85 LINE",
"46 55 LINE",
"46 0 LINE",
"266 0 LINE",
"266 55 LINE",
"198 85 LINE",
"198 402 LINE",
"268 427 OFFCURVE",
"313 443 OFFCURVE",
"364 443 CURVE SMOOTH",
"435 443 OFFCURVE",
"476 412 OFFCURVE",
"476 331 CURVE SMOOTH",
"476 0 LINE",
"628 0 LINE",
"628 55 LINE",
"560 85 LINE",
"560 320 LINE SMOOTH",
"560 462 OFFCURVE",
"517 516 OFFCURVE",
"391 516 CURVE SMOOTH",
"319 516 OFFCURVE",
"252 498 OFFCURVE",
"171 452 CURVE",
"198 452 LINE",
"198 710 LINE"
);
}
);
};
guideLines = (
{
angle = 90;
position = "{198, 452}";
}
);
layerId = "0225C979-6A3F-4323-834E-E3153ADD1AE8";
leftMetricsKey = "=n";
rightMetricsKey = "=p";
name = Regular;
paths = (
{
closed = 1;
nodes = (
"46 710 LINE",
"46 653 LINE",
"114 625 LINE",
"114 -139 LINE",
"46 -169 LINE",
"46 -224 LINE",
"276 -224 LINE",
"276 -169 LINE",
"198 -139 LINE",
"198 90 LINE",
"175 90 LINE",
"234 21 OFFCURVE",
"299 -10 OFFCURVE",
"390 -10 CURVE SMOOTH",
"520 -10 OFFCURVE",
"589 47 OFFCURVE",
"589 249 CURVE SMOOTH",
"589 446 OFFCURVE",
"507 516 OFFCURVE",
"381 516 CURVE SMOOTH",
"318 516 OFFCURVE",
"256 499 OFFCURVE",
"179 449 CURVE",
"198 449 LINE",
"198 710 LINE"
);
},
{
closed = 1;
nodes = (
"464 443 OFFCURVE",
"501 374 OFFCURVE",
"501 241 CURVE SMOOTH",
"501 101 OFFCURVE",
"460 63 OFFCURVE",
"373 63 CURVE SMOOTH",
"307 63 OFFCURVE",
"251 86 OFFCURVE",
"198 128 CURVE",
"198 402 LINE",
"262 425 OFFCURVE",
"309 443 OFFCURVE",
"361 443 CURVE SMOOTH"
);
}
);
width = 634;
}
);
leftMetricsKey = n;
rightMetricsKey = "=o+4";
unicode = 00FE;
},
{
color = 3;
glyphname = q;
lastChange = "2014-09-18 19:42:26 +0000";
layers = (
{
background = {
paths = (
{
closed = 0;
nodes = (
"521 -139 LINE",
"589 -169 LINE",
"589 -224 LINE",
"359 -224 LINE",
"359 -169 LINE",
"437 -139 LINE",
"437 90 LINE"
);
}
);
};
layerId = "0225C979-6A3F-4323-834E-E3153ADD1AE8";
name = Regular;
paths = (
{
closed = 1;
nodes = (
"128 516 OFFCURVE",
"46 446 OFFCURVE",
"46 249 CURVE SMOOTH",
"46 47 OFFCURVE",
"115 -10 OFFCURVE",
"245 -10 CURVE SMOOTH",
"336 -10 OFFCURVE",
"401 21 OFFCURVE",
"460 90 CURVE",
"437 90 LINE",
"437 -139 LINE",
"359 -169 LINE",
"359 -224 LINE",
"589 -224 LINE",
"589 -169 LINE",
"521 -139 LINE",
"521 502 LINE",
"478 502 LINE",
"442 446 LINE",
"461 446 LINE",
"378 500 OFFCURVE",
"317 516 OFFCURVE",
"254 516 CURVE SMOOTH"
);
},
{
closed = 1;
nodes = (
"326 443 OFFCURVE",
"373 425 OFFCURVE",
"437 402 CURVE",
"437 128 LINE",
"384 86 OFFCURVE",
"328 63 OFFCURVE",
"262 63 CURVE SMOOTH",
"175 63 OFFCURVE",
"134 101 OFFCURVE",
"134 241 CURVE SMOOTH",
"134 374 OFFCURVE",
"171 443 OFFCURVE",
"274 443 CURVE SMOOTH"
);
}
);
width = 624;
}
);
leftMetricsKey = "=o+4";
unicode = 0071;
},
{
color = 4;
glyphname = r;
lastChange = "2014-09-18 19:42:26 +0000";
layers = (
{
background = {
hints = (
{
place = "{0.000000, 0.000000}";
}
);
paths = (
{
closed = 1;
nodes = (
"307 518 OFFCURVE",
"242 497 OFFCURVE",
"171 414 CURVE",
"214 412 LINE",
"157 502 LINE",
"46 502 LINE",
"46 445 LINE",
"114 417 LINE",
"114 85 LINE",
"46 55 LINE",
"46 0 LINE",
"276 0 LINE",
"276 55 LINE",
"198 85 LINE",
"198 379 LINE",
"320 454 LINE",
"308 453 LINE",
"345 394 LINE",
"393 394 OFFCURVE",
"419 412 OFFCURVE",
"419 458 CURVE SMOOTH",
"419 499 OFFCURVE",
"401 518 OFFCURVE",
"360 518 CURVE SMOOTH"
);
}
);
};
guideLines = (
{
angle = 90;
position = "{198, 85}";
}
);
layerId = "0225C979-6A3F-4323-834E-E3153ADD1AE8";
name = Regular;
paths = (
{
closed = 1;
nodes = (
"307 518 OFFCURVE",
"242 495 OFFCURVE",
"171 417 CURVE",
"214 412 LINE",
"157 502 LINE",
"46 502 LINE",
"46 445 LINE",
"114 417 LINE",
"114 85 LINE",
"46 55 LINE",
"46 0 LINE",
"276 0 LINE",
"276 55 LINE",
"198 85 LINE",
"198 375 LINE",
"237 407 OFFCURVE",
"275 430 OFFCURVE",
"320 450 CURVE",
"308 453 LINE",
"345 394 LINE",
"393 394 OFFCURVE",
"419 412 OFFCURVE",
"419 458 CURVE SMOOTH",
"419 499 OFFCURVE",
"401 518 OFFCURVE",
"360 518 CURVE SMOOTH"
);
}
);
width = 444;
},
{
associatedMasterId = "0225C979-6A3F-4323-834E-E3153ADD1AE8";
background = {
paths = (
{
closed = 1;
nodes = (
"307 518 OFFCURVE",
"242 497 OFFCURVE",
"171 414 CURVE",
"214 412 LINE",
"157 502 LINE",
"46 502 LINE",
"46 445 LINE",
"114 417 LINE",
"114 85 LINE",
"46 55 LINE",
"46 0 LINE",
"276 0 LINE",
"276 55 LINE",
"198 85 LINE",
"198 379 LINE",
"320 456 LINE",
"303 456 LINE",
"340 397 LINE",
"388 397 OFFCURVE",
"414 415 OFFCURVE",
"414 461 CURVE SMOOTH",
"414 499 OFFCURVE",
"396 518 OFFCURVE",
"355 518 CURVE SMOOTH"
);
}
);
};
guideLines = (
{
angle = 90;
position = "{198, 85}";
}
);
layerId = "DA889C85-79A2-451B-9961-A686E582BACB";
name = "Regular Jun 23 14, 10:32";
paths = (
{
closed = 1;
nodes = (
"307 518 OFFCURVE",
"242 497 OFFCURVE",
"171 414 CURVE",
"214 412 LINE",
"157 502 LINE",
"46 502 LINE",
"46 445 LINE",
"114 417 LINE",
"114 85 LINE",
"46 55 LINE",
"46 0 LINE",
"276 0 LINE",
"276 55 LINE",
"198 85 LINE",
"198 379 LINE",
"320 454 LINE",
"308 453 LINE",
"345 394 LINE",
"393 394 OFFCURVE",
"419 412 OFFCURVE",
"419 458 CURVE SMOOTH",
"419 499 OFFCURVE",
"401 518 OFFCURVE",
"360 518 CURVE SMOOTH"
);
}
);
width = 444;
},
{
associatedMasterId = "0225C979-6A3F-4323-834E-E3153ADD1AE8";
background = {
paths = (
{
closed = 1;
nodes = (
"169 531 OFFCURVE",
"65 449 OFFCURVE",
"65 259 CURVE SMOOTH",
"65 66 OFFCURVE",
"172 -11 OFFCURVE",
"370 -11 CURVE SMOOTH",
"437 -11 OFFCURVE",
"498 -3 OFFCURVE",
"553 15 CURVE",
"553 135 LINE",
"506 120 OFFCURVE",
"463 115 OFFCURVE",
"403 115 CURVE SMOOTH",
"299 115 OFFCURVE",
"269 148 OFFCURVE",
"269 266 CURVE SMOOTH",
"269 376 OFFCURVE",
"294 405 OFFCURVE",
"387 405 CURVE",
"438 318 LINE",
"520 318 OFFCURVE",
"563 350 OFFCURVE",
"563 421 CURVE SMOOTH",
"563 495 OFFCURVE",
"517 531 OFFCURVE",
"378 531 CURVE SMOOTH"
);
}
);
};
guideLines = (
{
angle = 30.881;
position = "{406, 381}";
},
{
angle = 90;
position = "{306, 97}";
},
{
position = "{416, 381}";
}
);
layerId = "3BF442EC-D909-470B-B7BD-FB775370A5A7";
name = "Bold Jun 23 14, 10:32";
paths = (
{
closed = 1;
nodes = (
"395 531 OFFCURVE",
"339 498 OFFCURVE",
"278 431 CURVE",
"302 408 LINE",
"241 510 LINE",
"30 510 LINE",
"30 399 LINE",
"104 369 LINE",
"104 140 LINE",
"30 110 LINE",
"30 0 LINE",
"390 0 LINE",
"390 110 LINE",
"306 140 LINE",
"306 323 LINE",
"406 383 LINE",
"389 382 LINE",
"430 313 LINE",
"518 313 OFFCURVE",
"563 343 OFFCURVE",
"563 423 CURVE SMOOTH",
"563 500 OFFCURVE",
"522 531 OFFCURVE",
"459 531 CURVE SMOOTH"
);
}
);
width = 573;
}
);
leftMetricsKey = h;
unicode = 0072;
},
{
color = 4;
glyphname = s;
lastChange = "2014-09-18 20:29:52 +0000";
layers = (
{
anchors = (
{
name = bottom;
position = "{265, 0}";
},
{
name = top;
position = "{253, 501}";
}
);
background = {
paths = (
{
closed = 1;
nodes = (
"87 516 OFFCURVE",
"40 471 OFFCURVE",
"40 366 CURVE SMOOTH",
"40 268 OFFCURVE",
"80 241 OFFCURVE",
"216 216 CURVE SMOOTH",
"359 190 OFFCURVE",
"407 198 OFFCURVE",
"407 130 CURVE SMOOTH",
"407 75 OFFCURVE",
"380 58 OFFCURVE",
"256 58 CURVE SMOOTH",
"197 58 OFFCURVE",
"165 61 OFFCURVE",
"108 72 CURVE",
"146 31 LINE",
"106 150 LINE",
"46 150 LINE",
"46 6 LINE",
"129 -8 OFFCURVE",
"182 -14 OFFCURVE",
"253 -14 CURVE SMOOTH",
"445 -14 OFFCURVE",
"495 34 OFFCURVE",
"495 142 CURVE SMOOTH",
"495 228 OFFCURVE",
"467 259 OFFCURVE",
"329 284 CURVE SMOOTH",
"170 313 OFFCURVE",
"128 311 OFFCURVE",
"128 374 CURVE SMOOTH",
"128 425 OFFCURVE",
"154 444 OFFCURVE",
"263 444 CURVE SMOOTH",
"325 444 OFFCURVE",
"362 439 OFFCURVE",
"415 429 CURVE",
"378 476 LINE",
"419 357 LINE",
"477 357 LINE",
"477 496 LINE",
"394 510 OFFCURVE",
"335 516 OFFCURVE",
"267 516 CURVE SMOOTH"
);
}
);
};
guideLines = (
{
angle = 90;
position = "{40, 364}";
},
{
angle = 90;
position = "{486, 197}";
},
{
angle = 79.584;
position = "{282, 309}";
showMeasurement = 1;
}
);
layerId = "0225C979-6A3F-4323-834E-E3153ADD1AE8";
name = Regular;
paths = (
{
closed = 1;
nodes = (
"87 516 OFFCURVE",
"40 471 OFFCURVE",
"40 366 CURVE SMOOTH",
"40 268 OFFCURVE",
"80 241 OFFCURVE",
"216 216 CURVE SMOOTH",
"357 190 OFFCURVE",
"405 198 OFFCURVE",
"405 130 CURVE SMOOTH",
"405 73 OFFCURVE",
"378 56 OFFCURVE",
"255 56 CURVE SMOOTH",
"197 56 OFFCURVE",
"165 59 OFFCURVE",
"108 70 CURVE",
"146 31 LINE",
"106 150 LINE",
"46 150 LINE",
"46 6 LINE",
"129 -8 OFFCURVE",
"182 -14 OFFCURVE",
"252 -14 CURVE SMOOTH",
"443 -14 OFFCURVE",
"493 34 OFFCURVE",
"493 142 CURVE SMOOTH",
"493 228 OFFCURVE",
"467 259 OFFCURVE",
"329 284 CURVE SMOOTH",
"170 313 OFFCURVE",
"128 311 OFFCURVE",
"128 374 CURVE SMOOTH",
"128 427 OFFCURVE",
"154 446 OFFCURVE",
"262 446 CURVE SMOOTH",
"323 446 OFFCURVE",
"360 441 OFFCURVE",
"413 431 CURVE",
"376 476 LINE",
"417 357 LINE",
"475 357 LINE",
"475 496 LINE",
"392 510 OFFCURVE",
"333 516 OFFCURVE",
"266 516 CURVE SMOOTH"
);
}
);
width = 533;
}
);
unicode = 0073;
},
{
color = 3;
glyphname = germandbls;
lastChange = "2014-09-18 19:42:26 +0000";
layers = (
{
background = {
paths = (
{
closed = 1;
nodes = (
"191 718 OFFCURVE",
"114 650 OFFCURVE",
"114 522 CURVE SMOOTH",
"114 502 LINE",
"46 488 LINE",
"46 430 LINE",
"114 430 LINE",
"114 85 LINE",
"46 55 LINE",
"46 0 LINE",
"198 0 LINE",
"198 520 LINE SMOOTH",
"198 609 OFFCURVE",
"232 646 OFFCURVE",
"314 646 CURVE SMOOTH",
"384 646 OFFCURVE",
"412 619 OFFCURVE",
"412 550 CURVE SMOOTH",
"412 471 OFFCURVE",
"375 437 OFFCURVE",
"289 437 CURVE",
"289 365 LINE",
"418 365 OFFCURVE",
"472 322 OFFCURVE",
"472 217 CURVE SMOOTH",
"472 116 OFFCURVE",
"426 74 OFFCURVE",
"309 74 CURVE SMOOTH",
"279 74 LINE",
"279 0 LINE",
"319 0 LINE SMOOTH",
"476 0 OFFCURVE",
"560 79 OFFCURVE",
"560 217 CURVE SMOOTH",
"560 333 OFFCURVE",
"500 409 OFFCURVE",
"391 418 CURVE",
"391 420 LINE",
"456 434 OFFCURVE",
"494 484 OFFCURVE",
"494 561 CURVE SMOOTH",
"494 660 OFFCURVE",
"433 718 OFFCURVE",
"317 718 CURVE SMOOTH"
);
}
);
};
guideLines = (
{
angle = 90;
position = "{472, 219}";
},
{
angle = 90;
position = "{516, 219}";
}
);
layerId = "0225C979-6A3F-4323-834E-E3153ADD1AE8";
name = Regular;
paths = (
{
closed = 1;
nodes = (
"191 718 OFFCURVE",
"114 650 OFFCURVE",
"114 522 CURVE SMOOTH",
"114 502 LINE",
"46 488 LINE",
"46 430 LINE",
"114 430 LINE",
"114 85 LINE",
"46 55 LINE",
"46 0 LINE",
"198 0 LINE",
"198 520 LINE SMOOTH",
"198 609 OFFCURVE",
"232 646 OFFCURVE",
"314 646 CURVE SMOOTH",
"384 646 OFFCURVE",
"412 619 OFFCURVE",
"412 550 CURVE SMOOTH",
"412 471 OFFCURVE",
"375 437 OFFCURVE",
"289 437 CURVE",
"289 365 LINE",
"294 365 LINE SMOOTH",
"418 365 OFFCURVE",
"472 322 OFFCURVE",
"472 217 CURVE SMOOTH",
"472 116 OFFCURVE",
"426 74 OFFCURVE",
"309 74 CURVE SMOOTH",
"289 74 LINE",
"289 0 LINE",
"319 0 LINE SMOOTH",
"476 0 OFFCURVE",
"560 79 OFFCURVE",
"560 217 CURVE SMOOTH",
"560 333 OFFCURVE",
"500 409 OFFCURVE",
"391 418 CURVE",
"391 420 LINE",
"456 434 OFFCURVE",
"494 484 OFFCURVE",
"494 561 CURVE SMOOTH",
"494 660 OFFCURVE",
"433 718 OFFCURVE",
"317 718 CURVE SMOOTH"
);
}
);
width = 590;
}
);
leftMetricsKey = n;
unicode = 00DF;
},
{
color = 4;
glyphname = t;
lastChange = "2014-09-18 19:42:26 +0000";
layers = (
{
background = {
paths = (
{
closed = 1;
nodes = (
"311 -5 LINE",
"297 -7 OFFCURVE",
"281 -8 OFFCURVE",
"258 -8 CURVE SMOOTH",
"149 -8 OFFCURVE",
"104 34 OFFCURVE",
"104 135 CURVE SMOOTH",
"104 430 LINE",
"11 430 LINE",
"11 488 LINE",
"104 502 LINE",
"134 647 LINE",
"188 647 LINE",
"188 502 LINE",
"311 502 LINE",
"311 430 LINE",
"188 430 LINE",
"188 128 LINE SMOOTH",
"188 83 OFFCURVE",
"211 64 OFFCURVE",
"265 64 CURVE SMOOTH",
"283 64 OFFCURVE",
"297 65 OFFCURVE",
"311 67 CURVE"
);
}
);
};
layerId = "0225C979-6A3F-4323-834E-E3153ADD1AE8";
leftMetricsKey = "=n-10";
name = Regular;
paths = (
{
closed = 1;
nodes = (
"311 -4 LINE",
"294 -7 OFFCURVE",
"275 -8 OFFCURVE",
"248 -8 CURVE SMOOTH",
"146 -8 OFFCURVE",
"104 31 OFFCURVE",
"104 125 CURVE SMOOTH",
"104 432 LINE",
"36 432 LINE",
"36 488 LINE",
"104 502 LINE",
"134 647 LINE",
"188 647 LINE",
"188 502 LINE",
"311 502 LINE",
"311 432 LINE",
"188 432 LINE",
"188 123 LINE SMOOTH",
"188 79 OFFCURVE",
"205 64 OFFCURVE",
"265 64 CURVE SMOOTH",
"283 64 OFFCURVE",
"297 64 OFFCURVE",
"311 66 CURVE"
);
}
);
width = 361;
}
);
leftMetricsKey = "=f-5";
unicode = 0074;
},
{
color = 4;
glyphname = u;
lastChange = "2014-09-18 19:42:26 +0000";
layers = (
{
anchors = (
{
name = ogonek;
position = "{514, 10}";
},
{
name = top;
position = "{328, 509}";
}
);
background = {
paths = (
{
closed = 1;
nodes = (
"345 -14 OFFCURVE",
"413 5 OFFCURVE",
"492 47 CURVE",
"471 56 LINE",
"507 0 LINE",
"638 0 LINE",
"638 57 LINE",
"550 85 LINE",
"550 417 LINE",
"638 447 LINE",
"638 502 LINE",
"378 502 LINE",
"378 447 LINE",
"466 417 LINE",
"466 100 LINE",
"396 75 OFFCURVE",
"351 59 OFFCURVE",
"300 59 CURVE SMOOTH",
"229 59 OFFCURVE",
"188 90 OFFCURVE",
"188 171 CURVE SMOOTH",
"188 502 LINE",
"16 502 LINE",
"16 447 LINE",
"104 417 LINE",
"104 182 LINE SMOOTH",
"104 40 OFFCURVE",
"147 -14 OFFCURVE",
"273 -14 CURVE SMOOTH"
);
}
);
};
guideLines = (
{
angle = 90;
position = "{550, 425}";
},
{
angle = 90;
position = "{466, 425}";
}
);
layerId = "0225C979-6A3F-4323-834E-E3153ADD1AE8";
leftMetricsKey = "=n-10";
rightMetricsKey = "=n";
name = Regular;
paths = (
{
closed = 1;
nodes = (
"398 502 LINE",
"398 447 LINE",
"466 419 LINE",
"466 100 LINE",
"396 75 OFFCURVE",
"351 59 OFFCURVE",
"300 59 CURVE SMOOTH",
"229 59 OFFCURVE",
"188 90 OFFCURVE",
"188 171 CURVE SMOOTH",
"188 502 LINE",
"36 502 LINE",
"36 447 LINE",
"104 417 LINE",
"104 182 LINE SMOOTH",
"104 40 OFFCURVE",
"146 -14 OFFCURVE",
"273 -14 CURVE SMOOTH",
"347 -14 OFFCURVE",
"416 5 OFFCURVE",
"509 56 CURVE",
"471 56 LINE",
"507 0 LINE",
"618 0 LINE",
"618 57 LINE",
"550 85 LINE",
"550 502 LINE"
);
}
);
width = 653;
}
);
leftMetricsKey = "=i-5";
rightMetricsKey = i;
unicode = 0075;
},
{
color = 4;
glyphname = v;
lastChange = "2014-09-18 19:42:26 +0000";
layers = (
{
background = {
paths = (
{
closed = 1;
nodes = (
"603 502 LINE",
"365 502 LINE",
"365 446 LINE",
"446 419 LINE",
"288 38 LINE",
"318 38 LINE",
"160 419 LINE",
"241 446 LINE",
"241 502 LINE",
"-14 502 LINE",
"-14 446 LINE",
"68 418 LINE",
"247 0 LINE",
"343 0 LINE",
"521 418 LINE",
"603 446 LINE"
);
}
);
};
guideLines = (
{
angle = 157.476;
position = "{450, 23}";
showMeasurement = 1;
},
{
angle = 22.5237;
position = "{180, 419}";
showMeasurement = 1;
},
{
angle = 22.5237;
position = "{336, 109}";
showMeasurement = 1;
},
{
angle = 157.476;
position = "{426, 419}";
showMeasurement = 1;
}
);
layerId = "0225C979-6A3F-4323-834E-E3153ADD1AE8";
name = Regular;
paths = (
{
closed = 1;
nodes = (
"579 502 LINE",
"378 502 LINE",
"378 446 LINE",
"446 419 LINE",
"288 38 LINE",
"318 38 LINE",
"160 419 LINE",
"228 446 LINE",
"228 502 LINE",
"10 502 LINE",
"10 446 LINE",
"68 418 LINE",
"247 0 LINE",
"343 0 LINE",
"521 418 LINE",
"579 446 LINE"
);
}
);
width = 589;
}
);
unicode = 0076;
},
{
color = 3;
glyphname = w;
lastChange = "2014-09-18 19:42:26 +0000";
layers = (
{
background = {
paths = (
{
closed = 1;
nodes = (
"24 445 LINE",
"82 417 LINE",
"216 0 LINE",
"318 0 LINE",
"445 432 LINE",
"405 432 LINE",
"532 0 LINE",
"634 0 LINE",
"768 417 LINE",
"826 445 LINE",
"826 502 LINE",
"613 502 LINE",
"613 445 LINE",
"681 417 LINE",
"571 65 LINE",
"585 65 LINE",
"467 468 LINE",
"370 468 LINE",
"252 67 LINE",
"266 67 LINE",
"155 417 LINE",
"223 445 LINE",
"223 502 LINE",
"24 502 LINE"
);
}
);
};
guideLines = (
{
angle = 17.354;
position = "{165, 417}";
showMeasurement = 1;
},
{
angle = 162.404;
position = "{650, 417}";
showMeasurement = 1;
}
);
layerId = "0225C979-6A3F-4323-834E-E3153ADD1AE8";
name = Regular;
paths = (
{
closed = 1;
nodes = (
"613 502 LINE",
"613 445 LINE",
"681 417 LINE",
"570 67 LINE",
"584 67 LINE",
"466 468 LINE",
"369 468 LINE",
"251 65 LINE",
"265 65 LINE",
"155 417 LINE",
"223 445 LINE",
"223 502 LINE",
"10 502 LINE",
"10 445 LINE",
"68 417 LINE",
"202 0 LINE",
"304 0 LINE",
"431 432 LINE",
"391 432 LINE",
"518 0 LINE",
"620 0 LINE",
"754 417 LINE",
"812 445 LINE",
"812 502 LINE"
);
}
);
width = 822;
},
{
associatedMasterId = "0225C979-6A3F-4323-834E-E3153ADD1AE8";
background = {
paths = (
{
closed = 1;
nodes = (
"621 502 LINE",
"621 460 LINE",
"675 439 LINE",
"557 52 LINE",
"566 52 LINE",
"447 470 LINE",
"370 470 LINE",
"251 49 LINE",
"261 49 LINE",
"142 439 LINE",
"196 460 LINE",
"196 502 LINE",
"24 502 LINE",
"24 460 LINE",
"75 439 LINE",
"213 0 LINE",
"289 0 LINE",
"416 439 LINE",
"395 439 LINE",
"520 0 LINE",
"594 0 LINE",
"731 439 LINE",
"782 460 LINE",
"782 502 LINE"
);
}
);
};
guideLines = (
{
position = "{274, 459}";
}
);
layerId = "D134041D-B37F-4DF3-9C7B-1B8F36FF0BF9";
name = "Regular Jun 18 14, 12:57";
paths = (
{
closed = 1;
nodes = (
"715 502 LINE",
"715 446 LINE",
"783 417 LINE",
"649 51 LINE",
"662 51 LINE",
"522 459 LINE",
"419 459 LINE",
"274 51 LINE",
"290 51 LINE",
"159 417 LINE",
"227 446 LINE",
"227 502 LINE",
"10 502 LINE",
"10 446 LINE",
"68 417 LINE",
"224 0 LINE",
"328 0 LINE",
"474 411 LINE",
"450 411 LINE",
"591 0 LINE",
"701 0 LINE",
"857 417 LINE",
"915 446 LINE",
"915 502 LINE"
);
}
);
width = 925;
},
{
associatedMasterId = "0225C979-6A3F-4323-834E-E3153ADD1AE8";
background = {
paths = (
{
closed = 1;
nodes = (
"722 509 LINE",
"722 423 LINE",
"803 393 LINE",
"710 84 LINE",
"722 84 LINE",
"596 494 LINE",
"440 494 LINE",
"313 84 LINE",
"325 84 LINE",
"231 393 LINE",
"316 423 LINE",
"316 509 LINE",
"8 509 LINE",
"8 423 LINE",
"94 392 LINE",
"219 0 LINE",
"399 0 LINE",
"519 385 LINE",
"497 385 LINE",
"616 0 LINE",
"791 0 LINE",
"917 393 LINE",
"1003 423 LINE",
"1003 509 LINE"
);
}
);
};
guideLines = (
{
angle = 162.713;
position = "{1807, 184}";
showMeasurement = 1;
},
{
angle = 197.619;
position = "{170, 725}";
showMeasurement = 1;
},
{
angle = 197.103;
position = "{1406, 758}";
showMeasurement = 1;
},
{
angle = 162.713;
position = "{1958, 765}";
showMeasurement = 1;
}
);
layerId = "94649E68-E986-4534-8038-4A8650B540F1";
name = "Bold Jun 18 14, 12:58";
paths = (
{
closed = 1;
nodes = (
"722 509 LINE",
"722 423 LINE",
"803 393 LINE",
"710 84 LINE",
"722 84 LINE",
"596 494 LINE",
"440 494 LINE",
"313 84 LINE",
"325 84 LINE",
"231 393 LINE",
"316 423 LINE",
"316 509 LINE",
"8 509 LINE",
"8 423 LINE",
"94 392 LINE",
"219 0 LINE",
"399 0 LINE",
"519 385 LINE",
"497 385 LINE",
"616 0 LINE",
"791 0 LINE",
"917 393 LINE",
"1003 423 LINE",
"1003 509 LINE"
);
}
);
width = 1007;
}
);
unicode = 0077;
},
{
color = 3;
glyphname = x;
lastChange = "2014-09-18 19:42:26 +0000";
layers = (
{
background = {
guideLines = (
{
angle = 134.375;
position = "{505, 357}";
showMeasurement = 1;
}
);
paths = (
{
closed = 1;
nodes = (
"609 0 LINE",
"609 57 LINE",
"551 85 LINE",
"199 417 LINE",
"267 447 LINE",
"267 502 LINE",
"25 502 LINE",
"25 447 LINE",
"83 418 LINE",
"436 85 LINE",
"368 57 LINE",
"368 0 LINE"
);
},
{
closed = 1;
nodes = (
"553 418 LINE",
"611 447 LINE",
"611 502 LINE",
"390 502 LINE",
"390 447 LINE",
"458 417 LINE",
"318 283 LINE",
"366 240 LINE"
);
},
{
closed = 1;
nodes = (
"253 0 LINE",
"253 57 LINE",
"185 85 LINE",
"320 216 LINE",
"272 262 LINE",
"85 85 LINE",
"27 57 LINE",
"27 0 LINE"
);
}
);
};
guideLines = (
{
angle = 46.8368;
position = "{179, 250}";
showMeasurement = 1;
},
{
angle = 133.274;
position = "{124, 155}";
showMeasurement = 1;
}
);
layerId = "0225C979-6A3F-4323-834E-E3153ADD1AE8";
name = Regular;
paths = (
{
closed = 1;
nodes = (
"25 502 LINE",
"25 445 LINE",
"83 417 LINE",
"437 85 LINE",
"369 55 LINE",
"369 0 LINE",
"611 0 LINE",
"611 55 LINE",
"551 85 LINE",
"198 417 LINE",
"266 445 LINE",
"266 502 LINE"
);
},
{
closed = 1;
nodes = (
"85 85 LINE",
"25 55 LINE",
"25 0 LINE",
"253 0 LINE",
"253 55 LINE",
"185 85 LINE",
"319 216 LINE",
"272 260 LINE"
);
},
{
closed = 1;
nodes = (
"385 502 LINE",
"385 445 LINE",
"453 417 LINE",
"317 286 LINE",
"363 241 LINE",
"553 417 LINE",
"611 445 LINE",
"611 502 LINE"
);
}
);
width = 636;
}
);
unicode = 0078;
},
{
color = 3;
glyphname = y;
lastChange = "2014-09-18 19:42:26 +0000";
layers = (
{
background = {
paths = (
{
closed = 1;
nodes = (
"389 502 LINE",
"389 446 LINE",
"470 419 LINE",
"301 38 LINE",
"354 38 LINE",
"184 419 LINE",
"265 446 LINE",
"265 502 LINE",
"10 502 LINE",
"10 446 LINE",
"92 418 LINE",
"305 -49 LINE",
"285 9 LINE",
"220 -138 OFFCURVE",
"194 -153 OFFCURVE",
"124 -153 CURVE SMOOTH",
"101 -153 OFFCURVE",
"76 -152 OFFCURVE",
"51 -150 CURVE",
"51 -224 LINE",
"228 -224 OFFCURVE",
"270 -195 OFFCURVE",
"324 -75 CURVE SMOOTH",
"545 418 LINE",
"627 446 LINE",
"627 502 LINE"
);
}
);
};
guideLines = (
{
angle = 90;
position = "{10, 976}";
},
{
angle = 90;
position = "{92, -320}";
},
{
angle = 90;
position = "{51, 976}";
},
{
angle = 246.079;
position = "{470, 419}";
}
);
layerId = "0225C979-6A3F-4323-834E-E3153ADD1AE8";
leftMetricsKey = "=v";
rightMetricsKey = "=v";
name = Regular;
paths = (
{
closed = 1;
nodes = (
"389 502 LINE",
"389 446 LINE",
"470 419 LINE",
"303 38 LINE",
"354 38 LINE",
"184 419 LINE",
"265 446 LINE",
"265 502 LINE",
"10 502 LINE",
"10 446 LINE",
"92 418 LINE",
"304 -45 LINE",
"294 22 LINE",
"223 -138 OFFCURVE",
"197 -153 OFFCURVE",
"124 -153 CURVE SMOOTH",
"101 -153 OFFCURVE",
"76 -152 OFFCURVE",
"51 -150 CURVE",
"51 -224 LINE",
"71 -224 LINE SMOOTH",
"219 -224 OFFCURVE",
"275 -185 OFFCURVE",
"324 -75 CURVE SMOOTH",
"545 418 LINE",
"627 446 LINE",
"627 502 LINE"
);
}
);
width = 637;
},
{
associatedMasterId = "0225C979-6A3F-4323-834E-E3153ADD1AE8";
background = {
guideLines = (
{
angle = 246.501;
position = "{630, 368}";
},
{
angle = 248.02;
position = "{481, 383}";
}
);
paths = (
{
closed = 1;
nodes = (
"698 510 LINE",
"421 510 LINE",
"421 407 LINE",
"481 383 LINE",
"347 51 LINE",
"427 51 LINE",
"291 383 LINE",
"351 407 LINE",
"351 510 LINE",
"10 510 LINE",
"10 397 LINE",
"78 368 LINE",
"238 0 LINE",
"470 0 LINE",
"630 368 LINE",
"698 397 LINE"
);
}
);
};
guideLines = (
{
angle = 246.501;
position = "{630, 368}";
},
{
angle = 248.02;
position = "{307, 24}";
}
);
layerId = "9CB33D4F-0910-4CBD-A2AB-26EE0ED0E720";
name = "Bold Jun 16 14, 22:10";
paths = (
{
closed = 1;
nodes = (
"421 510 LINE",
"421 407 LINE",
"481 383 LINE",
"347 51 LINE",
"427 51 LINE",
"291 383 LINE",
"351 407 LINE",
"351 510 LINE",
"10 510 LINE",
"10 397 LINE",
"78 368 LINE",
"291 -122 LINE",
"307 24 LINE",
"264 -73 OFFCURVE",
"250 -80 OFFCURVE",
"168 -80 CURVE SMOOTH",
"143 -80 OFFCURVE",
"99 -78 OFFCURVE",
"58 -74 CURVE",
"58 -224 LINE",
"165 -224 LINE SMOOTH",
"327 -223 OFFCURVE",
"387 -190 OFFCURVE",
"445 -58 CURVE SMOOTH",
"630 368 LINE",
"698 397 LINE",
"698 510 LINE"
);
}
);
width = 707;
}
);
leftMetricsKey = v;
rightMetricsKey = v;
unicode = 0079;
},
{
color = 3;
glyphname = z;
lastChange = "2014-09-18 19:42:26 +0000";
layers = (
{
background = {
paths = (
{
closed = 1;
nodes = (
"53 502 LINE",
"53 347 LINE",
"105 347 LINE",
"126 432 LINE",
"431 432 LINE",
"431 442 LINE",
"50 77 LINE",
"50 0 LINE",
"533 0 LINE",
"533 155 LINE",
"481 155 LINE",
"462 70 LINE",
"150 70 LINE",
"150 65 LINE",
"526 425 LINE",
"526 502 LINE"
);
}
);
};
layerId = "0225C979-6A3F-4323-834E-E3153ADD1AE8";
name = Regular;
paths = (
{
closed = 1;
nodes = (
"53 502 LINE",
"53 347 LINE",
"105 347 LINE",
"126 432 LINE",
"431 432 LINE",
"431 442 LINE",
"50 77 LINE",
"50 0 LINE",
"533 0 LINE",
"533 155 LINE",
"481 155 LINE",
"462 70 LINE",
"145 70 LINE",
"145 60 LINE",
"526 425 LINE",
"526 502 LINE"
);
}
);
width = 583;
}
);
unicode = 007A;
},
{
color = 0;
export = 0;
glyphname = ae;
lastChange = "2014-09-18 19:42:26 +0000";
layers = (
{
background = {
paths = (
{
closed = 1;
nodes = (
"618 523 OFFCURVE",
"556 494 OFFCURVE",
"519 442 CURVE",
"501 494 OFFCURVE",
"446 523 OFFCURVE",
"300 523 CURVE SMOOTH",
"217 523 OFFCURVE",
"148 517 OFFCURVE",
"78 501 CURVE",
"78 419 LINE",
"139 435 OFFCURVE",
"220 449 OFFCURVE",
"300 449 CURVE SMOOTH",
"421 449 OFFCURVE",
"452 421 OFFCURVE",
"452 327 CURVE SMOOTH",
"452 283 LINE",
"422 297 OFFCURVE",
"368 312 OFFCURVE",
"292 312 CURVE SMOOTH",
"122 312 OFFCURVE",
"47 264 OFFCURVE",
"47 149 CURVE SMOOTH",
"47 30 OFFCURVE",
"116 -15 OFFCURVE",
"246 -15 CURVE SMOOTH",
"355 -15 OFFCURVE",
"432 15 OFFCURVE",
"486 85 CURVE",
"531 13 OFFCURVE",
"611 -15 OFFCURVE",
"724 -15 CURVE SMOOTH",
"783 -15 OFFCURVE",
"854 -7 OFFCURVE",
"916 8 CURVE",
"916 89 LINE",
"851 68 OFFCURVE",
"794 59 OFFCURVE",
"720 59 CURVE SMOOTH",
"593 59 OFFCURVE",
"547 96 OFFCURVE",
"538 226 CURVE",
"947 226 LINE",
"947 242 LINE SMOOTH",
"947 453 OFFCURVE",
"863 523 OFFCURVE",
"717 523 CURVE SMOOTH"
);
},
{
closed = 1;
nodes = (
"343 242 OFFCURVE",
"405 238 OFFCURVE",
"452 226 CURVE",
"452 126 LINE",
"409 87 OFFCURVE",
"354 59 OFFCURVE",
"257 59 CURVE SMOOTH",
"164 59 OFFCURVE",
"136 87 OFFCURVE",
"136 149 CURVE SMOOTH",
"136 212 OFFCURVE",
"171 242 OFFCURVE",
"300 242 CURVE SMOOTH"
);
},
{
closed = 1;
nodes = (
"797 450 OFFCURVE",
"857 409 OFFCURVE",
"857 297 CURVE",
"538 297 LINE",
"545 412 OFFCURVE",
"597 450 OFFCURVE",
"709 450 CURVE SMOOTH"
);
}
);
};
guideLines = (
{
position = "{94, 352}";
},
{
position = "{94, 256}";
}
);
layerId = "0225C979-6A3F-4323-834E-E3153ADD1AE8";
name = Regular;
paths = (
{
closed = 1;
nodes = (
"618 523 OFFCURVE",
"556 494 OFFCURVE",
"519 442 CURVE",
"501 494 OFFCURVE",
"446 523 OFFCURVE",
"300 523 CURVE SMOOTH",
"217 523 OFFCURVE",
"148 517 OFFCURVE",
"78 501 CURVE",
"78 419 LINE",
"139 435 OFFCURVE",
"220 449 OFFCURVE",
"300 449 CURVE SMOOTH",
"421 449 OFFCURVE",
"452 421 OFFCURVE",
"452 327 CURVE SMOOTH",
"452 283 LINE",
"422 297 OFFCURVE",
"368 312 OFFCURVE",
"292 312 CURVE SMOOTH",
"122 312 OFFCURVE",
"47 264 OFFCURVE",
"47 149 CURVE SMOOTH",
"47 30 OFFCURVE",
"116 -15 OFFCURVE",
"246 -15 CURVE SMOOTH",
"355 -15 OFFCURVE",
"432 15 OFFCURVE",
"486 85 CURVE",
"531 13 OFFCURVE",
"611 -15 OFFCURVE",
"724 -15 CURVE SMOOTH",
"783 -15 OFFCURVE",
"854 -7 OFFCURVE",
"916 8 CURVE",
"916 89 LINE",
"851 68 OFFCURVE",
"794 59 OFFCURVE",
"720 59 CURVE SMOOTH",
"593 59 OFFCURVE",
"547 96 OFFCURVE",
"538 226 CURVE",
"947 226 LINE",
"947 242 LINE SMOOTH",
"947 453 OFFCURVE",
"863 523 OFFCURVE",
"717 523 CURVE SMOOTH"
);
},
{
closed = 1;
nodes = (
"343 242 OFFCURVE",
"405 238 OFFCURVE",
"452 226 CURVE",
"452 126 LINE",
"409 87 OFFCURVE",
"354 59 OFFCURVE",
"257 59 CURVE SMOOTH",
"164 59 OFFCURVE",
"136 87 OFFCURVE",
"136 149 CURVE SMOOTH",
"136 212 OFFCURVE",
"171 242 OFFCURVE",
"300 242 CURVE SMOOTH"
);
},
{
closed = 1;
nodes = (
"797 450 OFFCURVE",
"857 409 OFFCURVE",
"857 297 CURVE",
"538 297 LINE",
"545 412 OFFCURVE",
"597 450 OFFCURVE",
"709 450 CURVE SMOOTH"
);
}
);
width = 1006;
}
);
leftMetricsKey = a;
rightMetricsKey = e;
unicode = 00E6;
},
{
color = 0;
export = 0;
glyphname = oe;
lastChange = "2014-09-18 19:42:26 +0000";
layers = (
{
background = {
paths = (
{
closed = 1;
nodes = (
"633 523 OFFCURVE",
"564 492 OFFCURVE",
"512 408 CURVE",
"471 491 OFFCURVE",
"405 523 OFFCURVE",
"303 523 CURVE SMOOTH",
"162 523 OFFCURVE",
"48 454 OFFCURVE",
"48 254 CURVE SMOOTH",
"48 53 OFFCURVE",
"162 -15 OFFCURVE",
"303 -15 CURVE SMOOTH",
"407 -15 OFFCURVE",
"474 21 OFFCURVE",
"512 100 CURVE",
"556 15 OFFCURVE",
"633 -15 OFFCURVE",
"743 -15 CURVE",
"793 -15 OFFCURVE",
"871 -8 OFFCURVE",
"934 8 CURVE",
"934 89 LINE",
"868 68 OFFCURVE",
"812 59 OFFCURVE",
"736 59 CURVE SMOOTH",
"622 63 OFFCURVE",
"569 101 OFFCURVE",
"556 226 CURVE",
"966 226 LINE",
"966 242 LINE SMOOTH",
"966 450 OFFCURVE",
"876 523 OFFCURVE",
"733 523 CURVE SMOOTH"
);
},
{
closed = 1;
nodes = (
"412 450 OFFCURVE",
"467 411 OFFCURVE",
"467 256 CURVE SMOOTH",
"467 102 OFFCURVE",
"412 59 OFFCURVE",
"303 59 CURVE SMOOTH",
"189 59 OFFCURVE",
"137 98 OFFCURVE",
"137 254 CURVE SMOOTH",
"137 411 OFFCURVE",
"189 450 OFFCURVE",
"303 450 CURVE SMOOTH"
);
},
{
closed = 1;
nodes = (
"817 450 OFFCURVE",
"877 406 OFFCURVE",
"877 297 CURVE",
"556 297 LINE",
"567 410 OFFCURVE",
"625 450 OFFCURVE",
"724 450 CURVE SMOOTH"
);
}
);
};
guideLines = (
{
angle = 90;
position = "{1092, 675}";
}
);
layerId = "0225C979-6A3F-4323-834E-E3153ADD1AE8";
name = Regular;
paths = (
{
closed = 1;
nodes = (
"633 523 OFFCURVE",
"564 492 OFFCURVE",
"512 408 CURVE",
"471 491 OFFCURVE",
"405 523 OFFCURVE",
"303 523 CURVE SMOOTH",
"162 523 OFFCURVE",
"48 454 OFFCURVE",
"48 254 CURVE SMOOTH",
"48 53 OFFCURVE",
"162 -15 OFFCURVE",
"303 -15 CURVE SMOOTH",
"407 -15 OFFCURVE",
"474 21 OFFCURVE",
"512 100 CURVE",
"556 15 OFFCURVE",
"633 -15 OFFCURVE",
"743 -15 CURVE",
"793 -15 OFFCURVE",
"871 -8 OFFCURVE",
"934 8 CURVE",
"934 89 LINE",
"868 68 OFFCURVE",
"812 59 OFFCURVE",
"736 59 CURVE SMOOTH",
"622 63 OFFCURVE",
"569 101 OFFCURVE",
"556 226 CURVE",
"966 226 LINE",
"966 242 LINE SMOOTH",
"966 450 OFFCURVE",
"876 523 OFFCURVE",
"733 523 CURVE SMOOTH"
);
},
{
closed = 1;
nodes = (
"412 450 OFFCURVE",
"467 411 OFFCURVE",
"467 256 CURVE SMOOTH",
"467 102 OFFCURVE",
"412 59 OFFCURVE",
"303 59 CURVE SMOOTH",
"189 59 OFFCURVE",
"137 98 OFFCURVE",
"137 254 CURVE SMOOTH",
"137 411 OFFCURVE",
"189 450 OFFCURVE",
"303 450 CURVE SMOOTH"
);
},
{
closed = 1;
nodes = (
"817 450 OFFCURVE",
"877 406 OFFCURVE",
"877 297 CURVE",
"556 297 LINE",
"567 410 OFFCURVE",
"625 450 OFFCURVE",
"724 450 CURVE SMOOTH"
);
}
);
width = 1010;
}
);
leftMetricsKey = o;
rightMetricsKey = e;
unicode = 0153;
},
{
color = 0;
export = 0;
glyphname = f_f;
lastChange = "2014-09-18 19:42:26 +0000";
layers = (
{
background = {
paths = (
{
closed = 1;
nodes = (
"564 731 OFFCURVE",
"509 661 OFFCURVE",
"509 550 CURVE SMOOTH",
"509 509 LINE",
"219 509 LINE",
"219 550 LINE SMOOTH",
"219 646 OFFCURVE",
"260 676 OFFCURVE",
"334 676 CURVE",
"360 590 LINE",
"416 590 OFFCURVE",
"446 620 OFFCURVE",
"446 661 CURVE SMOOTH",
"446 720 OFFCURVE",
"405 731 OFFCURVE",
"346 731 CURVE SMOOTH",
"189 731 OFFCURVE",
"134 661 OFFCURVE",
"134 550 CURVE SMOOTH",
"134 509 LINE",
"30 509 LINE",
"30 438 LINE",
"134 438 LINE",
"134 85 LINE",
"33 55 LINE",
"33 0 LINE",
"319 0 LINE",
"319 55 LINE",
"219 85 LINE",
"219 438 LINE",
"509 438 LINE",
"509 0 LINE",
"720 0 LINE",
"720 55 LINE",
"594 85 LINE",
"594 438 LINE",
"750 438 LINE",
"750 509 LINE",
"594 509 LINE",
"594 550 LINE SMOOTH",
"594 646 OFFCURVE",
"635 676 OFFCURVE",
"706 676 CURVE",
"735 590 LINE",
"791 590 OFFCURVE",
"820 620 OFFCURVE",
"820 661 CURVE SMOOTH",
"820 720 OFFCURVE",
"776 731 OFFCURVE",
"720 731 CURVE SMOOTH"
);
}
);
};
guideLines = (
{
angle = 90;
position = "{1086, 184}";
}
);
layerId = "0225C979-6A3F-4323-834E-E3153ADD1AE8";
name = Regular;
paths = (
{
closed = 1;
nodes = (
"564 731 OFFCURVE",
"509 661 OFFCURVE",
"509 550 CURVE SMOOTH",
"509 509 LINE",
"219 509 LINE",
"219 550 LINE SMOOTH",
"219 646 OFFCURVE",
"260 676 OFFCURVE",
"334 676 CURVE",
"360 590 LINE",
"416 590 OFFCURVE",
"446 620 OFFCURVE",
"446 661 CURVE SMOOTH",
"446 720 OFFCURVE",
"405 731 OFFCURVE",
"346 731 CURVE SMOOTH",
"189 731 OFFCURVE",
"134 661 OFFCURVE",
"134 550 CURVE SMOOTH",
"134 509 LINE",
"30 509 LINE",
"30 438 LINE",
"134 438 LINE",
"134 85 LINE",
"33 55 LINE",
"33 0 LINE",
"319 0 LINE",
"319 55 LINE",
"219 85 LINE",
"219 438 LINE",
"509 438 LINE",
"509 0 LINE",
"720 0 LINE",
"720 55 LINE",
"594 85 LINE",
"594 438 LINE",
"750 438 LINE",
"750 509 LINE",
"594 509 LINE",
"594 550 LINE SMOOTH",
"594 646 OFFCURVE",
"635 676 OFFCURVE",
"706 676 CURVE",
"735 590 LINE",
"791 590 OFFCURVE",
"820 620 OFFCURVE",
"820 661 CURVE SMOOTH",
"820 720 OFFCURVE",
"776 731 OFFCURVE",
"720 731 CURVE SMOOTH"
);
}
);
width = 820;
}
);
leftMetricsKey = f;
rightMetricsKey = f;
},
{
color = 0;
export = 0;
glyphname = f_f_i;
lastChange = "2014-09-18 19:42:26 +0000";
layers = (
{
background = {
paths = (
{
closed = 1;
nodes = (
"617 731 OFFCURVE",
"560 661 OFFCURVE",
"560 550 CURVE SMOOTH",
"560 509 LINE",
"271 509 LINE",
"271 550 LINE SMOOTH",
"271 646 OFFCURVE",
"312 676 OFFCURVE",
"386 676 CURVE",
"412 590 LINE",
"468 590 OFFCURVE",
"497 620 OFFCURVE",
"497 661 CURVE SMOOTH",
"497 720 OFFCURVE",
"456 731 OFFCURVE",
"397 731 CURVE SMOOTH",
"242 731 OFFCURVE",
"185 661 OFFCURVE",
"185 550 CURVE SMOOTH",
"185 509 LINE",
"82 509 LINE",
"82 438 LINE",
"185 438 LINE",
"185 85 LINE",
"85 55 LINE",
"85 0 LINE",
"371 0 LINE",
"371 55 LINE",
"271 85 LINE",
"271 438 LINE",
"560 438 LINE",
"560 0 LINE",
"747 0 LINE",
"747 55 LINE",
"646 85 LINE",
"646 438 LINE",
"936 438 LINE",
"936 0 LINE",
"1118 0 LINE",
"1118 55 LINE",
"1021 85 LINE",
"1021 509 LINE",
"646 509 LINE",
"646 550 LINE SMOOTH",
"646 646 OFFCURVE",
"686 676 OFFCURVE",
"761 676 CURVE",
"787 590 LINE",
"843 590 OFFCURVE",
"873 620 OFFCURVE",
"873 661 CURVE SMOOTH",
"873 720 OFFCURVE",
"832 731 OFFCURVE",
"772 731 CURVE SMOOTH"
);
}
);
};
layerId = "0225C979-6A3F-4323-834E-E3153ADD1AE8";
name = Regular;
paths = (
{
closed = 1;
nodes = (
"617 731 OFFCURVE",
"560 661 OFFCURVE",
"560 550 CURVE SMOOTH",
"560 509 LINE",
"271 509 LINE",
"271 550 LINE SMOOTH",
"271 646 OFFCURVE",
"312 676 OFFCURVE",
"386 676 CURVE",
"412 590 LINE",
"468 590 OFFCURVE",
"497 620 OFFCURVE",
"497 661 CURVE SMOOTH",
"497 720 OFFCURVE",
"456 731 OFFCURVE",
"397 731 CURVE SMOOTH",
"242 731 OFFCURVE",
"185 661 OFFCURVE",
"185 550 CURVE SMOOTH",
"185 509 LINE",
"82 509 LINE",
"82 438 LINE",
"185 438 LINE",
"185 85 LINE",
"85 55 LINE",
"85 0 LINE",
"371 0 LINE",
"371 55 LINE",
"271 85 LINE",
"271 438 LINE",
"560 438 LINE",
"560 0 LINE",
"747 0 LINE",
"747 55 LINE",
"646 85 LINE",
"646 438 LINE",
"936 438 LINE",
"936 0 LINE",
"1118 0 LINE",
"1118 55 LINE",
"1021 85 LINE",
"1021 509 LINE",
"646 509 LINE",
"646 550 LINE SMOOTH",
"646 646 OFFCURVE",
"686 676 OFFCURVE",
"761 676 CURVE",
"787 590 LINE",
"843 590 OFFCURVE",
"873 620 OFFCURVE",
"873 661 CURVE SMOOTH",
"873 720 OFFCURVE",
"832 731 OFFCURVE",
"772 731 CURVE SMOOTH"
);
}
);
width = 1158;
}
);
leftMetricsKey = f;
rightMetricsKey = i;
},
{
color = 0;
export = 0;
glyphname = f_i;
lastChange = "2014-09-18 19:42:26 +0000";
layers = (
{
background = {
paths = (
{
closed = 1;
nodes = (
"197 731 OFFCURVE",
"141 661 OFFCURVE",
"141 550 CURVE SMOOTH",
"141 509 LINE",
"37 509 LINE",
"37 438 LINE",
"141 438 LINE",
"141 85 LINE",
"41 55 LINE",
"41 0 LINE",
"327 0 LINE",
"327 55 LINE",
"226 85 LINE",
"226 438 LINE",
"517 438 LINE",
"517 0 LINE",
"702 0 LINE",
"702 55 LINE",
"601 85 LINE",
"601 509 LINE",
"226 509 LINE",
"226 550 LINE SMOOTH",
"226 646 OFFCURVE",
"267 676 OFFCURVE",
"342 676 CURVE",
"368 590 LINE",
"423 590 OFFCURVE",
"453 620 OFFCURVE",
"453 661 CURVE SMOOTH",
"453 720 OFFCURVE",
"412 731 OFFCURVE",
"352 731 CURVE SMOOTH"
);
}
);
};
layerId = "0225C979-6A3F-4323-834E-E3153ADD1AE8";
name = Regular;
paths = (
{
closed = 1;
nodes = (
"197 731 OFFCURVE",
"141 661 OFFCURVE",
"141 550 CURVE SMOOTH",
"141 509 LINE",
"37 509 LINE",
"37 438 LINE",
"141 438 LINE",
"141 85 LINE",
"41 55 LINE",
"41 0 LINE",
"327 0 LINE",
"327 55 LINE",
"226 85 LINE",
"226 438 LINE",
"517 438 LINE",
"517 0 LINE",
"702 0 LINE",
"702 55 LINE",
"601 85 LINE",
"601 509 LINE",
"226 509 LINE",
"226 550 LINE SMOOTH",
"226 646 OFFCURVE",
"267 676 OFFCURVE",
"342 676 CURVE",
"368 590 LINE",
"423 590 OFFCURVE",
"453 620 OFFCURVE",
"453 661 CURVE SMOOTH",
"453 720 OFFCURVE",
"412 731 OFFCURVE",
"352 731 CURVE SMOOTH"
);
}
);
width = 743;
}
);
leftMetricsKey = f;
rightMetricsKey = i;
},
{
color = 3;
glyphname = ordfeminine;
lastChange = "2014-09-18 19:42:26 +0000";
layers = (
{
anchors = (
{
name = ogonek;
position = "{453, 10}";
},
{
name = top;
position = "{262, 484}";
}
);
background = {
paths = (
{
closed = 1;
nodes = (
"214 686 OFFCURVE",
"151 680 OFFCURVE",
"80 664 CURVE",
"80 594 LINE",
"136 609 OFFCURVE",
"214 623 OFFCURVE",
"299 623 CURVE SMOOTH",
"421 623 OFFCURVE",
"448 594 OFFCURVE",
"448 501 CURVE SMOOTH",
"448 468 LINE",
"391 494 OFFCURVE",
"344 494 OFFCURVE",
"291 494 CURVE SMOOTH",
"120 494 OFFCURVE",
"57 453 OFFCURVE",
"57 342 CURVE SMOOTH",
"57 226 OFFCURVE",
"136 189 OFFCURVE",
"258 189 CURVE SMOOTH",
"344 189 OFFCURVE",
"407 212 OFFCURVE",
"454 267 CURVE",
"485 204 LINE",
"625 204 LINE",
"625 256 LINE",
"525 283 LINE",
"525 531 LINE SMOOTH",
"525 639 OFFCURVE",
"496 686 OFFCURVE",
"299 686 CURVE SMOOTH"
);
},
{
closed = 1;
nodes = (
"344 431 OFFCURVE",
"391 431 OFFCURVE",
"448 419 CURVE",
"448 319 LINE",
"391 267 OFFCURVE",
"344 256 OFFCURVE",
"258 256 CURVE SMOOTH",
"165 256 OFFCURVE",
"136 283 OFFCURVE",
"136 342 CURVE SMOOTH",
"136 405 OFFCURVE",
"180 431 OFFCURVE",
"291 431 CURVE SMOOTH"
);
}
);
};
layerId = "0225C979-6A3F-4323-834E-E3153ADD1AE8";
name = Regular;
paths = (
{
closed = 1;
nodes = (
"186 692 OFFCURVE",
"123 682 OFFCURVE",
"65 669 CURVE",
"65 598 LINE",
"126 613 OFFCURVE",
"185 621 OFFCURVE",
"249 621 CURVE SMOOTH",
"345 621 OFFCURVE",
"368 592 OFFCURVE",
"368 509 CURVE SMOOTH",
"368 473 LINE",
"345 486 OFFCURVE",
"303 500 OFFCURVE",
"245 500 CURVE SMOOTH",
"102 500 OFFCURVE",
"40 452 OFFCURVE",
"40 341 CURVE SMOOTH",
"40 235 OFFCURVE",
"95 192 OFFCURVE",
"205 192 CURVE SMOOTH",
"280 192 OFFCURVE",
"338 221 OFFCURVE",
"390 286 CURVE",
"368 286 LINE",
"398 201 LINE",
"510 201 LINE",
"510 255 LINE",
"450 284 LINE",
"450 526 LINE SMOOTH",
"450 635 OFFCURVE",
"428 692 OFFCURVE",
"253 692 CURVE SMOOTH"
);
},
{
closed = 1;
nodes = (
"288 432 OFFCURVE",
"332 429 OFFCURVE",
"368 418 CURVE",
"368 323 LINE",
"328 286 OFFCURVE",
"277 262 OFFCURVE",
"222 262 CURVE SMOOTH",
"148 262 OFFCURVE",
"126 288 OFFCURVE",
"126 347 CURVE SMOOTH",
"126 403 OFFCURVE",
"153 432 OFFCURVE",
"254 432 CURVE SMOOTH"
);
}
);
width = 539;
}
);
unicode = 00AA;
},
{
color = 3;
glyphname = ordmasculine;
lastChange = "2014-09-18 19:42:26 +0000";
layers = (
{
anchors = (
{
name = top;
position = "{262, 484}";
}
);
background = {
paths = (
{
closed = 1;
nodes = (
"163 694 OFFCURVE",
"55 631 OFFCURVE",
"55 438 CURVE SMOOTH",
"55 256 OFFCURVE",
"163 189 OFFCURVE",
"297 189 CURVE SMOOTH",
"431 189 OFFCURVE",
"538 256 OFFCURVE",
"538 438 CURVE SMOOTH",
"538 631 OFFCURVE",
"431 694 OFFCURVE",
"297 694 CURVE SMOOTH"
);
},
{
closed = 1;
nodes = (
"412 631 OFFCURVE",
"460 586 OFFCURVE",
"460 438 CURVE SMOOTH",
"460 297 OFFCURVE",
"412 256 OFFCURVE",
"297 256 CURVE SMOOTH",
"185 256 OFFCURVE",
"134 297 OFFCURVE",
"134 438 CURVE SMOOTH",
"134 586 OFFCURVE",
"185 631 OFFCURVE",
"297 631 CURVE SMOOTH"
);
}
);
};
layerId = "0225C979-6A3F-4323-834E-E3153ADD1AE8";
name = Regular;
paths = (
{
closed = 1;
nodes = (
"134 692 OFFCURVE",
"34 625 OFFCURVE",
"34 440 CURVE SMOOTH",
"34 254 OFFCURVE",
"133 188 OFFCURVE",
"260 188 CURVE SMOOTH",
"385 188 OFFCURVE",
"484 254 OFFCURVE",
"484 440 CURVE SMOOTH",
"484 625 OFFCURVE",
"384 692 OFFCURVE",
"260 692 CURVE SMOOTH"
);
},
{
closed = 1;
nodes = (
"355 621 OFFCURVE",
"398 582 OFFCURVE",
"398 440 CURVE SMOOTH",
"398 298 OFFCURVE",
"355 258 OFFCURVE",
"260 258 CURVE SMOOTH",
"163 258 OFFCURVE",
"121 298 OFFCURVE",
"121 440 CURVE SMOOTH",
"121 582 OFFCURVE",
"163 621 OFFCURVE",
"260 621 CURVE SMOOTH"
);
}
);
width = 518;
}
);
unicode = 00BA;
},
{
color = 3;
glyphname = Delta;
lastChange = "2014-09-18 19:42:26 +0000";
layers = (
{
background = {
paths = (
{
closed = 1;
nodes = (
"270 680 LINE",
"10 55 LINE",
"10 0 LINE",
"652 0 LINE",
"652 55 LINE",
"385 680 LINE"
);
},
{
closed = 1;
nodes = (
"563 52 LINE",
"565 71 LINE",
"72 71 LINE",
"89 52 LINE",
"335 643 LINE",
"310 643 LINE"
);
}
);
};
guideLines = (
{
position = "{189, 64}";
}
);
layerId = "0225C979-6A3F-4323-834E-E3153ADD1AE8";
name = Regular;
paths = (
{
closed = 1;
nodes = (
"270 680 LINE",
"10 55 LINE",
"10 0 LINE",
"652 0 LINE",
"652 55 LINE",
"385 680 LINE"
);
},
{
closed = 1;
nodes = (
"563 52 LINE",
"565 71 LINE",
"72 71 LINE",
"89 52 LINE",
"335 643 LINE",
"310 643 LINE"
);
}
);
width = 662;
}
);
unicode = 0394;
},
{
color = 3;
glyphname = Omega;
lastChange = "2014-09-18 19:42:26 +0000";
layers = (
{
background = {
paths = (
{
closed = 1;
nodes = (
"182 692 OFFCURVE",
"72 593 OFFCURVE",
"72 421 CURVE SMOOTH",
"72 272 OFFCURVE",
"154 183 OFFCURVE",
"266 155 CURVE",
"266 71 LINE",
"71 71 LINE",
"94 51 LINE",
"75 156 LINE",
"22 156 LINE",
"22 0 LINE",
"321 0 LINE",
"321 210 LINE",
"205 232 OFFCURVE",
"162 312 OFFCURVE",
"162 419 CURVE SMOOTH",
"162 559 OFFCURVE",
"237 618 OFFCURVE",
"371 618 CURVE SMOOTH",
"505 618 OFFCURVE",
"580 559 OFFCURVE",
"580 419 CURVE SMOOTH",
"580 312 OFFCURVE",
"537 232 OFFCURVE",
"421 210 CURVE",
"421 0 LINE",
"720 0 LINE",
"720 156 LINE",
"667 156 LINE",
"648 51 LINE",
"671 71 LINE",
"476 71 LINE",
"476 155 LINE",
"588 183 OFFCURVE",
"670 272 OFFCURVE",
"670 421 CURVE SMOOTH",
"670 593 OFFCURVE",
"561 692 OFFCURVE",
"371 692 CURVE SMOOTH"
);
}
);
};
layerId = "0225C979-6A3F-4323-834E-E3153ADD1AE8";
name = Regular;
paths = (
{
closed = 1;
nodes = (
"182 692 OFFCURVE",
"72 593 OFFCURVE",
"72 421 CURVE SMOOTH",
"72 278 OFFCURVE",
"146 192 OFFCURVE",
"245 162 CURVE",
"245 71 LINE",
"71 71 LINE",
"94 51 LINE",
"75 156 LINE",
"22 156 LINE",
"22 0 LINE",
"321 0 LINE",
"321 210 LINE",
"205 232 OFFCURVE",
"162 312 OFFCURVE",
"162 419 CURVE SMOOTH",
"162 559 OFFCURVE",
"237 618 OFFCURVE",
"371 618 CURVE SMOOTH",
"505 618 OFFCURVE",
"580 559 OFFCURVE",
"580 419 CURVE SMOOTH",
"580 312 OFFCURVE",
"537 232 OFFCURVE",
"421 210 CURVE",
"421 0 LINE",
"720 0 LINE",
"720 156 LINE",
"667 156 LINE",
"648 51 LINE",
"671 71 LINE",
"497 71 LINE",
"497 162 LINE",
"596 192 OFFCURVE",
"670 278 OFFCURVE",
"670 421 CURVE SMOOTH",
"670 593 OFFCURVE",
"561 692 OFFCURVE",
"371 692 CURVE SMOOTH"
);
}
);
width = 742;
}
);
unicode = 03A9;
},
{
color = 3;
glyphname = mu;
lastChange = "2014-09-18 19:42:26 +0000";
layers = (
{
anchors = (
{
name = ogonek;
position = "{497, 10}";
},
{
name = top;
position = "{311, 509}";
}
);
background = {
paths = (
{
closed = 1;
nodes = (
"454 509 LINE",
"454 100 LINE",
"383 74 OFFCURVE",
"338 59 OFFCURVE",
"285 59 CURVE SMOOTH",
"212 59 OFFCURVE",
"172 88 OFFCURVE",
"172 171 CURVE SMOOTH",
"172 509 LINE",
"86 509 LINE",
"86 -212 LINE",
"172 -212 LINE",
"172 1 LINE",
"196 -10 OFFCURVE",
"224 -14 OFFCURVE",
"262 -14 CURVE SMOOTH",
"318 -14 OFFCURVE",
"385 0 OFFCURVE",
"469 41 CURVE",
"498 0 LINE",
"640 0 LINE",
"640 54 LINE",
"540 84 LINE",
"540 509 LINE"
);
}
);
};
guideLines = (
{
angle = 90;
position = "{449, 419}";
}
);
layerId = "0225C979-6A3F-4323-834E-E3153ADD1AE8";
name = Regular;
paths = (
{
closed = 1;
nodes = (
"449 502 LINE",
"449 100 LINE",
"379 75 OFFCURVE",
"334 59 OFFCURVE",
"283 59 CURVE SMOOTH",
"212 59 OFFCURVE",
"171 90 OFFCURVE",
"171 171 CURVE SMOOTH",
"171 502 LINE",
"87 502 LINE",
"87 -224 LINE",
"173 -224 LINE",
"173 1 LINE",
"197 -10 OFFCURVE",
"225 -14 OFFCURVE",
"256 -14 CURVE",
"330 -14 OFFCURVE",
"399 5 OFFCURVE",
"492 56 CURVE",
"454 56 LINE",
"490 0 LINE",
"601 0 LINE",
"601 57 LINE",
"533 85 LINE",
"533 502 LINE"
);
}
);
width = 620;
}
);
unicode = 03BC;
},
{
color = 3;
glyphname = pi;
lastChange = "2014-09-18 19:42:26 +0000";
layers = (
{
guideLines = (
{
position = "{997, 944}";
},
{
angle = 245.41;
position = "{632, 113}";
}
);
layerId = "0225C979-6A3F-4323-834E-E3153ADD1AE8";
leftMetricsKey = "=n";
name = Regular;
paths = (
{
closed = 1;
nodes = (
"46 502 LINE",
"46 446 LINE",
"114 417 LINE",
"114 0 LINE",
"198 0 LINE",
"198 432 LINE",
"454 432 LINE",
"454 150 LINE SMOOTH",
"454 35 OFFCURVE",
"512 -8 OFFCURVE",
"604 -8 CURVE SMOOTH",
"667 -8 OFFCURVE",
"693 13 OFFCURVE",
"693 57 CURVE SMOOTH",
"693 94 OFFCURVE",
"675 113 OFFCURVE",
"622 113 CURVE",
"600 64 LINE",
"560 64 OFFCURVE",
"538 86 OFFCURVE",
"538 134 CURVE SMOOTH",
"538 432 LINE",
"668 432 LINE",
"668 502 LINE"
);
}
);
width = 718;
}
);
leftMetricsKey = n;
unicode = 03C0;
},
{
color = 3;
glyphname = "a-deva";
lastChange = "2014-10-24 18:45:22 +0000";
layers = (
{
anchors = (
{
name = bottom;
position = "{657, 0}";
},
{
name = nukta;
position = "{45, 0}";
},
{
name = top;
position = "{657, 680}";
}
);
background = {
paths = (
{
closed = 1;
nodes = (
"184 688 OFFCURVE",
"132 681 OFFCURVE",
"88 668 CURVE",
"88 591 LINE",
"131 602 OFFCURVE",
"184 608 OFFCURVE",
"233 608 CURVE SMOOTH",
"327 608 OFFCURVE",
"340 588 OFFCURVE",
"340 518 CURVE SMOOTH",
"340 443 OFFCURVE",
"316 422 OFFCURVE",
"246 422 CURVE SMOOTH",
"137 422 LINE",
"137 346 LINE",
"246 346 LINE SMOOTH",
"324 346 OFFCURVE",
"351 330 OFFCURVE",
"351 243 CURVE SMOOTH",
"351 160 OFFCURVE",
"315 134 OFFCURVE",
"201 134 CURVE SMOOTH",
"134 134 OFFCURVE",
"93 146 OFFCURVE",
"45 165 CURVE",
"45 87 LINE",
"83 71 OFFCURVE",
"143 54 OFFCURVE",
"223 54 CURVE SMOOTH",
"365 54 OFFCURVE",
"425 107 OFFCURVE",
"425 214 CURVE SMOOTH",
"425 307 OFFCURVE",
"384 365 OFFCURVE",
"312 398 CURVE",
"303 363 LINE",
"364 380 OFFCURVE",
"414 430 OFFCURVE",
"414 526 CURVE SMOOTH",
"414 638 OFFCURVE",
"369 688 OFFCURVE",
"233 688 CURVE SMOOTH"
);
},
{
closed = 1;
nodes = (
"622 616 LINE",
"622 0 LINE",
"692 0 LINE",
"692 616 LINE"
);
},
{
closed = 1;
nodes = (
"486 680 LINE",
"486 606 LINE",
"803 606 LINE",
"803 680 LINE"
);
},
{
closed = 1;
nodes = (
"632 386 LINE",
"582 369 OFFCURVE",
"544 364 OFFCURVE",
"504 364 CURVE SMOOTH",
"439 364 OFFCURVE",
"393 377 OFFCURVE",
"333 410 CURVE",
"333 361 LINE",
"394 305 OFFCURVE",
"443 288 OFFCURVE",
"513 288 CURVE SMOOTH",
"550 288 OFFCURVE",
"587 292 OFFCURVE",
"632 304 CURVE"
);
}
);
};
layerId = "0225C979-6A3F-4323-834E-E3153ADD1AE8";
name = Regular;
paths = (
{
closed = 1;
nodes = (
"184 688 OFFCURVE",
"132 682 OFFCURVE",
"88 670 CURVE",
"88 591 LINE",
"131 602 OFFCURVE",
"184 608 OFFCURVE",
"233 608 CURVE SMOOTH",
"327 608 OFFCURVE",
"340 588 OFFCURVE",
"340 518 CURVE SMOOTH",
"340 443 OFFCURVE",
"316 422 OFFCURVE",
"246 422 CURVE SMOOTH",
"137 422 LINE",
"137 346 LINE",
"246 346 LINE SMOOTH",
"324 346 OFFCURVE",
"351 330 OFFCURVE",
"351 243 CURVE SMOOTH",
"351 160 OFFCURVE",
"315 134 OFFCURVE",
"201 134 CURVE SMOOTH",
"134 134 OFFCURVE",
"93 146 OFFCURVE",
"45 165 CURVE",
"45 85 LINE",
"83 69 OFFCURVE",
"143 54 OFFCURVE",
"223 54 CURVE SMOOTH",
"365 54 OFFCURVE",
"425 107 OFFCURVE",
"425 214 CURVE SMOOTH",
"425 307 OFFCURVE",
"384 365 OFFCURVE",
"312 398 CURVE",
"303 363 LINE",
"364 380 OFFCURVE",
"414 430 OFFCURVE",
"414 526 CURVE SMOOTH",
"414 638 OFFCURVE",
"369 688 OFFCURVE",
"233 688 CURVE SMOOTH"
);
},
{
closed = 1;
nodes = (
"622 616 LINE",
"622 0 LINE",
"692 0 LINE",
"692 616 LINE"
);
},
{
closed = 1;
nodes = (
"486 680 LINE",
"486 606 LINE",
"803 606 LINE",
"803 680 LINE"
);
},
{
closed = 1;
nodes = (
"632 386 LINE",
"582 369 OFFCURVE",
"544 364 OFFCURVE",
"504 364 CURVE SMOOTH",
"439 364 OFFCURVE",
"393 377 OFFCURVE",
"333 410 CURVE",
"333 361 LINE",
"394 305 OFFCURVE",
"443 288 OFFCURVE",
"513 288 CURVE SMOOTH",
"550 288 OFFCURVE",
"587 292 OFFCURVE",
"632 304 CURVE"
);
}
);
width = 788;
},
{
associatedMasterId = "0225C979-6A3F-4323-834E-E3153ADD1AE8";
background = {
paths = (
{
closed = 1;
nodes = (
"342 -8 OFFCURVE",
"395 44 OFFCURVE",
"395 155 CURVE SMOOTH",
"395 250 OFFCURVE",
"357 302 OFFCURVE",
"291 327 CURVE",
"291 294 LINE",
"357 323 OFFCURVE",
"395 378 OFFCURVE",
"395 471 CURVE SMOOTH",
"395 587 OFFCURVE",
"345 636 OFFCURVE",
"219 636 CURVE SMOOTH",
"154 636 OFFCURVE",
"104 624 OFFCURVE",
"73 612 CURVE",
"73 538 LINE",
"115 549 OFFCURVE",
"153 556 OFFCURVE",
"206 556 CURVE SMOOTH",
"297 556 OFFCURVE",
"319 535 OFFCURVE",
"319 445 CURVE SMOOTH",
"319 361 OFFCURVE",
"290 343 OFFCURVE",
"220 343 CURVE SMOOTH",
"131 343 LINE",
"131 267 LINE",
"210 267 LINE SMOOTH",
"293 267 OFFCURVE",
"319 243 OFFCURVE",
"319 164 CURVE SMOOTH",
"319 92 OFFCURVE",
"297 72 OFFCURVE",
"220 72 CURVE SMOOTH",
"178 72 OFFCURVE",
"127 78 OFFCURVE",
"87 90 CURVE",
"87 12 LINE",
"129 -1 OFFCURVE",
"177 -8 OFFCURVE",
"221 -8 CURVE SMOOTH"
);
},
{
closed = 1;
nodes = (
"575 562 LINE",
"575 0 LINE",
"645 0 LINE",
"645 562 LINE"
);
},
{
closed = 1;
nodes = (
"451 628 LINE",
"451 554 LINE",
"746 554 LINE",
"746 628 LINE"
);
},
{
closed = 1;
nodes = (
"546 287 OFFCURVE",
"509 281 OFFCURVE",
"468 281 CURVE SMOOTH",
"411 281 OFFCURVE",
"367 293 OFFCURVE",
"311 322 CURVE",
"311 280 LINE",
"368 227 OFFCURVE",
"414 211 OFFCURVE",
"478 211 CURVE SMOOTH",
"514 211 OFFCURVE",
"551 216 OFFCURVE",
"593 228 CURVE",
"593 304 LINE"
);
}
);
};
guideLines = (
{
angle = 90;
position = "{85, 538}";
},
{
angle = 90;
position = "{75, 538}";
}
);
layerId = "276E6A47-C375-4FE5-AB6D-D86D72EA8258";
name = "Regular Oct 1 14, 10:49";
paths = (
{
closed = 1;
nodes = (
"176 636 OFFCURVE",
"127 629 OFFCURVE",
"87 618 CURVE",
"87 542 LINE",
"132 552 OFFCURVE",
"180 556 OFFCURVE",
"215 556 CURVE SMOOTH",
"297 556 OFFCURVE",
"319 534 OFFCURVE",
"319 463 CURVE SMOOTH",
"319 385 OFFCURVE",
"292 361 OFFCURVE",
"210 361 CURVE SMOOTH",
"131 361 LINE",
"131 285 LINE",
"220 285 LINE SMOOTH",
"293 285 OFFCURVE",
"319 267 OFFCURVE",
"319 178 CURVE SMOOTH",
"319 93 OFFCURVE",
"295 72 OFFCURVE",
"205 72 CURVE SMOOTH",
"153 72 OFFCURVE",
"115 79 OFFCURVE",
"73 90 CURVE",
"73 16 LINE",
"104 4 OFFCURVE",
"155 -8 OFFCURVE",
"218 -8 CURVE SMOOTH",
"344 -8 OFFCURVE",
"395 41 OFFCURVE",
"395 154 CURVE SMOOTH",
"395 251 OFFCURVE",
"358 304 OFFCURVE",
"291 334 CURVE",
"291 301 LINE",
"357 326 OFFCURVE",
"395 378 OFFCURVE",
"395 473 CURVE SMOOTH",
"395 584 OFFCURVE",
"342 636 OFFCURVE",
"221 636 CURVE SMOOTH"
);
},
{
closed = 1;
nodes = (
"575 562 LINE",
"575 0 LINE",
"645 0 LINE",
"645 562 LINE"
);
},
{
closed = 1;
nodes = (
"451 628 LINE",
"451 554 LINE",
"746 554 LINE",
"746 628 LINE"
);
},
{
closed = 1;
nodes = (
"546 287 OFFCURVE",
"509 281 OFFCURVE",
"468 281 CURVE SMOOTH",
"411 281 OFFCURVE",
"367 293 OFFCURVE",
"311 322 CURVE",
"311 280 LINE",
"368 227 OFFCURVE",
"414 211 OFFCURVE",
"478 211 CURVE SMOOTH",
"514 211 OFFCURVE",
"551 216 OFFCURVE",
"593 228 CURVE",
"593 304 LINE"
);
}
);
width = 731;
}
);
rightMetricsKey = "pa-deva";
unicode = 0905;
},
{
color = 3;
glyphname = "i-deva";
lastChange = "2014-10-25 03:06:37 +0000";
layers = (
{
anchors = (
{
name = bottom;
position = "{276, 0}";
},
{
name = top;
position = "{420, 680}";
}
);
background = {
anchors = (
{
name = top;
position = "{419, 680}";
}
);
guideLines = (
{
angle = 90;
position = "{284, -28}";
},
{
angle = 90;
position = "{52, 360}";
}
);
paths = (
{
closed = 0;
nodes = (
"10 606 LINE"
);
},
{
closed = 1;
nodes = (
"556 606 LINE",
"556 680 LINE",
"10 680 LINE",
"10 606 LINE"
);
},
{
closed = 1;
nodes = (
"233 72 OFFCURVE",
"189 76 OFFCURVE",
"157 85 CURVE",
"87 80 LINE",
"87 -107 LINE",
"157 -107 LINE",
"157 37 LINE",
"183 61 LINE",
"136 166 LINE",
"82 166 OFFCURVE",
"62 145 OFFCURVE",
"62 104 CURVE SMOOTH",
"62 7 OFFCURVE",
"179 -8 OFFCURVE",
"284 -8 CURVE SMOOTH",
"429 -8 OFFCURVE",
"494 51 OFFCURVE",
"494 167 CURVE SMOOTH",
"494 246 OFFCURVE",
"467 308 OFFCURVE",
"371 308 CURVE SMOOTH",
"312 308 OFFCURVE",
"252 284 OFFCURVE",
"199 284 CURVE SMOOTH",
"155 284 OFFCURVE",
"136 301 OFFCURVE",
"136 355 CURVE SMOOTH",
"136 408 OFFCURVE",
"155 425 OFFCURVE",
"218 425 CURVE SMOOTH",
"454 425 LINE",
"454 616 LINE",
"384 616 LINE",
"384 484 LINE",
"404 501 LINE",
"210 501 LINE SMOOTH",
"104 501 OFFCURVE",
"62 452 OFFCURVE",
"62 360 CURVE SMOOTH",
"62 260 OFFCURVE",
"111 204 OFFCURVE",
"195 204 CURVE SMOOTH",
"250 204 OFFCURVE",
"314 228 OFFCURVE",
"361 228 CURVE SMOOTH",
"402 228 OFFCURVE",
"420 209 OFFCURVE",
"420 161 CURVE SMOOTH",
"420 102 OFFCURVE",
"388 72 OFFCURVE",
"278 72 CURVE SMOOTH"
);
}
);
};
layerId = "0225C979-6A3F-4323-834E-E3153ADD1AE8";
name = Regular;
paths = (
{
closed = 1;
nodes = (
"147 -107 LINE",
"147 37 LINE",
"173 61 LINE",
"126 166 LINE",
"72 166 OFFCURVE",
"52 145 OFFCURVE",
"52 104 CURVE SMOOTH",
"52 7 OFFCURVE",
"169 -8 OFFCURVE",
"279 -8 CURVE SMOOTH",
"431 -8 OFFCURVE",
"496 51 OFFCURVE",
"496 167 CURVE SMOOTH",
"496 246 OFFCURVE",
"469 308 OFFCURVE",
"367 308 CURVE SMOOTH",
"308 308 OFFCURVE",
"248 284 OFFCURVE",
"195 284 CURVE SMOOTH",
"147 284 OFFCURVE",
"126 301 OFFCURVE",
"126 355 CURVE SMOOTH",
"126 408 OFFCURVE",
"147 425 OFFCURVE",
"214 425 CURVE SMOOTH",
"456 425 LINE",
"456 616 LINE",
"384 616 LINE",
"384 484 LINE",
"404 501 LINE",
"206 501 LINE SMOOTH",
"94 501 OFFCURVE",
"52 452 OFFCURVE",
"52 360 CURVE SMOOTH",
"52 260 OFFCURVE",
"101 204 OFFCURVE",
"191 204 CURVE SMOOTH",
"246 204 OFFCURVE",
"310 228 OFFCURVE",
"357 228 CURVE SMOOTH",
"404 228 OFFCURVE",
"422 209 OFFCURVE",
"422 161 CURVE SMOOTH",
"422 102 OFFCURVE",
"390 72 OFFCURVE",
"273 72 CURVE SMOOTH",
"223 72 OFFCURVE",
"179 76 OFFCURVE",
"147 85 CURVE",
"77 80 LINE",
"77 -107 LINE"
);
},
{
closed = 0;
nodes = (
"0 606 LINE"
);
},
{
closed = 1;
nodes = (
"558 606 LINE",
"558 680 LINE",
"0 680 LINE",
"0 606 LINE"
);
}
);
width = 543;
}
);
unicode = 0907;
},
{
color = 3;
glyphname = "u-deva";
lastChange = "2014-10-25 03:13:12 +0000";
layers = (
{
anchors = (
{
name = bottom;
position = "{248, 0}";
},
{
name = top;
position = "{373, 680}";
}
);
background = {
paths = (
{
closed = 1;
nodes = (
"211 688 OFFCURVE",
"159 681 OFFCURVE",
"115 668 CURVE",
"115 591 LINE",
"158 602 OFFCURVE",
"211 608 OFFCURVE",
"260 608 CURVE SMOOTH",
"354 608 OFFCURVE",
"367 588 OFFCURVE",
"367 518 CURVE SMOOTH",
"367 443 OFFCURVE",
"343 422 OFFCURVE",
"273 422 CURVE SMOOTH",
"164 422 LINE",
"164 346 LINE",
"273 346 LINE SMOOTH",
"351 346 OFFCURVE",
"378 330 OFFCURVE",
"378 243 CURVE SMOOTH",
"378 160 OFFCURVE",
"342 134 OFFCURVE",
"228 134 CURVE SMOOTH",
"161 134 OFFCURVE",
"120 146 OFFCURVE",
"72 165 CURVE",
"72 87 LINE",
"110 71 OFFCURVE",
"170 54 OFFCURVE",
"250 54 CURVE SMOOTH",
"392 54 OFFCURVE",
"452 107 OFFCURVE",
"452 214 CURVE SMOOTH",
"452 307 OFFCURVE",
"411 365 OFFCURVE",
"339 398 CURVE",
"330 363 LINE",
"391 380 OFFCURVE",
"441 430 OFFCURVE",
"441 526 CURVE SMOOTH",
"441 638 OFFCURVE",
"396 688 OFFCURVE",
"260 688 CURVE SMOOTH"
);
}
);
};
guideLines = (
{
position = "{273, 346}";
},
{
position = "{248, 54}";
},
{
position = "{420, 239}";
}
);
layerId = "0225C979-6A3F-4323-834E-E3153ADD1AE8";
name = Regular;
paths = (
{
closed = 1;
nodes = (
"556 606 LINE",
"556 680 LINE",
"0 680 LINE",
"0 606 LINE"
);
},
{
closed = 1;
nodes = (
"343 616 LINE",
"366 587 OFFCURVE",
"376 560 OFFCURVE",
"376 519 CURVE SMOOTH",
"376 443 OFFCURVE",
"350 422 OFFCURVE",
"273 422 CURVE SMOOTH",
"154 422 LINE",
"154 346 LINE",
"273 346 LINE SMOOTH",
"357 346 OFFCURVE",
"387 317 OFFCURVE",
"387 244 CURVE SMOOTH",
"387 161 OFFCURVE",
"349 134 OFFCURVE",
"232 134 CURVE SMOOTH",
"147 134 OFFCURVE",
"101 151 OFFCURVE",
"45 178 CURVE",
"45 100 LINE",
"89 77 OFFCURVE",
"159 54 OFFCURVE",
"248 54 CURVE SMOOTH",
"393 54 OFFCURVE",
"461 110 OFFCURVE",
"461 235 CURVE SMOOTH",
"461 339 OFFCURVE",
"415 387 OFFCURVE",
"330 405 CURVE",
"330 368 LINE",
"405 380 OFFCURVE",
"450 430 OFFCURVE",
"450 522 CURVE SMOOTH",
"450 564 OFFCURVE",
"437 595 OFFCURVE",
"419 616 CURVE"
);
}
);
width = 533;
}
);
unicode = 0909;
},
{
color = 3;
glyphname = "uu-deva";
lastChange = "2014-10-25 03:13:29 +0000";
layers = (
{
anchors = (
{
name = bottom;
position = "{248, 0}";
},
{
name = top;
position = "{373, 680}";
}
);
background = {
guideLines = (
{
position = "{317, 386}";
}
);
paths = (
{
closed = 1;
nodes = (
"406 234 LINE",
"406 335 OFFCURVE",
"465 386 OFFCURVE",
"562 386 CURVE SMOOTH",
"670 386 OFFCURVE",
"728 330 OFFCURVE",
"728 220 CURVE SMOOTH",
"728 108 OFFCURVE",
"676 54 OFFCURVE",
"577 54 CURVE SMOOTH",
"567 54 OFFCURVE",
"547 55 OFFCURVE",
"532 58 CURVE",
"532 136 LINE",
"547 134 OFFCURVE",
"559 134 OFFCURVE",
"569 134 CURVE SMOOTH",
"632 134 OFFCURVE",
"654 156 OFFCURVE",
"654 220 CURVE SMOOTH",
"654 283 OFFCURVE",
"623 305 OFFCURVE",
"559 306 CURVE SMOOTH",
"498 305 OFFCURVE",
"461 283 OFFCURVE",
"461 234 CURVE"
);
},
{
closed = 1;
nodes = (
"546 680 LINE",
"546 606 LINE",
"743 606 LINE",
"743 680 LINE"
);
}
);
};
components = (
{
name = "u-deva";
transform = "{1, 0, 0, 1, 0, 0}";
}
);
guideLines = (
{
position = "{420, 234}";
},
{
position = "{248, 54}";
},
{
position = "{145, 346}";
},
{
angle = 90;
position = "{461, 414}";
},
{
position = "{145, 386}";
},
{
angle = 90;
position = "{557, 414}";
},
{
angle = 90;
position = "{532, 414}";
}
);
layerId = "0225C979-6A3F-4323-834E-E3153ADD1AE8";
name = Regular;
paths = (
{
closed = 1;
nodes = (
"676 54 OFFCURVE",
"728 110 OFFCURVE",
"728 217 CURVE SMOOTH",
"728 330 OFFCURVE",
"670 386 OFFCURVE",
"565 386 CURVE SMOOTH",
"464 386 OFFCURVE",
"406 335 OFFCURVE",
"406 234 CURVE",
"461 234 LINE",
"461 283 OFFCURVE",
"500 306 OFFCURVE",
"560 306 CURVE SMOOTH",
"635 306 OFFCURVE",
"654 271 OFFCURVE",
"654 217 CURVE SMOOTH",
"654 156 OFFCURVE",
"630 134 OFFCURVE",
"569 134 CURVE SMOOTH",
"559 134 OFFCURVE",
"547 134 OFFCURVE",
"532 136 CURVE",
"532 58 LINE",
"547 55 OFFCURVE",
"566 54 OFFCURVE",
"579 54 CURVE SMOOTH"
);
},
{
closed = 1;
nodes = (
"748 606 LINE",
"748 680 LINE",
"546 680 LINE",
"546 606 LINE"
);
}
);
width = 733;
}
);
unicode = 090A;
},
{
color = 1;
glyphname = "rVocalic-deva";
lastChange = "2014-10-25 03:13:36 +0000";
layers = (
{
associatedMasterId = "0225C979-6A3F-4323-834E-E3153ADD1AE8";
background = {
paths = (
{
closed = 1;
nodes = (
"421 326 LINE",
"421 250 LINE",
"611 250 LINE",
"611 326 LINE"
);
},
{
closed = 1;
nodes = (
"306 298 LINE",
"223 298 LINE",
"29 1 LINE",
"30 0 LINE",
"117 0 LINE"
);
},
{
closed = 1;
nodes = (
"306 279 LINE",
"185 472 LINE SMOOTH",
"165 504 OFFCURVE",
"147 501 OFFCURVE",
"105 501 CURVE SMOOTH",
"30 501 LINE",
"30 425 LINE",
"76 425 LINE SMOOTH",
"110 425 OFFCURVE",
"125 429 OFFCURVE",
"159 377 CURVE SMOOTH",
"223 279 LINE"
);
},
{
closed = 1;
nodes = (
"371 250 LINE",
"371 326 LINE",
"256 326 LINE",
"256 250 LINE"
);
},
{
closed = 1;
nodes = (
"431 0 LINE",
"431 616 LINE",
"361 616 LINE",
"361 0 LINE"
);
},
{
closed = 1;
nodes = (
"555 244 OFFCURVE",
"537 207 OFFCURVE",
"537 148 CURVE SMOOTH",
"537 48 OFFCURVE",
"589 0 OFFCURVE",
"704 0 CURVE SMOOTH",
"732 0 OFFCURVE",
"757 3 OFFCURVE",
"783 11 CURVE",
"783 91 LINE",
"752 83 OFFCURVE",
"728 80 OFFCURVE",
"703 80 CURVE SMOOTH",
"632 80 OFFCURVE",
"611 98 OFFCURVE",
"611 162 CURVE SMOOTH",
"611 215 OFFCURVE",
"623 234 OFFCURVE",
"692 257 CURVE SMOOTH",
"740 273 OFFCURVE",
"773 304 OFFCURVE",
"773 383 CURVE SMOOTH",
"773 458 OFFCURVE",
"742 509 OFFCURVE",
"660 509 CURVE SMOOTH",
"581 509 OFFCURVE",
"541 473 OFFCURVE",
"541 397 CURVE SMOOTH",
"541 338 OFFCURVE",
"562 316 OFFCURVE",
"596 312 CURVE",
"592 260 LINE"
);
},
{
closed = 1;
nodes = (
"622 326 OFFCURVE",
"611 339 OFFCURVE",
"611 383 CURVE SMOOTH",
"611 426 OFFCURVE",
"622 439 OFFCURVE",
"657 439 CURVE SMOOTH",
"692 439 OFFCURVE",
"703 426 OFFCURVE",
"703 383 CURVE SMOOTH",
"703 339 OFFCURVE",
"692 326 OFFCURVE",
"657 326 CURVE SMOOTH"
);
},
{
closed = 1;
nodes = (
"840 606 LINE",
"840 680 LINE",
"-10 680 LINE",
"-9 606 LINE"
);
}
);
};
guideLines = (
{
angle = 90;
position = "{729, 534}";
},
{
angle = 90;
position = "{15, 501}";
},
{
position = "{-9, 511}";
},
{
position = "{-9, 288}";
},
{
angle = 90;
position = "{511, 616}";
},
{
angle = 90;
position = "{754, 534}";
},
{
position = "{-9, 298}";
},
{
angle = 90;
position = "{261, 616}";
},
{
angle = 90;
position = "{271, 616}";
},
{
angle = 90;
position = "{281, 616}";
}
);
layerId = "CD429A12-F508-4A46-93CD-2649BA2400B1";
name = "Regular Oct 23 14, 23:36";
paths = (
{
closed = 1;
nodes = (
"30 0 LINE",
"117 0 LINE",
"306 298 LINE",
"223 298 LINE",
"29 1 LINE"
);
},
{
closed = 1;
nodes = (
"371 250 LINE",
"371 326 LINE",
"256 326 LINE",
"256 250 LINE"
);
},
{
closed = 1;
nodes = (
"431 0 LINE",
"431 616 LINE",
"361 616 LINE",
"361 0 LINE"
);
},
{
closed = 1;
nodes = (
"843 606 LINE",
"843 680 LINE",
"0 680 LINE",
"0 606 LINE"
);
},
{
closed = 1;
nodes = (
"165 504 OFFCURVE",
"147 501 OFFCURVE",
"105 501 CURVE SMOOTH",
"30 501 LINE",
"30 425 LINE",
"76 425 LINE SMOOTH",
"110 425 OFFCURVE",
"125 429 OFFCURVE",
"159 377 CURVE SMOOTH",
"223 279 LINE",
"306 279 LINE",
"185 472 LINE SMOOTH"
);
},
{
closed = 1;
nodes = (
"556 168 LINE SMOOTH",
"556 54 OFFCURVE",
"607 0 OFFCURVE",
"719 0 CURVE SMOOTH",
"747 0 OFFCURVE",
"772 3 OFFCURVE",
"798 11 CURVE",
"798 91 LINE",
"767 83 OFFCURVE",
"743 80 OFFCURVE",
"718 80 CURVE SMOOTH",
"647 80 OFFCURVE",
"626 101 OFFCURVE",
"626 172 CURVE SMOOTH",
"626 385 LINE SMOOTH",
"626 426 OFFCURVE",
"637 439 OFFCURVE",
"668 439 CURVE SMOOTH",
"694 439 OFFCURVE",
"708 429 OFFCURVE",
"708 390 CURVE SMOOTH",
"708 347 OFFCURVE",
"691 326 OFFCURVE",
"627 326 CURVE SMOOTH",
"421 326 LINE",
"421 250 LINE",
"627 250 LINE SMOOTH",
"723 250 OFFCURVE",
"778 298 OFFCURVE",
"778 389 CURVE SMOOTH",
"778 458 OFFCURVE",
"747 509 OFFCURVE",
"670 509 CURVE SMOOTH",
"596 509 OFFCURVE",
"556 465 OFFCURVE",
"556 395 CURVE SMOOTH"
);
}
);
width = 838;
},
{
associatedMasterId = "0225C979-6A3F-4323-834E-E3153ADD1AE8";
background = {
paths = (
{
closed = 1;
nodes = (
"722 0 OFFCURVE",
"777 54 OFFCURVE",
"777 158 CURVE SMOOTH",
"777 273 OFFCURVE",
"718 326 OFFCURVE",
"576 326 CURVE SMOOTH",
"426 326 LINE",
"426 250 LINE",
"535.998 250.352 LINE SMOOTH",
"641 251 OFFCURVE",
"675 256 OFFCURVE",
"715 283 CURVE SMOOTH",
"752 308 OFFCURVE",
"762 345 OFFCURVE",
"762 388 CURVE SMOOTH",
"762 458 OFFCURVE",
"729 501 OFFCURVE",
"654 501 CURVE SMOOTH",
"580 501 OFFCURVE",
"544 458 OFFCURVE",
"544 396 CURVE SMOOTH",
"544 320 OFFCURVE",
"581 289 OFFCURVE",
"639 259 CURVE SMOOTH",
"695 230 OFFCURVE",
"703 217 OFFCURVE",
"703 160 CURVE SMOOTH",
"703 101 OFFCURVE",
"682 80 OFFCURVE",
"611 80 CURVE SMOOTH",
"586 80 OFFCURVE",
"562 83 OFFCURVE",
"531 91 CURVE",
"531 11 LINE",
"557 3 OFFCURVE",
"582 0 OFFCURVE",
"611 0 CURVE SMOOTH"
);
},
{
closed = 1;
nodes = (
"122 0 LINE",
"320 290 LINE",
"235 290 LINE",
"34 1 LINE",
"35 0 LINE"
);
},
{
closed = 1;
nodes = (
"316 270 LINE",
"190 472 LINE SMOOTH",
"170 504 OFFCURVE",
"152 501 OFFCURVE",
"110 501 CURVE SMOOTH",
"35 501 LINE",
"35 425 LINE",
"81 425 LINE SMOOTH",
"115 425 OFFCURVE",
"130 430 OFFCURVE",
"164 377 CURVE SMOOTH",
"233 270 LINE"
);
},
{
closed = 1;
nodes = (
"376 250 LINE",
"376 326 LINE",
"261 326 LINE",
"261 250 LINE"
);
},
{
closed = 1;
nodes = (
"436 0 LINE",
"436 616 LINE",
"366 616 LINE",
"366 0 LINE"
);
},
{
closed = 1;
nodes = (
"848 606 LINE",
"848 680 LINE",
"0 680 LINE",
"1 606 LINE"
);
}
);
};
guideLines = (
{
position = "{-4, 509}";
},
{
position = "{-4, 278}";
}
);
layerId = "4DD31C7D-B310-4D44-AD35-F973785E63C2";
name = "Regular Oct 23 14, 23:39 Oct 23 14, 23:58";
paths = (
{
closed = 1;
nodes = (
"722 8 OFFCURVE",
"777 62 OFFCURVE",
"777 166 CURVE SMOOTH",
"777 281 OFFCURVE",
"718 334 OFFCURVE",
"576 334 CURVE SMOOTH",
"426 334 LINE",
"426 258 LINE",
"536 258 LINE SMOOTH",
"641 259 OFFCURVE",
"675 264 OFFCURVE",
"715 291 CURVE SMOOTH",
"752 316 OFFCURVE",
"762 353 OFFCURVE",
"762 396 CURVE SMOOTH",
"762 466 OFFCURVE",
"729 509 OFFCURVE",
"654 509 CURVE SMOOTH",
"580 509 OFFCURVE",
"544 466 OFFCURVE",
"544 404 CURVE SMOOTH",
"544 240 OFFCURVE",
"703 317 OFFCURVE",
"703 168 CURVE SMOOTH",
"703 109 OFFCURVE",
"682 88 OFFCURVE",
"611 88 CURVE SMOOTH",
"586 88 OFFCURVE",
"562 91 OFFCURVE",
"531 99 CURVE",
"531 19 LINE",
"557 11 OFFCURVE",
"582 8 OFFCURVE",
"611 8 CURVE SMOOTH"
);
},
{
closed = 1;
nodes = (
"122 0 LINE",
"320 290 LINE",
"235 290 LINE",
"34 1 LINE",
"35 0 LINE"
);
},
{
closed = 1;
nodes = (
"316 270 LINE",
"190 472 LINE SMOOTH",
"170 504 OFFCURVE",
"152 501 OFFCURVE",
"110 501 CURVE SMOOTH",
"35 501 LINE",
"35 425 LINE",
"81 425 LINE SMOOTH",
"115 425 OFFCURVE",
"130 430 OFFCURVE",
"164 377 CURVE SMOOTH",
"233 270 LINE"
);
},
{
closed = 1;
nodes = (
"376 258 LINE",
"376 334 LINE",
"261 334 LINE",
"261 258 LINE"
);
},
{
closed = 1;
nodes = (
"436 0 LINE",
"436 616 LINE",
"366 616 LINE",
"366 0 LINE"
);
},
{
closed = 1;
nodes = (
"848 606 LINE",
"848 680 LINE",
"0 680 LINE",
"1 606 LINE"
);
}
);
width = 838;
},
{
associatedMasterId = "0225C979-6A3F-4323-834E-E3153ADD1AE8";
background = {
guideLines = (
{
angle = 90;
position = "{769, 534}";
},
{
angle = 90;
position = "{759, 534}";
},
{
angle = 90;
position = "{749, 534}";
}
);
paths = (
{
closed = 1;
nodes = (
"416 326 LINE",
"416 250 LINE",
"606 250 LINE",
"606 326 LINE"
);
},
{
closed = 1;
nodes = (
"301 298 LINE",
"218 298 LINE",
"24 1 LINE",
"25 0 LINE",
"112 0 LINE"
);
},
{
closed = 1;
nodes = (
"301 279 LINE",
"180 472 LINE SMOOTH",
"160 504 OFFCURVE",
"142 501 OFFCURVE",
"100 501 CURVE SMOOTH",
"25 501 LINE",
"25 425 LINE",
"71 425 LINE SMOOTH",
"105 425 OFFCURVE",
"120 429 OFFCURVE",
"154 377 CURVE SMOOTH",
"218 279 LINE"
);
},
{
closed = 1;
nodes = (
"366 250 LINE",
"366 326 LINE",
"251 326 LINE",
"251 250 LINE"
);
},
{
closed = 1;
nodes = (
"426 0 LINE",
"426 616 LINE",
"356 616 LINE",
"356 0 LINE"
);
},
{
closed = 1;
nodes = (
"550 244 OFFCURVE",
"532 207 OFFCURVE",
"532 148 CURVE SMOOTH",
"532 48 OFFCURVE",
"584 0 OFFCURVE",
"699 0 CURVE SMOOTH",
"727 0 OFFCURVE",
"752 3 OFFCURVE",
"778 11 CURVE",
"778 91 LINE",
"747 83 OFFCURVE",
"723 80 OFFCURVE",
"698 80 CURVE SMOOTH",
"627 80 OFFCURVE",
"606 98 OFFCURVE",
"606 162 CURVE SMOOTH",
"606 215 OFFCURVE",
"618 234 OFFCURVE",
"687 257 CURVE SMOOTH",
"735 273 OFFCURVE",
"768 304 OFFCURVE",
"768 383 CURVE SMOOTH",
"768 458 OFFCURVE",
"737 509 OFFCURVE",
"655 509 CURVE SMOOTH",
"576 509 OFFCURVE",
"536 473 OFFCURVE",
"536 397 CURVE SMOOTH",
"536 338 OFFCURVE",
"557 316 OFFCURVE",
"591 312 CURVE",
"587 260 LINE"
);
},
{
closed = 1;
nodes = (
"617 326 OFFCURVE",
"606 339 OFFCURVE",
"606 383 CURVE SMOOTH",
"606 426 OFFCURVE",
"617 439 OFFCURVE",
"652 439 CURVE SMOOTH",
"687 439 OFFCURVE",
"698 426 OFFCURVE",
"698 383 CURVE SMOOTH",
"698 339 OFFCURVE",
"687 326 OFFCURVE",
"652 326 CURVE SMOOTH"
);
},
{
closed = 1;
nodes = (
"835 606 LINE",
"835 680 LINE",
"0 680 LINE",
"1 606 LINE"
);
}
);
};
guideLines = (
{
angle = 90;
position = "{724, 534}";
},
{
angle = 90;
position = "{10, 501}";
},
{
position = "{-14, 511}";
},
{
position = "{-14, 288}";
},
{
angle = 90;
position = "{506, 616}";
},
{
angle = 90;
position = "{769, 534}";
},
{
position = "{-14, 316}";
},
{
angle = 90;
position = "{256, 616}";
},
{
angle = 90;
position = "{266, 616}";
},
{
angle = 90;
position = "{276, 616}";
}
);
layerId = "0680ACD1-C597-4E1B-A3D3-A8B827893768";
name = "Regular Oct 24 14, 14:14";
paths = (
{
closed = 1;
nodes = (
"416 326 LINE",
"416 250 LINE",
"606 250 LINE",
"606 326 LINE"
);
},
{
closed = 1;
nodes = (
"301 298 LINE",
"218 298 LINE",
"24 1 LINE",
"25 0 LINE",
"112 0 LINE"
);
},
{
closed = 1;
nodes = (
"301 279 LINE",
"180 472 LINE SMOOTH",
"160 504 OFFCURVE",
"142 501 OFFCURVE",
"100 501 CURVE SMOOTH",
"25 501 LINE",
"25 425 LINE",
"71 425 LINE SMOOTH",
"105 425 OFFCURVE",
"120 429 OFFCURVE",
"154 377 CURVE SMOOTH",
"218 279 LINE"
);
},
{
closed = 1;
nodes = (
"366 250 LINE",
"366 326 LINE",
"251 326 LINE",
"251 250 LINE"
);
},
{
closed = 1;
nodes = (
"426 0 LINE",
"426 616 LINE",
"356 616 LINE",
"356 0 LINE"
);
},
{
closed = 1;
nodes = (
"550 244 OFFCURVE",
"532 207 OFFCURVE",
"532 148 CURVE SMOOTH",
"532 48 OFFCURVE",
"584 0 OFFCURVE",
"699 0 CURVE SMOOTH",
"727 0 OFFCURVE",
"752 3 OFFCURVE",
"778 11 CURVE",
"778 91 LINE",
"747 83 OFFCURVE",
"723 80 OFFCURVE",
"698 80 CURVE SMOOTH",
"627 80 OFFCURVE",
"606 98 OFFCURVE",
"606 162 CURVE SMOOTH",
"606 215 OFFCURVE",
"618 234 OFFCURVE",
"687 257 CURVE SMOOTH",
"735 273 OFFCURVE",
"768 304 OFFCURVE",
"768 383 CURVE SMOOTH",
"768 458 OFFCURVE",
"737 509 OFFCURVE",
"655 509 CURVE SMOOTH",
"576 509 OFFCURVE",
"536 473 OFFCURVE",
"536 397 CURVE SMOOTH",
"536 338 OFFCURVE",
"557 316 OFFCURVE",
"591 312 CURVE",
"587 260 LINE"
);
},
{
closed = 1;
nodes = (
"835 606 LINE",
"835 680 LINE",
"0 680 LINE",
"1 606 LINE"
);
}
);
width = 820;
},
{
anchors = (
{
name = bottom;
position = "{391, 0}";
},
{
name = top;
position = "{391, 680}";
}
);
background = {
paths = (
{
closed = 1;
nodes = (
"548 405 LINE",
"548 501 LINE",
"13 1 LINE",
"13 0 LINE",
"117 -1 LINE"
);
},
{
closed = 1;
nodes = (
"319 249 LINE",
"170 472 LINE SMOOTH",
"155 494 OFFCURVE",
"141 501 OFFCURVE",
"110 501 CURVE SMOOTH",
"21 501 LINE",
"21 425 LINE",
"71 425 LINE SMOOTH",
"106 425 OFFCURVE",
"114 421 OFFCURVE",
"133 393 CURVE SMOOTH",
"267 202 LINE"
);
},
{
closed = 1;
nodes = (
"426 0 LINE",
"426 616 LINE",
"356 616 LINE",
"356 0 LINE"
);
},
{
closed = 1;
nodes = (
"717 0 OFFCURVE",
"737 3 OFFCURVE",
"769 11 CURVE",
"769 91 LINE",
"731 83 OFFCURVE",
"712 80 OFFCURVE",
"679 80 CURVE SMOOTH",
"623 80 OFFCURVE",
"597 101 OFFCURVE",
"597 160 CURVE SMOOTH",
"597 219 OFFCURVE",
"623 240 OFFCURVE",
"709 240 CURVE SMOOTH",
"744 240 LINE",
"744 316 LINE",
"689 316 LINE SMOOTH",
"639 316 OFFCURVE",
"618 335 OFFCURVE",
"618 388 CURVE SMOOTH",
"618 501 LINE",
"548 501 LINE",
"548 388 LINE SMOOTH",
"548 330 OFFCURVE",
"567 290 OFFCURVE",
"602 267 CURVE",
"592 297 LINE",
"546 273 OFFCURVE",
"523 226 OFFCURVE",
"523 160 CURVE SMOOTH",
"523 54 OFFCURVE",
"581 0 OFFCURVE",
"679 0 CURVE SMOOTH"
);
},
{
closed = 1;
nodes = (
"838 606 LINE",
"838 680 LINE",
"-10 680 LINE",
"-9 606 LINE"
);
}
);
};
layerId = "0225C979-6A3F-4323-834E-E3153ADD1AE8";
name = Regular;
paths = (
{
closed = 1;
nodes = (
"319 249 LINE",
"170 472 LINE SMOOTH",
"155 494 OFFCURVE",
"141 501 OFFCURVE",
"110 501 CURVE SMOOTH",
"21 501 LINE",
"21 425 LINE",
"71 425 LINE SMOOTH",
"106 425 OFFCURVE",
"114 421 OFFCURVE",
"133 393 CURVE SMOOTH",
"267 202 LINE"
);
},
{
closed = 1;
nodes = (
"426 0 LINE",
"426 616 LINE",
"356 616 LINE",
"356 0 LINE"
);
},
{
closed = 1;
nodes = (
"798 606 LINE",
"798 680 LINE",
"0 680 LINE",
"1 606 LINE"
);
},
{
closed = 1;
nodes = (
"548 330 OFFCURVE",
"567 290 OFFCURVE",
"602 267 CURVE",
"592 297 LINE",
"546 273 OFFCURVE",
"523 226 OFFCURVE",
"523 160 CURVE SMOOTH",
"523 54 OFFCURVE",
"581 0 OFFCURVE",
"679 0 CURVE SMOOTH",
"717 0 OFFCURVE",
"737 3 OFFCURVE",
"769 11 CURVE",
"769 91 LINE",
"731 83 OFFCURVE",
"712 80 OFFCURVE",
"679 80 CURVE SMOOTH",
"623 80 OFFCURVE",
"597 101 OFFCURVE",
"597 160 CURVE SMOOTH",
"597 219 OFFCURVE",
"623 240 OFFCURVE",
"709 240 CURVE SMOOTH",
"744 240 LINE",
"744 316 LINE",
"689 316 LINE SMOOTH",
"639 316 OFFCURVE",
"618 335 OFFCURVE",
"618 388 CURVE SMOOTH",
"618 501 LINE",
"563 501 LINE",
"13 1 LINE",
"13 0 LINE",
"118 -1 LINE",
"548 392 LINE"
);
}
);
width = 783;
},
{
associatedMasterId = "0225C979-6A3F-4323-834E-E3153ADD1AE8";
background = {
paths = (
{
closed = 1;
nodes = (
"722 0 OFFCURVE",
"777 54 OFFCURVE",
"777 158 CURVE SMOOTH",
"777 273 OFFCURVE",
"718 326 OFFCURVE",
"576 326 CURVE SMOOTH",
"426 326 LINE",
"426 250 LINE",
"535.998 250.352 LINE SMOOTH",
"641 251 OFFCURVE",
"675 256 OFFCURVE",
"715 283 CURVE SMOOTH",
"752 308 OFFCURVE",
"762 345 OFFCURVE",
"762 388 CURVE SMOOTH",
"762 458 OFFCURVE",
"729 501 OFFCURVE",
"654 501 CURVE SMOOTH",
"580 501 OFFCURVE",
"544 458 OFFCURVE",
"544 396 CURVE SMOOTH",
"544 320 OFFCURVE",
"581 289 OFFCURVE",
"639 259 CURVE SMOOTH",
"695 230 OFFCURVE",
"703 217 OFFCURVE",
"703 160 CURVE SMOOTH",
"703 101 OFFCURVE",
"682 80 OFFCURVE",
"611 80 CURVE SMOOTH",
"586 80 OFFCURVE",
"562 83 OFFCURVE",
"531 91 CURVE",
"531 11 LINE",
"557 3 OFFCURVE",
"582 0 OFFCURVE",
"611 0 CURVE SMOOTH"
);
},
{
closed = 1;
nodes = (
"122 0 LINE",
"320 290 LINE",
"235 290 LINE",
"34 1 LINE",
"35 0 LINE"
);
},
{
closed = 1;
nodes = (
"316 270 LINE",
"190 472 LINE SMOOTH",
"170 504 OFFCURVE",
"152 501 OFFCURVE",
"110 501 CURVE SMOOTH",
"35 501 LINE",
"35 425 LINE",
"81 425 LINE SMOOTH",
"115 425 OFFCURVE",
"130 430 OFFCURVE",
"164 377 CURVE SMOOTH",
"233 270 LINE"
);
},
{
closed = 1;
nodes = (
"376 250 LINE",
"376 326 LINE",
"261 326 LINE",
"261 250 LINE"
);
},
{
closed = 1;
nodes = (
"436 0 LINE",
"436 616 LINE",
"366 616 LINE",
"366 0 LINE"
);
},
{
closed = 1;
nodes = (
"848 606 LINE",
"848 680 LINE",
"0 680 LINE",
"1 606 LINE"
);
}
);
};
guideLines = (
{
position = "{-4, 509}";
},
{
position = "{-4, 278}";
}
);
layerId = "8B1CFAD0-69C6-4B3D-AFAA-863089A8535C";
name = "Regular Oct 23 14, 23:39 Oct 23 14, 23:58 Oct 24 14, 16:38";
paths = (
{
closed = 1;
nodes = (
"722 8 OFFCURVE",
"777 62 OFFCURVE",
"777 166 CURVE SMOOTH",
"777 281 OFFCURVE",
"718 334 OFFCURVE",
"576 334 CURVE SMOOTH",
"426 334 LINE",
"426 258 LINE",
"536 258 LINE SMOOTH",
"641 259 OFFCURVE",
"675 264 OFFCURVE",
"715 291 CURVE SMOOTH",
"752 316 OFFCURVE",
"762 353 OFFCURVE",
"762 396 CURVE SMOOTH",
"762 466 OFFCURVE",
"729 509 OFFCURVE",
"654 509 CURVE SMOOTH",
"580 509 OFFCURVE",
"544 466 OFFCURVE",
"544 404 CURVE SMOOTH",
"544 240 OFFCURVE",
"703 317 OFFCURVE",
"703 168 CURVE SMOOTH",
"703 109 OFFCURVE",
"682 88 OFFCURVE",
"611 88 CURVE SMOOTH",
"586 88 OFFCURVE",
"562 91 OFFCURVE",
"531 99 CURVE",
"531 19 LINE",
"557 11 OFFCURVE",
"582 8 OFFCURVE",
"611 8 CURVE SMOOTH"
);
},
{
closed = 1;
nodes = (
"122 0 LINE",
"320 290 LINE",
"235 290 LINE",
"34 1 LINE",
"35 0 LINE"
);
},
{
closed = 1;
nodes = (
"316 270 LINE",
"190 472 LINE SMOOTH",
"170 504 OFFCURVE",
"152 501 OFFCURVE",
"110 501 CURVE SMOOTH",
"35 501 LINE",
"35 425 LINE",
"81 425 LINE SMOOTH",
"115 425 OFFCURVE",
"130 430 OFFCURVE",
"164 377 CURVE SMOOTH",
"233 270 LINE"
);
},
{
closed = 1;
nodes = (
"376 258 LINE",
"376 334 LINE",
"261 334 LINE",
"261 258 LINE"
);
},
{
closed = 1;
nodes = (
"436 0 LINE",
"436 616 LINE",
"366 616 LINE",
"366 0 LINE"
);
},
{
closed = 1;
nodes = (
"848 606 LINE",
"848 680 LINE",
"0 680 LINE",
"1 606 LINE"
);
}
);
width = 838;
}
);
unicode = 090B;
},
{
color = 3;
glyphname = "lVocalic-deva";
lastChange = "2014-10-25 03:13:49 +0000";
layers = (
{
anchors = (
{
name = bottom;
position = "{420, 0}";
},
{
name = top;
position = "{527, 680}";
}
);
background = {
paths = (
{
closed = 1;
nodes = (
"260 0 OFFCURVE",
"291 1 OFFCURVE",
"314 5 CURVE",
"314 85 LINE",
"285 81 OFFCURVE",
"264 80 OFFCURVE",
"245 80 CURVE SMOOTH",
"150 80 OFFCURVE",
"120 105 OFFCURVE",
"120 230 CURVE SMOOTH",
"120 351 OFFCURVE",
"148 387 OFFCURVE",
"244 387 CURVE SMOOTH",
"301 387 OFFCURVE",
"332 374 OFFCURVE",
"359 329 CURVE",
"395 388 LINE",
"354 444 OFFCURVE",
"314 467 OFFCURVE",
"235 467 CURVE SMOOTH",
"104 467 OFFCURVE",
"46 406 OFFCURVE",
"46 236 CURVE SMOOTH",
"46 65 OFFCURVE",
"105 0 OFFCURVE",
"234 0 CURVE SMOOTH"
);
},
{
closed = 1;
nodes = (
"394 198 LINE",
"394 225 LINE SMOOTH",
"394 344 OFFCURVE",
"430 385 OFFCURVE",
"532 385 CURVE SMOOTH",
"589 385 LINE",
"589 461 LINE",
"542 461 LINE SMOOTH",
"386 461 OFFCURVE",
"324 394 OFFCURVE",
"324 225 CURVE SMOOTH",
"324 198 LINE"
);
},
{
closed = 1;
nodes = (
"652 0 LINE",
"652 616 LINE",
"582 616 LINE",
"582 0 LINE"
);
},
{
closed = 1;
nodes = (
"741 606 LINE",
"741 680 LINE",
"-4 680 LINE",
"-4 606 LINE"
);
}
);
};
guideLines = (
{
angle = 90;
position = "{696, 240}";
},
{
angle = 90;
position = "{746, 240}";
},
{
angle = 90;
position = "{696, 240}";
}
);
layerId = "0225C979-6A3F-4323-834E-E3153ADD1AE8";
name = Regular;
paths = (
{
closed = 1;
nodes = (
"673 -150 OFFCURVE",
"701 -146 OFFCURVE",
"721 -139 CURVE",
"721 -59 LINE",
"696 -67 OFFCURVE",
"671 -70 OFFCURVE",
"641 -70 CURVE SMOOTH",
"582 -70 OFFCURVE",
"546 -58 OFFCURVE",
"546 -6 CURVE SMOOTH",
"546 101 OFFCURVE",
"696 44 OFFCURVE",
"696 263 CURVE SMOOTH",
"696 391 OFFCURVE",
"645 467 OFFCURVE",
"515 467 CURVE SMOOTH",
"452 467 OFFCURVE",
"396 449 OFFCURVE",
"371 393 CURVE",
"346 452 OFFCURVE",
"290 467 OFFCURVE",
"231 467 CURVE SMOOTH",
"90 467 OFFCURVE",
"46 383 OFFCURVE",
"46 235 CURVE SMOOTH",
"46 63 OFFCURVE",
"105 0 OFFCURVE",
"241 0 CURVE SMOOTH",
"258 0 OFFCURVE",
"291 1 OFFCURVE",
"314 5 CURVE",
"314 85 LINE",
"285 81 OFFCURVE",
"264 80 OFFCURVE",
"245 80 CURVE SMOOTH",
"150 80 OFFCURVE",
"120 105 OFFCURVE",
"120 229 CURVE SMOOTH",
"120 330 OFFCURVE",
"140 387 OFFCURVE",
"232 387 CURVE SMOOTH",
"309 387 OFFCURVE",
"336 348 OFFCURVE",
"336 247 CURVE SMOOTH",
"336 208 LINE",
"406 208 LINE",
"406 247 LINE SMOOTH",
"406 345 OFFCURVE",
"434 387 OFFCURVE",
"511 387 CURVE SMOOTH",
"593 387 OFFCURVE",
"622 339 OFFCURVE",
"622 260 CURVE SMOOTH",
"622 80 OFFCURVE",
"472 165 OFFCURVE",
"472 -4 CURVE SMOOTH",
"472 -104 OFFCURVE",
"524 -150 OFFCURVE",
"639 -150 CURVE SMOOTH"
);
},
{
closed = 1;
nodes = (
"757 606 LINE",
"757 680 LINE",
"0 680 LINE",
"0 606 LINE"
);
},
{
closed = 1;
nodes = (
"562 441 LINE",
"562 616 LINE",
"492 616 LINE",
"492 441 LINE"
);
}
);
width = 742;
},
{
anchors = (
{
name = top;
position = "{613, 680}";
}
);
associatedMasterId = "0225C979-6A3F-4323-834E-E3153ADD1AE8";
background = {
paths = (
{
closed = 1;
nodes = (
"263 0 OFFCURVE",
"290 3 OFFCURVE",
"318 9 CURVE",
"318 83 LINE",
"292 81 OFFCURVE",
"275 80 OFFCURVE",
"254 80 CURVE SMOOTH",
"161 80 OFFCURVE",
"135 105 OFFCURVE",
"135 230 CURVE SMOOTH",
"135 351 OFFCURVE",
"162 387 OFFCURVE",
"258 387 CURVE SMOOTH",
"315 387 OFFCURVE",
"346 374 OFFCURVE",
"373 329 CURVE",
"409 388 LINE",
"368 444 OFFCURVE",
"328 467 OFFCURVE",
"249 467 CURVE SMOOTH",
"118 467 OFFCURVE",
"60 406 OFFCURVE",
"60 236 CURVE SMOOTH",
"60 65 OFFCURVE",
"116 0 OFFCURVE",
"235 0 CURVE SMOOTH"
);
},
{
closed = 1;
nodes = (
"408 198 LINE",
"408 225 LINE SMOOTH",
"408 344.342 OFFCURVE",
"444 385 OFFCURVE",
"546 385 CURVE SMOOTH",
"603 385 LINE",
"603 461 LINE",
"556 461 LINE SMOOTH",
"400 461 OFFCURVE",
"338 394.251 OFFCURVE",
"338 225 CURVE SMOOTH",
"338 198 LINE"
);
},
{
closed = 1;
nodes = (
"656 -152 OFFCURVE",
"691 -149 OFFCURVE",
"716 -139 CURVE",
"716 -61 LINE",
"688 -69 OFFCURVE",
"660 -72 OFFCURVE",
"626 -72 CURVE SMOOTH",
"542 -72 OFFCURVE",
"521 -41 OFFCURVE",
"521 4 CURVE SMOOTH",
"521 62 OFFCURVE",
"556 82 OFFCURVE",
"636 82 CURVE SMOOTH",
"666 82 LINE",
"666 616 LINE",
"596 616 LINE",
"596 126 LINE",
"606 142 LINE",
"591 142 LINE SMOOTH",
"503 142 OFFCURVE",
"447 92 OFFCURVE",
"447 -4 CURVE SMOOTH",
"447 -107 OFFCURVE",
"512 -152 OFFCURVE",
"628 -152 CURVE SMOOTH"
);
},
{
closed = 1;
nodes = (
"755 606 LINE",
"755 680 LINE",
"10 680 LINE",
"10 606 LINE"
);
}
);
};
guideLines = (
{
angle = 90;
position = "{666, 62}";
},
{
angle = 90;
position = "{606, 197}";
}
);
layerId = "86B47349-784D-46BE-9B71-E4BE9EBBFBBE";
name = "Regular Oct 17 14, 14:46";
paths = (
{
closed = 1;
nodes = (
"263 0 OFFCURVE",
"290 3 OFFCURVE",
"318 9 CURVE",
"318 83 LINE",
"292 81 OFFCURVE",
"275 80 OFFCURVE",
"254 80 CURVE SMOOTH",
"161 80 OFFCURVE",
"135 105 OFFCURVE",
"135 230 CURVE SMOOTH",
"135 351 OFFCURVE",
"162 387 OFFCURVE",
"258 387 CURVE SMOOTH",
"315 387 OFFCURVE",
"346 374 OFFCURVE",
"373 329 CURVE",
"409 388 LINE",
"368 444 OFFCURVE",
"328 467 OFFCURVE",
"249 467 CURVE SMOOTH",
"118 467 OFFCURVE",
"60 406 OFFCURVE",
"60 236 CURVE SMOOTH",
"60 65 OFFCURVE",
"116 0 OFFCURVE",
"235 0 CURVE SMOOTH"
);
},
{
closed = 1;
nodes = (
"408 198 LINE",
"408 225 LINE SMOOTH",
"408 344.342 OFFCURVE",
"444 385 OFFCURVE",
"546 385 CURVE SMOOTH",
"611 385 LINE",
"611 461 LINE",
"556 461 LINE SMOOTH",
"400 461 OFFCURVE",
"338 394.251 OFFCURVE",
"338 225 CURVE SMOOTH",
"338 198 LINE"
);
},
{
closed = 1;
nodes = (
"672 -152 OFFCURVE",
"703 -147 OFFCURVE",
"724 -139 CURVE",
"724 -61 LINE",
"697 -69 OFFCURVE",
"671 -72 OFFCURVE",
"634 -72 CURVE SMOOTH",
"559 -72 OFFCURVE",
"529 -50 OFFCURVE",
"529 4 CURVE SMOOTH",
"529 60 OFFCURVE",
"562 82 OFFCURVE",
"644 82 CURVE SMOOTH",
"674 82 LINE",
"674 616 LINE",
"604 616 LINE",
"604 126 LINE",
"614 142 LINE",
"599 142 LINE SMOOTH",
"505 142 OFFCURVE",
"455 91 OFFCURVE",
"455 -4 CURVE SMOOTH",
"455 -100 OFFCURVE",
"518 -152 OFFCURVE",
"636 -152 CURVE SMOOTH"
);
},
{
closed = 1;
nodes = (
"763 606 LINE",
"763 680 LINE",
"10 680 LINE",
"10 606 LINE"
);
}
);
width = 748;
}
);
unicode = 090C;
},
{
color = 3;
glyphname = "llVocalic-deva";
lastChange = "2014-10-25 03:13:57 +0000";
layers = (
{
anchors = (
{
name = bottom;
position = "{419, 0}";
},
{
name = top;
position = "{527, 680}";
}
);
background = {
guideLines = (
{
position = "{441, -150}";
}
);
paths = (
{
closed = 1;
nodes = (
"673 -150 OFFCURVE",
"701 -146 OFFCURVE",
"721 -139 CURVE",
"721 -59 LINE",
"696 -67 OFFCURVE",
"671 -70 OFFCURVE",
"641 -70 CURVE SMOOTH",
"582 -70 OFFCURVE",
"546 -58 OFFCURVE",
"546 -6 CURVE SMOOTH",
"546 101 OFFCURVE",
"696 44 OFFCURVE",
"696 263 CURVE SMOOTH",
"696 391 OFFCURVE",
"645 467 OFFCURVE",
"515 467 CURVE SMOOTH",
"452 467 OFFCURVE",
"396 449 OFFCURVE",
"371 393 CURVE",
"346 452 OFFCURVE",
"290 467 OFFCURVE",
"231 467 CURVE SMOOTH",
"90 467 OFFCURVE",
"46 383 OFFCURVE",
"46 235 CURVE SMOOTH",
"46 63 OFFCURVE",
"105 0 OFFCURVE",
"241 0 CURVE SMOOTH",
"258 0 OFFCURVE",
"291 1 OFFCURVE",
"314 5 CURVE",
"314 85 LINE",
"285 81 OFFCURVE",
"264 80 OFFCURVE",
"245 80 CURVE SMOOTH",
"150 80 OFFCURVE",
"120 105 OFFCURVE",
"120 229 CURVE SMOOTH",
"120 330 OFFCURVE",
"140 387 OFFCURVE",
"232 387 CURVE SMOOTH",
"309 387 OFFCURVE",
"336 348 OFFCURVE",
"336 247 CURVE SMOOTH",
"336 208 LINE",
"406 208 LINE",
"406 247 LINE SMOOTH",
"406 345 OFFCURVE",
"434 387 OFFCURVE",
"511 387 CURVE SMOOTH",
"593 387 OFFCURVE",
"622 339 OFFCURVE",
"622 260 CURVE SMOOTH",
"622 80 OFFCURVE",
"472 165 OFFCURVE",
"472 -4 CURVE SMOOTH",
"472 -104 OFFCURVE",
"524 -150 OFFCURVE",
"639 -150 CURVE SMOOTH"
);
},
{
closed = 1;
nodes = (
"757 606 LINE",
"757 680 LINE",
"0 680 LINE",
"0 606 LINE"
);
},
{
closed = 1;
nodes = (
"562 441 LINE",
"562 616 LINE",
"492 616 LINE",
"492 441 LINE"
);
}
);
};
guideLines = (
{
position = "{463, -150}";
},
{
angle = 90;
position = "{721, -14}";
},
{
angle = 90;
position = "{472, 7}";
},
{
angle = 90;
position = "{731, -14}";
}
);
layerId = "0225C979-6A3F-4323-834E-E3153ADD1AE8";
name = Regular;
paths = (
{
closed = 1;
nodes = (
"674 -139 OFFCURVE",
"701 -135 OFFCURVE",
"721 -128 CURVE",
"721 -48 LINE",
"696 -56 OFFCURVE",
"671 -59 OFFCURVE",
"641 -59 CURVE SMOOTH",
"582 -59 OFFCURVE",
"546 -47 OFFCURVE",
"546 1 CURVE SMOOTH",
"546 99 OFFCURVE",
"696 45 OFFCURVE",
"696 264 CURVE SMOOTH",
"696 391 OFFCURVE",
"645 467 OFFCURVE",
"515 467 CURVE SMOOTH",
"452 467 OFFCURVE",
"396 449 OFFCURVE",
"371 393 CURVE",
"346 452 OFFCURVE",
"290 467 OFFCURVE",
"231 467 CURVE SMOOTH",
"90 467 OFFCURVE",
"46 383 OFFCURVE",
"46 235 CURVE SMOOTH",
"46 63 OFFCURVE",
"105 0 OFFCURVE",
"241 0 CURVE SMOOTH",
"258 0 OFFCURVE",
"291 1 OFFCURVE",
"314 5 CURVE",
"314 85 LINE",
"285 81 OFFCURVE",
"264 80 OFFCURVE",
"245 80 CURVE SMOOTH",
"150 80 OFFCURVE",
"120 105 OFFCURVE",
"120 229 CURVE SMOOTH",
"120 330 OFFCURVE",
"140 387 OFFCURVE",
"232 387 CURVE SMOOTH",
"309 387 OFFCURVE",
"336 348 OFFCURVE",
"336 247 CURVE SMOOTH",
"336 208 LINE",
"406 208 LINE",
"406 247 LINE SMOOTH",
"406 345 OFFCURVE",
"434 387 OFFCURVE",
"511 387 CURVE SMOOTH",
"593 387 OFFCURVE",
"622 339 OFFCURVE",
"622 260 CURVE SMOOTH",
"622 80 OFFCURVE",
"472 162 OFFCURVE",
"472 2 CURVE SMOOTH",
"472 -85 OFFCURVE",
"526 -139 OFFCURVE",
"637 -139 CURVE SMOOTH"
);
},
{
closed = 1;
nodes = (
"672 -359 OFFCURVE",
"698 -356 OFFCURVE",
"721 -348 CURVE",
"721 -268 LINE",
"697 -276 OFFCURVE",
"673 -279 OFFCURVE",
"643 -279 CURVE SMOOTH",
"571 -279 OFFCURVE",
"546 -261 OFFCURVE",
"546 -215 CURVE SMOOTH",
"546 -164 OFFCURVE",
"576 -139 OFFCURVE",
"637 -139 CURVE",
"627 -104 LINE",
"519 -104 OFFCURVE",
"472 -142 OFFCURVE",
"472 -228 CURVE SMOOTH",
"472 -319 OFFCURVE",
"522 -359 OFFCURVE",
"636 -359 CURVE SMOOTH"
);
},
{
closed = 1;
nodes = (
"757 606 LINE",
"757 680 LINE",
"0 680 LINE",
"0 606 LINE"
);
},
{
closed = 1;
nodes = (
"562 441 LINE",
"562 616 LINE",
"492 616 LINE",
"492 441 LINE"
);
}
);
width = 742;
}
);
unicode = 0961;
},
{
color = 3;
glyphname = "e-deva";
lastChange = "2014-10-25 03:14:40 +0000";
layers = (
{
anchors = (
{
name = bottom;
position = "{304, 0}";
},
{
name = top;
position = "{477, 680}";
}
);
guideLines = (
{
angle = 90;
position = "{442, 616}";
}
);
layerId = "0225C979-6A3F-4323-834E-E3153ADD1AE8";
name = Regular;
paths = (
{
closed = 1;
nodes = (
"96 616 LINE",
"96 212 LINE SMOOTH",
"96 64 OFFCURVE",
"172 0 OFFCURVE",
"317 0 CURVE SMOOTH",
"372 0 OFFCURVE",
"434 7 OFFCURVE",
"477 22 CURVE",
"477 102 LINE",
"425 86 OFFCURVE",
"368 80 OFFCURVE",
"320 80 CURVE SMOOTH",
"206 80 OFFCURVE",
"166 113 OFFCURVE",
"166 209 CURVE SMOOTH",
"166 616 LINE"
);
},
{
closed = 1;
nodes = (
"512 616 LINE",
"442 616 LINE",
"442 381 LINE SMOOTH",
"442 327 OFFCURVE",
"420 310 OFFCURVE",
"358 310 CURVE SMOOTH",
"337 310 OFFCURVE",
"311 312 OFFCURVE",
"289 317 CURVE",
"289 237 LINE",
"308 231 OFFCURVE",
"333 230 OFFCURVE",
"362 230 CURVE SMOOTH",
"472 230 OFFCURVE",
"512 275 OFFCURVE",
"512 377 CURVE SMOOTH"
);
},
{
closed = 1;
nodes = (
"0 680 LINE",
"0 606 LINE",
"623 606 LINE",
"623 680 LINE"
);
}
);
width = 608;
}
);
unicode = 090F;
},
{
color = 3;
glyphname = "aw-deva";
lastChange = "2014-10-22 22:35:13 +0000";
layers = (
{
background = {
paths = (
{
closed = 1;
nodes = (
"954 660 LINE",
"954 875 LINE SMOOTH",
"954 981.554 OFFCURVE",
"894 984 OFFCURVE",
"793 1003 CURVE SMOOTH",
"735 1014 OFFCURVE",
"693 1015.44 OFFCURVE",
"693 1060 CURVE SMOOTH",
"693 1070 LINE",
"623 1070 LINE",
"623 1060 LINE SMOOTH",
"623 951 OFFCURVE",
"701 940 OFFCURVE",
"777 930 CURVE SMOOTH",
"846 921 OFFCURVE",
"889 918 OFFCURVE",
"889 866 CURVE SMOOTH",
"889 660 LINE"
);
},
{
closed = 1;
nodes = (
"884 660 LINE",
"929 660 LINE",
"929 711 LINE SMOOTH",
"929 803 OFFCURVE",
"895 858 OFFCURVE",
"814 858 CURVE SMOOTH",
"765 858 OFFCURVE",
"717 851 OFFCURVE",
"668 851 CURVE SMOOTH",
"613 851 OFFCURVE",
"593 871 OFFCURVE",
"593 914 CURVE SMOOTH",
"593 924 LINE",
"523 924 LINE",
"523 914 LINE SMOOTH",
"523 822 OFFCURVE",
"567 775 OFFCURVE",
"668 775 CURVE SMOOTH",
"715 775 OFFCURVE",
"763 782 OFFCURVE",
"809 782 CURVE SMOOTH",
"864 782 OFFCURVE",
"884 755 OFFCURVE",
"884 709 CURVE SMOOTH"
);
}
);
};
components = (
{
disableAlignment = 1;
name = "a-deva";
transform = "{1, 0, 0, 1, 0, 0}";
},
{
disableAlignment = 1;
name = "awVowel-deva";
transform = "{1, 0, 0, 1, 788, 0}";
}
);
layerId = "0225C979-6A3F-4323-834E-E3153ADD1AE8";
name = Regular;
width = 1050;
}
);
leftMetricsKey = "a-deva";
rightMetricsKey = "awVowel-deva";
unicode = 0975;
},
{
color = 3;
glyphname = "aaMatra-deva";
lastChange = "2014-10-25 03:30:27 +0000";
layers = (
{
anchors = (
{
name = bottom;
position = "{131, 0}";
},
{
name = nukta;
position = "{2, 0}";
},
{
name = top;
position = "{131, 680}";
}
);
background = {
paths = (
{
closed = 1;
nodes = (
"96 610 LINE",
"96 0 LINE",
"171 0 LINE",
"171 610 LINE"
);
},
{
closed = 1;
nodes = (
"0 678 LINE",
"0 599 LINE",
"284 599 LINE",
"284 678 LINE"
);
}
);
};
layerId = "0225C979-6A3F-4323-834E-E3153ADD1AE8";
name = Regular;
paths = (
{
closed = 1;
nodes = (
"96 616 LINE",
"96 0 LINE",
"166 0 LINE",
"166 616 LINE"
);
},
{
closed = 1;
nodes = (
"0 680 LINE",
"0 606 LINE",
"277 606 LINE",
"277 680 LINE"
);
}
);
width = 262;
}
);
rightMetricsKey = "pa-deva";
unicode = 093E;
},
{
color = 3;
glyphname = "iMatra-deva";
lastChange = "2014-10-25 03:16:57 +0000";
layers = (
{
anchors = (
{
name = top;
position = "{694, 893}";
}
);
background = {
paths = (
{
closed = 1;
nodes = (
"729 873 LINE",
"729 953 LINE",
"597 953 LINE SMOOTH",
"345 953 OFFCURVE",
"330 952 OFFCURVE",
"266 940 CURVE SMOOTH",
"117 912 OFFCURVE",
"96 829 OFFCURVE",
"96 734 CURVE SMOOTH",
"96 670 LINE",
"166 670 LINE",
"166 720 LINE SMOOTH",
"166 798 OFFCURVE",
"180 844 OFFCURVE",
"273 863 CURVE SMOOTH",
"325 873 OFFCURVE",
"341 873 OFFCURVE",
"570 873 CURVE SMOOTH"
);
}
);
};
components = (
{
name = "aaMatra-deva";
transform = "{1, 0, 0, 1, 0, 0}";
}
);
guideLines = (
{
angle = 90;
position = "{694, 750}";
},
{
position = "{166, 720}";
},
{
angle = 90;
position = "{470, 604}";
},
{
angle = 90;
position = "{96, 604}";
},
{
angle = 90;
position = "{764, 750}";
}
);
layerId = "0225C979-6A3F-4323-834E-E3153ADD1AE8";
name = Regular;
paths = (
{
closed = 1;
nodes = (
"729 873 LINE",
"729 953 LINE",
"467 953 LINE SMOOTH",
"347 953 OFFCURVE",
"284 948 OFFCURVE",
"238 936 CURVE SMOOTH",
"153 914 OFFCURVE",
"96 865 OFFCURVE",
"96 734 CURVE SMOOTH",
"96 670 LINE",
"166 670 LINE",
"166 720 LINE SMOOTH",
"166 794 OFFCURVE",
"180 831 OFFCURVE",
"234 853 CURVE SMOOTH",
"273 869 OFFCURVE",
"319 873 OFFCURVE",
"467 873 CURVE SMOOTH"
);
}
);
width = 262;
},
{
associatedMasterId = "0225C979-6A3F-4323-834E-E3153ADD1AE8";
background = {
paths = (
{
closed = 1;
nodes = (
"430 953 CURVE SMOOTH",
"132 953 OFFCURVE",
"96 857 OFFCURVE",
"96 734 CURVE SMOOTH",
"96 670 LINE",
"166 670 LINE",
"166 720 LINE SMOOTH",
"166 834 OFFCURVE",
"194 879 OFFCURVE",
"430 879 CURVE SMOOTH",
"663 879 OFFCURVE",
"694 869 OFFCURVE",
"694 780 CURVE SMOOTH",
"694 730 LINE",
"764 730 LINE",
"764 790 LINE SMOOTH",
"764 908 OFFCURVE",
"728 953 OFFCURVE"
);
}
);
};
components = (
{
name = "aaMatra-deva";
transform = "{1, 0, 0, 1, 0, 0}";
}
);
guideLines = (
{
angle = 90;
position = "{96, 604}";
},
{
position = "{166, 720}";
},
{
angle = 90;
position = "{430, 604}";
}
);
layerId = "85BF9862-158E-499E-AA90-58BB9743DA49";
name = "Regular Oct 23 14, 14:26";
paths = (
{
closed = 1;
nodes = (
"166 670 LINE",
"166 720 LINE SMOOTH",
"166 834 OFFCURVE",
"192 879 OFFCURVE",
"405 879 CURVE SMOOTH",
"455 879 LINE SMOOTH",
"666 879 OFFCURVE",
"694 867.563 OFFCURVE",
"694 780 CURVE SMOOTH",
"694 730 LINE",
"764 730 LINE",
"764 790 LINE SMOOTH",
"764 906.325 OFFCURVE",
"730 952 OFFCURVE",
"455 953 CURVE SMOOTH",
"405 953 LINE SMOOTH",
"130 953 OFFCURVE",
"96 857 OFFCURVE",
"96 734 CURVE SMOOTH",
"96 670 LINE"
);
}
);
width = 262;
}
);
unicode = 093F;
},
{
color = 3;
glyphname = "iMatra_reph-deva";
lastChange = "2014-10-24 06:26:20 +0000";
layers = (
{
background = {
paths = (
{
closed = 0;
nodes = (
"421 873 LINE SMOOTH",
"491 873 OFFCURVE",
"535 872 OFFCURVE",
"587 862 CURVE SMOOTH",
"680 843 OFFCURVE",
"694 798 OFFCURVE",
"694 720 CURVE SMOOTH",
"694 670 LINE",
"764 670 LINE",
"764 734 LINE SMOOTH",
"764 829 OFFCURVE",
"742 908 OFFCURVE",
"594 939 CURVE SMOOTH",
"547 949 OFFCURVE",
"489 953 OFFCURVE",
"421 953 CURVE SMOOTH"
);
}
);
};
components = (
{
name = "aaMatra-deva";
transform = "{1, 0, 0, 1, 0, 0}";
}
);
guideLines = (
{
angle = 90;
position = "{694, 828}";
},
{
angle = 90;
position = "{764, 828}";
}
);
layerId = "0225C979-6A3F-4323-834E-E3153ADD1AE8";
name = Regular;
paths = (
{
closed = 1;
nodes = (
"537 947 OFFCURVE",
"478 953 OFFCURVE",
"424 953 CURVE SMOOTH",
"365 953 OFFCURVE",
"310 948 OFFCURVE",
"266 939 CURVE SMOOTH",
"118 908 OFFCURVE",
"96 829 OFFCURVE",
"96 734 CURVE SMOOTH",
"96 670 LINE",
"166 670 LINE",
"166 720 LINE SMOOTH",
"166 798 OFFCURVE",
"180.171 842.6 OFFCURVE",
"273 862 CURVE SMOOTH",
"322 872 OFFCURVE",
"363 873 OFFCURVE",
"424 873 CURVE SMOOTH",
"502 873 OFFCURVE",
"544 867 OFFCURVE",
"624 848 CURVE",
"624 891 LINE SMOOTH",
"624 947 OFFCURVE",
"644 965 OFFCURVE",
"706 965 CURVE SMOOTH",
"734 965 OFFCURVE",
"748 964 OFFCURVE",
"764 959 CURVE",
"764 1037 LINE",
"739 1043 OFFCURVE",
"718 1045 OFFCURVE",
"693 1045 CURVE SMOOTH",
"594 1045 OFFCURVE",
"559 1006 OFFCURVE",
"554 919 CURVE",
"574 935 LINE"
);
}
);
width = 263;
}
);
},
{
color = 3;
glyphname = "iiMatra-deva";
lastChange = "2014-10-25 03:19:19 +0000";
layers = (
{
anchors = (
{
name = bottom;
position = "{131, 0}";
},
{
name = top;
position = "{131, 680}";
}
);
background = {
paths = (
{
closed = 1;
nodes = (
"96 616 LINE",
"96 0 LINE",
"166 0 LINE",
"166 616 LINE"
);
},
{
closed = 1;
nodes = (
"0 680 LINE",
"0 606 LINE",
"277 606 LINE",
"277 680 LINE"
);
},
{
closed = 1;
nodes = (
"-169 787 LINE",
"-98 787 LINE",
"-98 798 LINE SMOOTH",
"-98 843 OFFCURVE",
"-75 873 OFFCURVE",
"-10 873 CURVE SMOOTH",
"66 873 OFFCURVE",
"96 832 OFFCURVE",
"96 732 CURVE SMOOTH",
"96 670 LINE",
"166 670 LINE",
"166 747 LINE SMOOTH",
"166 861 OFFCURVE",
"133 953 OFFCURVE",
"-6 953 CURVE SMOOTH",
"-118 953 OFFCURVE",
"-169 895 OFFCURVE",
"-169 803 CURVE SMOOTH"
);
}
);
};
components = (
{
name = "aaMatra-deva";
transform = "{1, 0, 0, 1, 0, 0}";
}
);
guideLines = (
{
angle = 90;
position = "{-96, 690}";
},
{
angle = 90;
position = "{-166, 690}";
}
);
layerId = "0225C979-6A3F-4323-834E-E3153ADD1AE8";
name = Regular;
paths = (
{
closed = 1;
nodes = (
"-166 780 LINE",
"-96 780 LINE",
"-96 798 LINE SMOOTH",
"-96 843 OFFCURVE",
"-73 873 OFFCURVE",
"-7 873 CURVE SMOOTH",
"66 873 OFFCURVE",
"96 832 OFFCURVE",
"96 732 CURVE SMOOTH",
"96 670 LINE",
"166 670 LINE",
"166 747 LINE SMOOTH",
"166 861 OFFCURVE",
"133 953 OFFCURVE",
"-3 953 CURVE SMOOTH",
"-115 953 OFFCURVE",
"-166 895 OFFCURVE",
"-166 803 CURVE SMOOTH"
);
}
);
width = 262;
}
);
rightMetricsKey = "pa-deva";
unicode = 0940;
},
{
color = 3;
glyphname = "iiMatra_reph_anusvara-deva";
lastChange = "2014-10-24 06:26:20 +0000";
layers = (
{
background = {
paths = (
{
closed = 1;
nodes = (
"166 703 LINE",
"197 703 LINE",
"197 776 LINE",
"166 776 LINE"
);
}
);
};
components = (
{
name = "iiMatra-deva";
transform = "{1, 0, 0, 1, 0, 0}";
},
{
disableAlignment = 1;
name = "reph-deva.imatra";
transform = "{1, 0, 0, 1, 6, 15}";
},
{
disableAlignment = 1;
name = "anusvara-deva";
transform = "{1, 0, 0, 1, 135, 0}";
}
);
layerId = "0225C979-6A3F-4323-834E-E3153ADD1AE8";
name = Regular;
width = 262;
}
);
},
{
color = 3;
glyphname = "oMatra-deva";
lastChange = "2014-10-24 06:26:20 +0000";
layers = (
{
background = {
components = (
{
name = "aaMatra-deva";
transform = "{1, 0, 0, 1, 0, 0}";
}
);
paths = (
{
closed = 1;
nodes = (
"-160 886 LINE",
"-160 806 LINE",
"-135 806 LINE SMOOTH",
"62 806 OFFCURVE",
"90 768 OFFCURVE",
"90 674 CURVE SMOOTH",
"90 624 LINE",
"160 624 LINE",
"160 688 LINE SMOOTH",
"160 798 OFFCURVE",
"124 886 OFFCURVE",
"-145 886 CURVE SMOOTH"
);
}
);
};
components = (
{
name = "aaMatra-deva";
transform = "{1, 0, 0, 1, 0, 0}";
},
{
name = "eMatra-deva";
transform = "{1, 0, 0, 1, 6, 0}";
}
);
guideLines = (
{
angle = 90;
position = "{-96, 696}";
},
{
angle = 90;
position = "{-166, 696}";
}
);
layerId = "0225C979-6A3F-4323-834E-E3153ADD1AE8";
name = Regular;
width = 262;
}
);
rightMetricsKey = "pa-deva";
unicode = 094B;
},
{
color = 3;
glyphname = "auMatra_anusvara-deva";
lastChange = "2014-10-24 06:26:20 +0000";
layers = (
{
background = {
paths = (
{
closed = 1;
nodes = (
"166 703 LINE",
"197 703 LINE",
"197 776 LINE",
"166 776 LINE"
);
}
);
};
components = (
{
name = "aaMatra-deva";
transform = "{1, 0, 0, 1, 0, 0}";
},
{
name = "aiMatra-deva";
transform = "{1, 0, 0, 1, 6, 0}";
}
);
layerId = "0225C979-6A3F-4323-834E-E3153ADD1AE8";
name = Regular;
paths = (
{
closed = 1;
nodes = (
"221 831 OFFCURVE",
"197 809 OFFCURVE",
"197 768 CURVE SMOOTH",
"197 727 OFFCURVE",
"221 705 OFFCURVE",
"260 705 CURVE SMOOTH",
"299 705 OFFCURVE",
"323 727 OFFCURVE",
"323 768 CURVE SMOOTH",
"323 809 OFFCURVE",
"299 831 OFFCURVE",
"260 831 CURVE SMOOTH"
);
}
);
width = 262;
}
);
},
{
color = 3;
glyphname = "prishthaMatraE-deva";
lastChange = "2014-10-24 06:26:20 +0000";
layers = (
{
anchors = (
{
name = bottom;
position = "{134, 0}";
},
{
name = top;
position = "{131, 680}";
}
);
layerId = "0225C979-6A3F-4323-834E-E3153ADD1AE8";
name = Regular;
paths = (
{
closed = 1;
nodes = (
"277 680 LINE",
"96 680 LINE",
"96 0 LINE",
"166 0 LINE",
"166 606 LINE",
"277 606 LINE"
);
}
);
width = 262;
}
);
unicode = 094E;
},
{
color = 3;
glyphname = "ka-deva";
lastChange = "2014-10-25 03:20:38 +0000";
layers = (
{
anchors = (
{
name = bottom;
position = "{433, 0}";
},
{
name = nukta;
position = "{92, 0}";
},
{
name = top;
position = "{433, 680}";
}
);
background = {
paths = (
{
closed = 1;
nodes = (
"119 496 OFFCURVE",
"55 444 OFFCURVE",
"55 304 CURVE SMOOTH",
"55 164 OFFCURVE",
"119 112 OFFCURVE",
"250 112 CURVE SMOOTH",
"322 112 OFFCURVE",
"366 128 OFFCURVE",
"409 151 CURVE",
"409 218 LINE",
"363 198 OFFCURVE",
"326 192 OFFCURVE",
"269 192 CURVE SMOOTH",
"160 192 OFFCURVE",
"129 214 OFFCURVE",
"129 304 CURVE SMOOTH",
"129 394 OFFCURVE",
"161 416 OFFCURVE",
"270 416 CURVE SMOOTH",
"327 416 OFFCURVE",
"363 409 OFFCURVE",
"408 389 CURVE",
"408 459 LINE",
"364 481 OFFCURVE",
"320 496 OFFCURVE",
"250 496 CURVE SMOOTH"
);
},
{
closed = 1;
nodes = (
"398 616 LINE",
"398 0 LINE",
"468 0 LINE",
"468 616 LINE"
);
},
{
closed = 1;
nodes = (
"0 680 LINE",
"1 606 LINE",
"879 606 LINE",
"879 680 LINE"
);
},
{
closed = 1;
nodes = (
"557 116 LINE",
"582 113 OFFCURVE",
"607 112 OFFCURVE",
"635 112 CURVE SMOOTH",
"696 112 OFFCURVE",
"737 124 OFFCURVE",
"765 152 CURVE SMOOTH",
"795 183 OFFCURVE",
"811 232 OFFCURVE",
"811 304 CURVE SMOOTH",
"811 444 OFFCURVE",
"747 496 OFFCURVE",
"616 496 CURVE SMOOTH",
"546 496 OFFCURVE",
"502 481 OFFCURVE",
"458 459 CURVE",
"458 389 LINE",
"503 409 OFFCURVE",
"538 416 OFFCURVE",
"597 416 CURVE SMOOTH",
"709 416 OFFCURVE",
"737 394 OFFCURVE",
"737 304 CURVE SMOOTH",
"737 214 OFFCURVE",
"713 192 OFFCURVE",
"625 192 CURVE SMOOTH",
"602 192 OFFCURVE",
"580 193 OFFCURVE",
"557 196 CURVE"
);
}
);
};
guideLines = (
{
position = "{271, 304}";
}
);
layerId = "0225C979-6A3F-4323-834E-E3153ADD1AE8";
name = Regular;
paths = (
{
closed = 1;
nodes = (
"119 496 OFFCURVE",
"55 444 OFFCURVE",
"55 304 CURVE SMOOTH",
"55 164 OFFCURVE",
"119 112 OFFCURVE",
"250 112 CURVE SMOOTH",
"322 112 OFFCURVE",
"366 128 OFFCURVE",
"409 151 CURVE",
"409 218 LINE",
"363 198 OFFCURVE",
"326 192 OFFCURVE",
"269 192 CURVE SMOOTH",
"160 192 OFFCURVE",
"129 214 OFFCURVE",
"129 304 CURVE SMOOTH",
"129 394 OFFCURVE",
"161 416 OFFCURVE",
"270 416 CURVE SMOOTH",
"327 416 OFFCURVE",
"363 409 OFFCURVE",
"408 389 CURVE",
"408 459 LINE",
"364 481 OFFCURVE",
"320 496 OFFCURVE",
"250 496 CURVE SMOOTH"
);
},
{
closed = 1;
nodes = (
"398 616 LINE",
"398 0 LINE",
"468 0 LINE",
"468 616 LINE"
);
},
{
closed = 1;
nodes = (
"0 680 LINE",
"1 606 LINE",
"879 606 LINE",
"879 680 LINE"
);
},
{
closed = 1;
nodes = (
"557 116 LINE",
"582 113 OFFCURVE",
"609 112 OFFCURVE",
"629 112 CURVE SMOOTH",
"698 112 OFFCURVE",
"737 124 OFFCURVE",
"765 152 CURVE SMOOTH",
"795 183 OFFCURVE",
"811 232 OFFCURVE",
"811 303 CURVE SMOOTH",
"811 444 OFFCURVE",
"747 496 OFFCURVE",
"616 496 CURVE SMOOTH",
"546 496 OFFCURVE",
"502 481 OFFCURVE",
"458 459 CURVE",
"458 389 LINE",
"503 409 OFFCURVE",
"538 416 OFFCURVE",
"597 416 CURVE SMOOTH",
"709 416 OFFCURVE",
"737 394 OFFCURVE",
"737 304 CURVE SMOOTH",
"737 214 OFFCURVE",
"713 192 OFFCURVE",
"625 192 CURVE SMOOTH",
"602 192 OFFCURVE",
"580 193 OFFCURVE",
"557 196 CURVE"
);
}
);
width = 864;
}
);
unicode = 0915;
},
{
color = 3;
glyphname = "kha-deva";
lastChange = "2014-10-25 03:21:06 +0000";
layers = (
{
anchors = (
{
name = bottom;
position = "{741, 0}";
},
{
name = nukta;
position = "{57, 0}";
},
{
name = top;
position = "{741, 680}";
}
);
background = {
guideLines = (
{
position = "{80, 302}";
}
);
paths = (
{
closed = 1;
nodes = (
"335 0 LINE",
"335 1 LINE",
"102 288 LINE",
"84 271 LINE",
"230 271 OFFCURVE",
"291 317 OFFCURVE",
"291 440 CURVE SMOOTH",
"291 513 OFFCURVE",
"274 579 OFFCURVE",
"254 617 CURVE",
"153 617 LINE",
"185 582 OFFCURVE",
"212 520 OFFCURVE",
"212 453 CURVE SMOOTH",
"212 365 OFFCURVE",
"155 347 OFFCURVE",
"70 347 CURVE SMOOTH",
"32 347 LINE",
"32 260 LINE",
"242 0 LINE"
);
},
{
closed = 1;
nodes = (
"635 144 OFFCURVE",
"687 159 OFFCURVE",
"736 183 CURVE",
"736 250 LINE",
"686 231 OFFCURVE",
"649 224 OFFCURVE",
"591 224 CURVE SMOOTH",
"488 224 OFFCURVE",
"459 246 OFFCURVE",
"459 320 CURVE SMOOTH",
"459 394 OFFCURVE",
"488 416 OFFCURVE",
"591 416 CURVE SMOOTH",
"649 416 OFFCURVE",
"686 408 OFFCURVE",
"736 390 CURVE",
"736 458 LINE",
"687 482 OFFCURVE",
"635 496 OFFCURVE",
"565 496 CURVE SMOOTH",
"438 496 OFFCURVE",
"385 447 OFFCURVE",
"385 320 CURVE SMOOTH",
"385 193 OFFCURVE",
"438 144 OFFCURVE",
"565 144 CURVE SMOOTH"
);
},
{
closed = 1;
nodes = (
"795 0 LINE",
"795 616 LINE",
"725 616 LINE",
"725 0 LINE"
);
},
{
closed = 1;
nodes = (
"906 606 LINE",
"906 680 LINE",
"0 680 LINE",
"0 606 LINE"
);
}
);
};
guideLines = (
{
angle = 90;
position = "{32, 347}";
}
);
layerId = "0225C979-6A3F-4323-834E-E3153ADD1AE8";
name = Regular;
paths = (
{
closed = 1;
nodes = (
"335 0 LINE",
"335 1 LINE",
"100 288 LINE",
"84 271 LINE",
"230 271 OFFCURVE",
"291 317 OFFCURVE",
"291 440 CURVE SMOOTH",
"291 513 OFFCURVE",
"274 579 OFFCURVE",
"254 617 CURVE",
"153 617 LINE",
"185 582 OFFCURVE",
"212 520 OFFCURVE",
"212 453 CURVE SMOOTH",
"212 365 OFFCURVE",
"155 347 OFFCURVE",
"70 347 CURVE SMOOTH",
"32 347 LINE",
"32 260 LINE",
"240 0 LINE"
);
},
{
closed = 1;
nodes = (
"616 128 OFFCURVE",
"668 143 OFFCURVE",
"717 167 CURVE",
"717 234 LINE",
"667 215 OFFCURVE",
"630 208 OFFCURVE",
"572 208 CURVE SMOOTH",
"469 208 OFFCURVE",
"440 230 OFFCURVE",
"440 312 CURVE SMOOTH",
"440 394 OFFCURVE",
"469 416 OFFCURVE",
"572 416 CURVE SMOOTH",
"630 416 OFFCURVE",
"667 408 OFFCURVE",
"717 390 CURVE",
"717 458 LINE",
"668 482 OFFCURVE",
"616 496 OFFCURVE",
"546 496 CURVE SMOOTH",
"419 496 OFFCURVE",
"366 447 OFFCURVE",
"366 312 CURVE SMOOTH",
"366 177 OFFCURVE",
"419 128 OFFCURVE",
"546 128 CURVE SMOOTH"
);
},
{
closed = 1;
nodes = (
"776 0 LINE",
"776 616 LINE",
"706 616 LINE",
"706 0 LINE"
);
},
{
closed = 1;
nodes = (
"887 606 LINE",
"887 680 LINE",
"0 680 LINE",
"0 606 LINE"
);
}
);
width = 872;
},
{
anchors = (
{
name = nukta;
position = "{30, 0}";
},
{
name = top;
position = "{760, 680}";
}
);
associatedMasterId = "0225C979-6A3F-4323-834E-E3153ADD1AE8";
background = {
guideLines = (
{
position = "{80, 302}";
}
);
paths = (
{
closed = 1;
nodes = (
"190 616 LINE",
"222 581 OFFCURVE",
"251 517 OFFCURVE",
"251 453 CURVE SMOOTH",
"251 365 OFFCURVE",
"189 347 OFFCURVE",
"72 347 CURVE SMOOTH",
"32 347 LINE",
"32 260 LINE",
"242 0 LINE",
"335 0 LINE",
"335 1 LINE",
"102 288 LINE",
"81 267 LINE",
"259 267 OFFCURVE",
"325 312 OFFCURVE",
"325 440 CURVE SMOOTH",
"325 512 OFFCURVE",
"306 578 OFFCURVE",
"286 616 CURVE"
);
}
);
};
layerId = "C0C0E317-AAF4-44BE-9AA4-8A8320C61F9E";
name = "Regular Oct 17 14, 11:08";
paths = (
{
closed = 1;
nodes = (
"153 617 LINE",
"185 582 OFFCURVE",
"212 520 OFFCURVE",
"212 453 CURVE SMOOTH",
"212 360 OFFCURVE",
"155 342 OFFCURVE",
"70 342 CURVE SMOOTH",
"32 342 LINE",
"32 320 LINE SMOOTH",
"32 199 OFFCURVE",
"87 109 OFFCURVE",
"185 58 CURVE SMOOTH",
"251 24 OFFCURVE",
"345 0 OFFCURVE",
"473 0 CURVE",
"473 80 LINE",
"359 80 OFFCURVE",
"274 91 OFFCURVE",
"213 122 CURVE SMOOTH",
"156 151 OFFCURVE",
"103 212 OFFCURVE",
"103 288 CURVE",
"84 266 LINE",
"230 266 OFFCURVE",
"291 312 OFFCURVE",
"291 440 CURVE SMOOTH",
"291 513 OFFCURVE",
"274 579 OFFCURVE",
"254 617 CURVE"
);
},
{
closed = 1;
nodes = (
"438 496 OFFCURVE",
"385 447 OFFCURVE",
"385 320 CURVE SMOOTH",
"385 193 OFFCURVE",
"438 144 OFFCURVE",
"565 144 CURVE SMOOTH",
"635 144 OFFCURVE",
"687 159 OFFCURVE",
"736 183 CURVE",
"736 250 LINE",
"686 231 OFFCURVE",
"649 224 OFFCURVE",
"591 224 CURVE SMOOTH",
"488 224 OFFCURVE",
"459 246 OFFCURVE",
"459 320 CURVE SMOOTH",
"459 394 OFFCURVE",
"488 416 OFFCURVE",
"591 416 CURVE SMOOTH",
"649 416 OFFCURVE",
"686 408 OFFCURVE",
"736 390 CURVE",
"736 458 LINE",
"687 482 OFFCURVE",
"635 496 OFFCURVE",
"565 496 CURVE SMOOTH"
);
},
{
closed = 1;
nodes = (
"725 616 LINE",
"725 0 LINE",
"795 0 LINE",
"795 616 LINE"
);
},
{
closed = 1;
nodes = (
"0 680 LINE",
"0 606 LINE",
"906 606 LINE",
"906 680 LINE"
);
}
);
width = 891;
}
);
rightMetricsKey = "pa-deva";
unicode = 0916;
},
{
color = 3;
glyphname = "ga-deva";
lastChange = "2014-10-25 03:21:18 +0000";
layers = (
{
anchors = (
{
name = bottom;
position = "{459, 0}";
},
{
name = nukta;
position = "{132, 0}";
},
{
name = top;
position = "{459, 680}";
}
);
background = {
paths = (
{
closed = 1;
nodes = (
"424 616 LINE",
"424 0 LINE",
"494 0 LINE",
"494 616 LINE"
);
},
{
closed = 1;
nodes = (
"11 680 LINE",
"11 606 LINE",
"605 606 LINE",
"605 680 LINE"
);
},
{
closed = 1;
nodes = (
"43 268 LINE",
"43 193 OFFCURVE",
"75 164 OFFCURVE",
"128 164 CURVE SMOOTH",
"183 164 OFFCURVE",
"214 193 OFFCURVE",
"214 282 CURVE SMOOTH",
"214 616 LINE",
"144 616 LINE",
"144 288 LINE",
"168 322 LINE"
);
}
);
};
layerId = "0225C979-6A3F-4323-834E-E3153ADD1AE8";
name = Regular;
paths = (
{
closed = 1;
nodes = (
"424 616 LINE",
"424 0 LINE",
"494 0 LINE",
"494 616 LINE"
);
},
{
closed = 1;
nodes = (
"0 680 LINE",
"0 606 LINE",
"605 606 LINE",
"605 680 LINE"
);
},
{
closed = 1;
nodes = (
"32 268 LINE",
"32 193 OFFCURVE",
"64 164 OFFCURVE",
"117 164 CURVE SMOOTH",
"172 164 OFFCURVE",
"203 193 OFFCURVE",
"203 282 CURVE SMOOTH",
"203 616 LINE",
"133 616 LINE",
"133 288 LINE",
"157 322 LINE"
);
}
);
width = 590;
}
);
rightMetricsKey = "pa-deva";
unicode = 0917;
},
{
color = 3;
glyphname = "gha-deva";
lastChange = "2014-10-25 03:21:36 +0000";
layers = (
{
anchors = (
{
name = bottom;
position = "{516, 0}";
},
{
name = nukta;
position = "{146, 0}";
},
{
name = top;
position = "{516, 680}";
}
);
background = {
paths = (
{
closed = 1;
nodes = (
"376 113 OFFCURVE",
"433 126 OFFCURVE",
"486 158 CURVE",
"486 252 LINE",
"436 211 OFFCURVE",
"384 193 OFFCURVE",
"307 193 CURVE SMOOTH",
"207 193 OFFCURVE",
"182 223 OFFCURVE",
"182 288 CURVE SMOOTH",
"182 348 OFFCURVE",
"203 373 OFFCURVE",
"288 373 CURVE SMOOTH",
"338 373 LINE",
"338 449 LINE",
"251 449 LINE SMOOTH",
"135 449 OFFCURVE",
"117 473 OFFCURVE",
"117 540 CURVE SMOOTH",
"117 567 OFFCURVE",
"120 590 OFFCURVE",
"132 616 CURVE",
"58 616 LINE",
"48 598 OFFCURVE",
"43 574 OFFCURVE",
"43 543 CURVE SMOOTH",
"43 441 OFFCURVE",
"97 391 OFFCURVE",
"177 381 CURVE",
"202 407 LINE",
"147 402 OFFCURVE",
"108 355 OFFCURVE",
"108 276 CURVE SMOOTH",
"108 175 OFFCURVE",
"173 113 OFFCURVE",
"313 113 CURVE SMOOTH"
);
},
{
closed = 1;
nodes = (
"551 0 LINE",
"551 616 LINE",
"481 616 LINE",
"481 0 LINE"
);
},
{
closed = 1;
nodes = (
"662 606 LINE",
"662 679 LINE",
"-9 680 LINE",
"-9 606 LINE"
);
}
);
};
layerId = "0225C979-6A3F-4323-834E-E3153ADD1AE8";
name = Regular;
paths = (
{
closed = 1;
nodes = (
"377 100 OFFCURVE",
"434 113 OFFCURVE",
"487 145 CURVE",
"487 239 LINE",
"437 198 OFFCURVE",
"385 180 OFFCURVE",
"308 180 CURVE SMOOTH",
"208 180 OFFCURVE",
"183 210 OFFCURVE",
"183 275 CURVE SMOOTH",
"183 333 OFFCURVE",
"204 358 OFFCURVE",
"289 358 CURVE SMOOTH",
"367 358 LINE",
"367 434 LINE",
"292 434 LINE SMOOTH",
"176 434 OFFCURVE",
"158 458 OFFCURVE",
"157 532 CURVE SMOOTH",
"157 567 OFFCURVE",
"162 590 OFFCURVE",
"174 616 CURVE",
"100 616 LINE",
"90 598 OFFCURVE",
"83 571 OFFCURVE",
"83 532 CURVE SMOOTH",
"84 423 OFFCURVE",
"138 376 OFFCURVE",
"218 366 CURVE",
"203 392 LINE",
"148 387 OFFCURVE",
"109 340 OFFCURVE",
"109 263 CURVE SMOOTH",
"109 162 OFFCURVE",
"174 100 OFFCURVE",
"314 100 CURVE SMOOTH"
);
},
{
closed = 1;
nodes = (
"551 0 LINE",
"551 616 LINE",
"481 616 LINE",
"481 0 LINE"
);
},
{
closed = 1;
nodes = (
"662 606 LINE",
"662 679 LINE",
"0 680 LINE",
"0 606 LINE"
);
}
);
width = 647;
}
);
rightMetricsKey = "pa-deva";
unicode = 0918;
},
